{
.appVersion = "1356";
copyright = "Copyright © 2018 by deni anggara. All rights reserved.";
customParameters = (
{
name = Axes;
value = (
{
Hidden = 1;
Name = Width;
Tag = wdth;
}
);
}
);
date = "2018-07-14 21:09:12 +0000";
designer = "deni anggara";
designerURL = www.lokalcontainer.org;
familyName = Mogi;
featurePrefixes = (
{
automatic = 1;
code = "languagesystem DFLT dflt;\012\012languagesystem latn dflt;\012languagesystem latn AZE;\012languagesystem latn CRT;\012languagesystem latn KAZ;\012languagesystem latn TAT;\012languagesystem latn TRK;\012languagesystem latn ROM;\012languagesystem latn MOL;\012";
name = Languagesystems;
}
);
features = (
{
automatic = 1;
code = "feature locl;\012feature subs;\012feature sinf;\012feature sups;\012feature numr;\012feature dnom;\012feature frac;\012feature ordn;\012feature case;\012feature salt;\012feature ss01;\012";
name = aalt;
},
{
automatic = 1;
code = "lookup ccmp_Other_1 {\012	@CombiningTopAccents = [acutecomb brevecomb caroncomb circumflexcomb commaturnedabovecomb dieresiscomb dotaccentcomb gravecomb hungarumlautcomb macroncomb ringcomb tildecomb];\012	@CombiningNonTopAccents = [cedillacomb ogonekcomb slashlongcomb slashshortcomb strokeshortcomb];\012	sub [i]' @CombiningTopAccents by [idotless];\012	sub [i]' @CombiningNonTopAccents @CombiningTopAccents by [idotless];\012} ccmp_Other_1;\012";
name = ccmp;
},
{
automatic = 1;
code = "lookup locl_latn_0 {\012	script latn;\012	language AZE;\012	language CRT;\012	language KAZ;\012	language TAT;\012	language TRK;\012	sub i by idotaccent;\012} locl_latn_0;\012\012lookup locl_latn_1 {\012	script latn;\012	language ROM;\012	language MOL;\012	sub Scedilla by Scommaaccent;\012	sub scedilla by scommaaccent;\012	sub Tcedilla by Tcommaaccent;\012	sub tcedilla by tcommaaccent;\012} locl_latn_1;\012";
name = locl;
},
{
automatic = 1;

glyphs = (
{
glyphname = A;
lastChange = "2020-05-30 09:56:08 +0000";
layers = (
{
anchors = (
{
name = bottom;
position = "{371, 0}";
},
{
name = ogonek;
position = "{707, 0}";
},
{
name = top;
position = "{371, 690}";
}
);
layerId = "898421D1-ED89-4F9A-874F-2D62076340E9";
paths = (
{
closed = 1;
nodes = (
"345 0 LINE",
"347 56 LINE",
"394 56 LINE",
"396 0 LINE",
"741 0 LINE",
"593 690 LINE",
"148 690 LINE",
"0 0 LINE"
);
},
{
closed = 1;
nodes = (
"354 383 LINE",
"387 383 LINE",
"387 240 LINE",
"354 240 LINE"
);
}
);
width = 741;
},
{
anchors = (
{
name = bottom;
position = "{416, 0}";
},
{
name = ogonek;
position = "{793, 0}";
},
{
name = top;
position = "{416, 690}";
}
);
layerId = "3B426CF6-0C00-48CC-B0F4-6E2C4CD07FAD";
paths = (
{
closed = 1;
nodes = (
"387 0 LINE",
"389 56 LINE",
"442 56 LINE",
"444 0 LINE",
"831 0 LINE",
"665 690 LINE",
"166 690 LINE",
"0 0 LINE"
);
},
{
closed = 1;
nodes = (
"397 383 LINE",
"434 383 LINE",
"434 240 LINE",
"397 240 LINE"
);
}
);
width = 831;
}
);
leftKerningGroup = A;
rightKerningGroup = A;
unicode = 0041;
},
{
glyphname = AE;
lastChange = "2020-05-27 03:12:14 +0000";
layers = (
{
layerId = "898421D1-ED89-4F9A-874F-2D62076340E9";
paths = (
{
closed = 1;
nodes = (
"593 690 LINE",
"148 690 LINE",
"0 0 LINE",
"345 0 LINE",
"347 56 LINE",
"410 56 LINE",
"403 240 LINE",
"354 240 LINE",
"354 383 LINE",
"387 383 LINE"
);
},
{
closed = 1;
nodes = (
"987 690 LINE",
"387 690 LINE",
"387 0 LINE",
"987 0 LINE",
"987 253 LINE",
"711 253 LINE",
"711 437 LINE",
"987 437 LINE"
);
},
{
closed = 1;
nodes = (
"679 290 LINE",
"977 290 LINE",
"977 400 LINE",
"679 400 LINE"
);
}
);
width = 1007;
},
{
layerId = "3B426CF6-0C00-48CC-B0F4-6E2C4CD07FAD";
paths = (
{
closed = 1;
nodes = (
"647 690 LINE",
"161 690 LINE",
"0 0 LINE",
"376 0 LINE",
"379 56 LINE",
"447 56 LINE",
"440 240 LINE",
"386 240 LINE",
"386 383 LINE",
"422 383 LINE"
);
},
{
closed = 1;
nodes = (
"1077 690 LINE",
"422 690 LINE",
"422 0 LINE",
"1077 0 LINE",
"1077 253 LINE",
"776 253 LINE",
"776 437 LINE",
"1077 437 LINE"
);
},
{
closed = 1;
nodes = (
"741 290 LINE",
"1066 290 LINE",
"1066 400 LINE",
"741 400 LINE"
);
}
);
width = 1097;
}
);
leftKerningGroup = A;
leftMetricsKey = A;
rightKerningGroup = E;
rightMetricsKey = E;
unicode = 00C6;
},
{
glyphname = B;
lastChange = "2020-05-27 03:34:40 +0000";
layers = (
{
anchors = (
{
name = bottom;
position = "{367, 0}";
},
{
name = top;
position = "{367, 690}";
}
);
layerId = "898421D1-ED89-4F9A-874F-2D62076340E9";
paths = (
{
closed = 1;
nodes = (
"481 0 LINE SMOOTH",
"640 0 OFFCURVE",
"724 60 OFFCURVE",
"724 179 CURVE SMOOTH",
"724 274 OFFCURVE",
"664 335 OFFCURVE",
"555 341 CURVE",
"555 354 LINE",
"653 370 OFFCURVE",
"705 429 OFFCURVE",
"705 523 CURVE SMOOTH",
"705 623 OFFCURVE",
"629 690 OFFCURVE",
"457 690 CURVE SMOOTH",
"20 690 LINE",
"20 0 LINE"
);
},
{
closed = 1;
nodes = (
"343 328 LINE",
"365 328 OFFCURVE",
"391 313 OFFCURVE",
"391 274 CURVE SMOOTH",
"391 235 OFFCURVE",
"368 215 OFFCURVE",
"343 215 CURVE"
);
},
{
closed = 1;
nodes = (
"343 475 LINE",
"368 475 OFFCURVE",
"391 455 OFFCURVE",
"391 418 CURVE SMOOTH",
"391 381 OFFCURVE",
"368 362 OFFCURVE",
"343 362 CURVE"
);
}
);
width = 734;
},
{
anchors = (
{
name = bottom;
position = "{421, 0}";
},
{
name = top;
position = "{421, 690}";
}
);
layerId = "3B426CF6-0C00-48CC-B0F4-6E2C4CD07FAD";
paths = (
{
closed = 1;
nodes = (
"560 0 LINE SMOOTH",
"739 0 OFFCURVE",
"834 60 OFFCURVE",
"834 179 CURVE SMOOTH",
"834 274 OFFCURVE",
"766 335 OFFCURVE",
"643 341 CURVE",
"643 354 LINE",
"754 370 OFFCURVE",
"813 430 OFFCURVE",
"813 523 CURVE SMOOTH",
"813 623 OFFCURVE",
"726 690 OFFCURVE",
"533 690 CURVE SMOOTH",
"20 690 LINE",
"20 0 LINE"
);
},
{
closed = 1;
nodes = (
"394 328 LINE",
"419 328 OFFCURVE",
"448 313 OFFCURVE",
"448 274 CURVE SMOOTH",
"448 235 OFFCURVE",
"422 215 OFFCURVE",
"394 215 CURVE"
);
},
{
closed = 1;
nodes = (
"394 475 LINE",
"422 475 OFFCURVE",
"448 455 OFFCURVE",
"448 418 CURVE SMOOTH",
"448 381 OFFCURVE",
"422 362 OFFCURVE",
"394 362 CURVE"
);
}
);
width = 844;
}
);
leftKerningGroup = L;
rightKerningGroup = B;
unicode = 0042;
},
{
glyphname = C;
lastChange = "2020-05-30 09:34:35 +0000";
layers = (
{
anchors = (
{
name = bottom;
position = "{341, 0}";
},
{
name = top;
position = "{341, 690}";
}
);
layerId = "898421D1-ED89-4F9A-874F-2D62076340E9";
paths = (
{
closed = 1;
nodes = (
"10 130 OFFCURVE",
"158 -10 OFFCURVE",
"409 -10 CURVE SMOOTH",
"506 -10 OFFCURVE",
"605 11 OFFCURVE",
"662 50 CURVE",
"662 323 LINE",
"623 292 OFFCURVE",
"559 264 OFFCURVE",
"475 264 CURVE SMOOTH",
"405 264 OFFCURVE",
"357 291 OFFCURVE",
"357 339 CURVE SMOOTH",
"357 382 OFFCURVE",
"394 411 OFFCURVE",
"460 411 CURVE SMOOTH",
"519 411 OFFCURVE",
"587 393 OFFCURVE",
"634 356 CURVE",
"653 648 LINE",
"598 680 OFFCURVE",
"505 702 OFFCURVE",
"411 702 CURVE SMOOTH",
"170 702 OFFCURVE",
"10 560 OFFCURVE",
"10 341 CURVE SMOOTH"
);
}
);
width = 682;
},
{
anchors = (
{
name = bottom;
position = "{387, 0}";
},
{
name = top;
position = "{387, 690}";
}
);
layerId = "3B426CF6-0C00-48CC-B0F4-6E2C4CD07FAD";
paths = (
{
closed = 1;
nodes = (
"10 130 OFFCURVE",
"179 -10 OFFCURVE",
"464 -10 CURVE SMOOTH",
"574 -10 OFFCURVE",
"687 11 OFFCURVE",
"752 50 CURVE",
"752 323 LINE",
"708 292 OFFCURVE",
"634 264 OFFCURVE",
"539 264 CURVE SMOOTH",
"460 264 OFFCURVE",
"405 291 OFFCURVE",
"405 339 CURVE SMOOTH",
"405 382 OFFCURVE",
"448 411 OFFCURVE",
"522 411 CURVE SMOOTH",
"588 411 OFFCURVE",
"667 393 OFFCURVE",
"720 356 CURVE",
"742 648 LINE",
"679 680 OFFCURVE",
"573 702 OFFCURVE",
"466 702 CURVE SMOOTH",
"193 702 OFFCURVE",
"10 560 OFFCURVE",
"10 341 CURVE SMOOTH"
);
}
);
width = 772;
}
);
leftKerningGroup = C;
rightKerningGroup = C;
unicode = 0043;
},
{
glyphname = D;
lastChange = "2020-05-27 03:34:25 +0000";
layers = (
{
anchors = (
{
name = bottom;
position = "{377, 0}";
},
{
name = center;
position = "{188, 345}";
},
{
name = top;
position = "{377, 690}";
}
);
layerId = "898421D1-ED89-4F9A-874F-2D62076340E9";
paths = (
{
closed = 1;
nodes = (
"353 0 LINE SMOOTH",
"588 0 OFFCURVE",
"744 124 OFFCURVE",
"744 345 CURVE SMOOTH",
"744 552 OFFCURVE",
"604 690 OFFCURVE",
"354 690 CURVE SMOOTH",
"20 690 LINE",
"20 0 LINE"
);
},
{
closed = 1;
nodes = (
"344 420 LINE",
"350 420 LINE SMOOTH",
"381 420 OFFCURVE",
"396 396 OFFCURVE",
"396 345 CURVE SMOOTH",
"396 300 OFFCURVE",
"384 270 OFFCURVE",
"350 270 CURVE SMOOTH",
"344 270 LINE"
);
}
);
width = 754;
},
{
anchors = (
{
name = bottom;
position = "{431, 0}";
},
{
name = center;
position = "{219, 345}";
},
{
name = top;
position = "{431, 690}";
}
);
layerId = "3B426CF6-0C00-48CC-B0F4-6E2C4CD07FAD";
paths = (
{
closed = 1;
nodes = (
"404 0 LINE SMOOTH",
"668 0 OFFCURVE",
"844 124 OFFCURVE",
"844 345 CURVE SMOOTH",
"844 552 OFFCURVE",
"686 690 OFFCURVE",
"406 690 CURVE SMOOTH",
"20 690 LINE",
"20 0 LINE"
);
},
{
closed = 1;
nodes = (
"394 420 LINE",
"401 420 LINE SMOOTH",
"436 420 OFFCURVE",
"453 395 OFFCURVE",
"453 345 CURVE SMOOTH",
"453 300 OFFCURVE",
"439 270 OFFCURVE",
"401 270 CURVE SMOOTH",
"394 270 LINE"
);
}
);
width = 854;
}
);
leftKerningGroup = L;
rightKerningGroup = D;
unicode = 0044;
},
{
glyphname = Eth;
lastChange = "2020-05-27 21:52:12 +0000";
layers = (
{
anchors = (
{
name = bottom;
position = "{377, 0}";
},
{
name = center;
position = "{188, 345}";
},
{
name = top;
position = "{377, 690}";
}
);
layerId = "898421D1-ED89-4F9A-874F-2D62076340E9";
paths = (
{
closed = 1;
nodes = (
"353 0 LINE SMOOTH",
"588 0 OFFCURVE",
"744 124 OFFCURVE",
"744 345 CURVE SMOOTH",
"744 552 OFFCURVE",
"604 690 OFFCURVE",
"354 690 CURVE SMOOTH",
"20 690 LINE",
"20 0 LINE"
);
},
{
closed = 1;
nodes = (
"332 420 LINE",
"341 420 LINE SMOOTH",
"386 420 OFFCURVE",
"408 396 OFFCURVE",
"408 345 CURVE SMOOTH",
"408 300 OFFCURVE",
"390 270 OFFCURVE",
"341 270 CURVE SMOOTH",
"332 270 LINE"
);
},
{
closed = 1;
nodes = (
"-4.177 321 LINE",
"378.61 321 LINE",
"378.61 368 LINE",
"-4.177 368 LINE"
);
}
);
width = 754;
},
{
anchors = (
{
name = bottom;
position = "{431, 0}";
},
{
name = center;
position = "{219, 345}";
},
{
name = top;
position = "{431, 690}";
}
);
layerId = "3B426CF6-0C00-48CC-B0F4-6E2C4CD07FAD";
paths = (
{
closed = 1;
nodes = (
"404 0 LINE SMOOTH",
"668 0 OFFCURVE",
"844 124 OFFCURVE",
"844 345 CURVE SMOOTH",
"844 552 OFFCURVE",
"686 690 OFFCURVE",
"406 690 CURVE SMOOTH",
"20 690 LINE",
"20 0 LINE"
);
},
{
closed = 1;
nodes = (
"377 420 LINE",
"388 420 LINE SMOOTH",
"443 420 OFFCURVE",
"470 395 OFFCURVE",
"470 345 CURVE SMOOTH",
"470 300 OFFCURVE",
"448 270 OFFCURVE",
"388 270 CURVE SMOOTH",
"377 270 LINE"
);
},
{
closed = 1;
nodes = (
"-3.177 321 LINE",
"441.02 321 LINE",
"441.02 368 LINE",
"-3.177 368 LINE"
);
}
);
width = 854;
}
);
leftKerningGroup = L;
rightKerningGroup = D;
unicode = 00D0;
},
{
glyphname = E;
lastChange = "2020-05-27 03:35:28 +0000";
layers = (
{
anchors = (
{
name = bottom;
position = "{320, 0}";
},
{
name = ogonek;
position = "{576, 10}";
},
{
name = top;
position = "{320, 690}";
},
{
name = topleft;
position = "{20, 690}";
}
);
layerId = "898421D1-ED89-4F9A-874F-2D62076340E9";
paths = (
{
closed = 1;
nodes = (
"620 690 LINE",
"20 690 LINE",
"20 0 LINE",
"620 0 LINE",
"620 253 LINE",
"344 253 LINE",
"344 437 LINE",
"620 437 LINE"
);
},
{
closed = 1;
nodes = (
"312 290 LINE",
"610 290 LINE",
"610 400 LINE",
"312 400 LINE"
);
}
);
width = 640;
},
{
anchors = (
{
name = bottom;
position = "{366, 0}";
},
{
name = ogonek;
position = "{660, 10}";
},
{
name = top;
position = "{366, 690}";
},
{
name = topleft;
position = "{21, 690}";
}
);
layerId = "3B426CF6-0C00-48CC-B0F4-6E2C4CD07FAD";
paths = (
{
closed = 1;
nodes = (
"711 690 LINE",
"20 690 LINE",
"20 0 LINE",
"711 0 LINE",
"711 253 LINE",
"394 253 LINE",
"394 437 LINE",
"711 437 LINE"
);
},
{
closed = 1;
nodes = (
"357 290 LINE",
"699 290 LINE",
"699 400 LINE",
"357 400 LINE"
);
}
);
width = 731;
}
);
leftKerningGroup = L;
unicode = 0045;
},
{
glyphname = F;
lastChange = "2020-05-27 03:35:35 +0000";
layers = (
{
anchors = (
{
name = bottom;
position = "{315, 0}";
},
{
name = top;
position = "{315, 690}";
}
);
layerId = "898421D1-ED89-4F9A-874F-2D62076340E9";
paths = (
{
closed = 1;
nodes = (
"610 690 LINE",
"20 690 LINE",
"20 0 LINE",
"344 0 LINE",
"344 437 LINE",
"610 437 LINE"
);
},
{
closed = 1;
nodes = (
"311 195 LINE",
"581 195 LINE",
"581 400 LINE",
"311 400 LINE"
);
}
);
width = 630;
},
{
anchors = (
{
name = bottom;
position = "{361, 0}";
},
{
name = top;
position = "{361, 690}";
}
);
layerId = "3B426CF6-0C00-48CC-B0F4-6E2C4CD07FAD";
paths = (
{
closed = 1;
nodes = (
"701 690 LINE",
"20 690 LINE",
"20 0 LINE",
"394 0 LINE",
"394 437 LINE",
"701 437 LINE"
);
},
{
closed = 1;
nodes = (
"356 195 LINE",
"668 195 LINE",
"668 400 LINE",
"356 400 LINE"
);
}
);
width = 721;
}
);
leftKerningGroup = L;
rightKerningGroup = F;
unicode = 0046;
},
{
glyphname = G;
lastChange = "2020-05-27 16:50:48 +0000";
layers = (
{
anchors = (
{
name = bottom;
position = "{380, 0}";
},
{
name = top;
position = "{380, 690}";
}
);
layerId = "898421D1-ED89-4F9A-874F-2D62076340E9";
paths = (
{
closed = 1;
nodes = (
"739 383 LINE",
"505 383 LINE",
"505 196 LINE",
"512 224 LINE",
"505 220 OFFCURVE",
"483 216 OFFCURVE",
"461 216 CURVE SMOOTH",
"396 216 OFFCURVE",
"353 256 OFFCURVE",
"353 320 CURVE SMOOTH",
"353 394 OFFCURVE",
"407 439 OFFCURVE",
"505 439 CURVE SMOOTH",
"569 439 OFFCURVE",
"642 420 OFFCURVE",
"682 394 CURVE",
"701 647 LINE",
"644 677 OFFCURVE",
"548 701 OFFCURVE",
"442 701 CURVE SMOOTH",
"183 701 OFFCURVE",
"10 559 OFFCURVE",
"10 337 CURVE SMOOTH",
"10 133 OFFCURVE",
"156 -10 OFFCURVE",
"413 -10 CURVE SMOOTH",
"528 -10 OFFCURVE",
"660 18 OFFCURVE",
"739 70 CURVE"
);
},
{
closed = 1;
nodes = (
"391 272 LINE",
"572 272 LINE",
"572 383 LINE",
"401 383 LINE"
);
}
);
width = 759;
},
{
anchors = (
{
name = bottom;
position = "{436, 0}";
},
{
name = top;
position = "{436, 690}";
}
);
background = {
paths = (
{
closed = 1;
nodes = (
"10 130 OFFCURVE",
"179 -10 OFFCURVE",
"464 -10 CURVE SMOOTH",
"574 -10 OFFCURVE",
"687 11 OFFCURVE",
"752 50 CURVE",
"752 323 LINE",
"708 292 OFFCURVE",
"634 264 OFFCURVE",
"539 264 CURVE SMOOTH",
"460 264 OFFCURVE",
"405 291 OFFCURVE",
"405 339 CURVE SMOOTH",
"405 382 OFFCURVE",
"448 411 OFFCURVE",
"522 411 CURVE SMOOTH",
"588 411 OFFCURVE",
"667 393 OFFCURVE",
"720 356 CURVE",
"742 648 LINE",
"679 680 OFFCURVE",
"573 702 OFFCURVE",
"466 702 CURVE SMOOTH",
"193 702 OFFCURVE",
"10 560 OFFCURVE",
"10 341 CURVE SMOOTH"
);
}
);
};
layerId = "3B426CF6-0C00-48CC-B0F4-6E2C4CD07FAD";
paths = (
{
closed = 1;
nodes = (
"839 383 LINE",
"576 383 LINE",
"576 196 LINE",
"584 224 LINE",
"576 220 OFFCURVE",
"551 216 OFFCURVE",
"527 216 CURVE SMOOTH",
"454 216 OFFCURVE",
"405 256 OFFCURVE",
"405 320 CURVE SMOOTH",
"405 396 OFFCURVE",
"453 439 OFFCURVE",
"576 439 CURVE SMOOTH",
"648 439 OFFCURVE",
"730 420 OFFCURVE",
"775 394 CURVE",
"796 647 LINE",
"724 679 OFFCURVE",
"604 701 OFFCURVE",
"475 701 CURVE SMOOTH",
"192 701 OFFCURVE",
"10 555 OFFCURVE",
"10 337 CURVE SMOOTH",
"10 133 OFFCURVE",
"175 -10 OFFCURVE",
"473 -10 CURVE SMOOTH",
"611 -10 OFFCURVE",
"757 22 OFFCURVE",
"839 70 CURVE"
);
},
{
closed = 1;
nodes = (
"448 272 LINE",
"651 272 LINE",
"651 383 LINE",
"459 383 LINE"
);
}
);
width = 859;
}
);
leftKerningGroup = C;
rightKerningGroup = G;
unicode = 0047;
},
{
glyphname = H;
lastChange = "2020-05-27 03:36:13 +0000";
layers = (
{
anchors = (
{
name = bottom;
position = "{363, 0}";
},
{
name = center;
position = "{363, 565}";
},
{
name = top;
position = "{363, 690}";
},
{
name = topleft;
position = "{20, 690}";
}
);
layerId = "898421D1-ED89-4F9A-874F-2D62076340E9";
paths = (
{
closed = 1;
nodes = (
"20 690 LINE",
"20 0 LINE",
"344 0 LINE",
"344 690 LINE"
);
},
{
closed = 1;
nodes = (
"325 252 LINE",
"401 252 LINE",
"401 438 LINE",
"325 438 LINE"
);
},
{
closed = 1;
nodes = (
"382 690 LINE",
"382 0 LINE",
"706 0 LINE",
"706 690 LINE"
);
}
);
width = 726;
},
{
anchors = (
{
name = bottom;
position = "{415, 0}";
},
{
name = center;
position = "{415, 565}";
},
{
name = top;
position = "{415, 690}";
},
{
name = topleft;
position = "{27, 690}";
}
);
layerId = "3B426CF6-0C00-48CC-B0F4-6E2C4CD07FAD";
paths = (
{
closed = 1;
nodes = (
"20 690 LINE",
"20 0 LINE",
"394 0 LINE",
"394 690 LINE"
);
},
{
closed = 1;
nodes = (
"372 252 LINE",
"458 252 LINE",
"458 438 LINE",
"372 438 LINE"
);
},
{
closed = 1;
nodes = (
"436 690 LINE",
"436 0 LINE",
"810 0 LINE",
"810 690 LINE"
);
}
);
width = 830;
}
);
leftKerningGroup = L;
unicode = 0048;
},
{
glyphname = I;
lastChange = "2020-05-27 03:36:27 +0000";
layers = (
{
anchors = (
{
name = bottom;
position = "{182, 0}";
},
{
name = ogonek;
position = "{344, 0}";
},
{
name = top;
position = "{182, 690}";
},
{
name = topleft;
position = "{20, 690}";
}
);
layerId = "898421D1-ED89-4F9A-874F-2D62076340E9";
paths = (
{
closed = 1;
nodes = (
"20 690 LINE",
"20 0 LINE",
"344 0 LINE",
"344 690 LINE"
);
}
);
width = 364;
},
{
anchors = (
{
name = bottom;
position = "{207, 0}";
},
{
name = ogonek;
position = "{394, 0}";
},
{
name = top;
position = "{207, 690}";
},
{
name = topleft;
position = "{20, 690}";
}
);
layerId = "3B426CF6-0C00-48CC-B0F4-6E2C4CD07FAD";
paths = (
{
closed = 1;
nodes = (
"20 690 LINE",
"20 0 LINE",
"394 0 LINE",
"394 690 LINE"
);
}
);
width = 414;
}
);
leftKerningGroup = L;
unicode = 0049;
},
{
glyphname = J;
lastChange = "2020-05-30 09:35:42 +0000";
layers = (
{
anchors = (
{
name = bottom;
position = "{345, 0}";
},
{
name = top;
position = "{345, 690}";
}
);
layerId = "898421D1-ED89-4F9A-874F-2D62076340E9";
paths = (
{
closed = 1;
nodes = (
"20 103 OFFCURVE",
"113 -9 OFFCURVE",
"324 -9 CURVE SMOOTH",
"535 -9 OFFCURVE",
"669 80 OFFCURVE",
"669 272 CURVE SMOOTH",
"669 690 LINE",
"30 690 LINE",
"20 438 LINE",
"345 438 LINE",
"345 297 LINE SMOOTH",
"345 276 OFFCURVE",
"345 262 OFFCURVE",
"327 262 CURVE SMOOTH",
"312 262 OFFCURVE",
"308 272 OFFCURVE",
"308 297 CURVE SMOOTH",
"308 413 LINE",
"20 402 LINE",
"20 272 LINE SMOOTH"
);
}
);
width = 689;
},
{
anchors = (
{
name = bottom;
position = "{390, 0}";
},
{
name = top;
position = "{390, 690}";
}
);
layerId = "3B426CF6-0C00-48CC-B0F4-6E2C4CD07FAD";
paths = (
{
closed = 1;
nodes = (
"20 103 OFFCURVE",
"126 -9 OFFCURVE",
"366 -9 CURVE SMOOTH",
"609 -9 OFFCURVE",
"764 80 OFFCURVE",
"764 272 CURVE SMOOTH",
"764 690 LINE",
"31 690 LINE",
"20 438 LINE",
"390 438 LINE",
"390 297 LINE SMOOTH",
"390 276 OFFCURVE",
"390 262 OFFCURVE",
"370 262 CURVE SMOOTH",
"351 262 OFFCURVE",
"348 275 OFFCURVE",
"348 297 CURVE SMOOTH",
"348 413 LINE",
"20 402 LINE",
"20 272 LINE SMOOTH"
);
}
);
width = 779;
}
);
leftKerningGroup = J;
rightKerningGroup = J;
unicode = 004A;
},
{
glyphname = K;
lastChange = "2020-05-27 03:37:14 +0000";
layers = (
{
anchors = (
{
name = bottom;
position = "{376, 0}";
},
{
name = top;
position = "{376, 690}";
}
);
layerId = "898421D1-ED89-4F9A-874F-2D62076340E9";
paths = (
{
closed = 1;
nodes = (
"344 0 LINE",
"344 207 LINE",
"356 207 LINE",
"395 0 LINE",
"747 0 LINE",
"634 457 LINE",
"590 396 LINE",
"665 475 OFFCURVE",
"717 568 OFFCURVE",
"734 690 CURVE",
"391 690 LINE",
"361 492 LINE",
"344 492 LINE",
"344 690 LINE",
"20 690 LINE",
"20 0 LINE"
);
}
);
width = 752;
},
{
anchors = (
{
name = bottom;
position = "{430, 0}";
},
{
name = top;
position = "{430, 690}";
}
);
layerId = "3B426CF6-0C00-48CC-B0F4-6E2C4CD07FAD";
paths = (
{
closed = 1;
nodes = (
"394 0 LINE",
"394 207 LINE",
"408 207 LINE",
"451 0 LINE",
"857 0 LINE",
"730 457 LINE",
"681 396 LINE",
"764 474 OFFCURVE",
"823 568 OFFCURVE",
"842 690 CURVE",
"447 690 LINE",
"413 492 LINE",
"394 492 LINE",
"394 690 LINE",
"20 690 LINE",
"20 0 LINE"
);
}
);
width = 862;
}
);
leftKerningGroup = L;
rightKerningGroup = K;
unicode = 004B;
},
{
glyphname = L;
lastChange = "2020-05-27 03:37:30 +0000";
layers = (
{
anchors = (
{
name = bottom;
position = "{267, 0}";
},
{
name = center;
position = "{267, 345}";
},
{
name = top;
position = "{182, 690}";
},
{
name = topright;
position = "{514, 690}";
}
);
layerId = "898421D1-ED89-4F9A-874F-2D62076340E9";
paths = (
{
closed = 1;
nodes = (
"20 690 LINE",
"20 0 LINE",
"524 0 LINE",
"524 253 LINE",
"343 253 LINE",
"343 690 LINE"
);
}
);
width = 534;
},
{
anchors = (
{
name = bottom;
position = "{304, 0}";
},
{
name = center;
position = "{304, 345}";
},
{
name = top;
position = "{204, 690}";
},
{
name = topright;
position = "{595, 690}";
}
);
layerId = "3B426CF6-0C00-48CC-B0F4-6E2C4CD07FAD";
paths = (
{
closed = 1;
nodes = (
"20 690 LINE",
"20 0 LINE",
"607 0 LINE",
"607 253 LINE",
"394 253 LINE",
"394 690 LINE"
);
}
);
width = 617;
}
);
leftKerningGroup = L;
rightKerningGroup = L;
unicode = 004C;
},
{
glyphname = Lslash;
lastChange = "2020-05-27 03:12:14 +0000";
layers = (
{
components = (
{
name = L;
}
);
layerId = "898421D1-ED89-4F9A-874F-2D62076340E9";
paths = (
{
closed = 1;
nodes = (
"-22 302 LINE",
"439 402 LINE",
"439 552 LINE",
"-22 452 LINE"
);
}
);
width = 534;
},
{
components = (
{
name = L;
transform = "{1, 0, 0, 1, 4, 0}";
}
);
layerId = "3B426CF6-0C00-48CC-B0F4-6E2C4CD07FAD";
paths = (
{
closed = 1;
nodes = (
"-22 302 LINE",
"529 402 LINE",
"529 552 LINE",
"-22 452 LINE"
);
}
);
width = 628;
}
);
leftKerningGroup = L;
unicode = 0141;
},
{
glyphname = M;
lastChange = "2020-05-27 03:38:07 +0000";
layers = (
{
anchors = (
{
name = bottom;
position = "{436, 0}";
},
{
name = top;
position = "{436, 690}";
}
);
layerId = "898421D1-ED89-4F9A-874F-2D62076340E9";
paths = (
{
closed = 1;
nodes = (
"344 0 LINE",
"344 44 LINE SMOOTH",
"344 81 OFFCURVE",
"335 181 OFFCURVE",
"329 277 CURVE",
"349 279 LINE",
"381 83 LINE",
"490 83 LINE",
"522 279 LINE",
"542 277 LINE",
"535 181 OFFCURVE",
"527 81 OFFCURVE",
"527 44 CURVE SMOOTH",
"527 0 LINE",
"851 0 LINE",
"851 690 LINE",
"466 690 LINE",
"443 459 LINE",
"428 459 LINE",
"405 690 LINE",
"20 690 LINE",
"20 0 LINE"
);
}
);
width = 871;
},
{
anchors = (
{
name = bottom;
position = "{496, 0}";
},
{
name = top;
position = "{496, 690}";
}
);
layerId = "3B426CF6-0C00-48CC-B0F4-6E2C4CD07FAD";
paths = (
{
closed = 1;
nodes = (
"394 0 LINE",
"394 44 LINE SMOOTH",
"394 83 OFFCURVE",
"384 181 OFFCURVE",
"377 277 CURVE",
"400 279 LINE",
"435 83 LINE",
"556 83 LINE",
"591 279 LINE",
"614 277 LINE",
"606 181 OFFCURVE",
"597 85 OFFCURVE",
"597 44 CURVE SMOOTH",
"597 0 LINE",
"971 0 LINE",
"971 690 LINE",
"529 690 LINE",
"504 459 LINE",
"487 459 LINE",
"462 690 LINE",
"20 690 LINE",
"20 0 LINE"
);
}
);
width = 991;
}
);
leftKerningGroup = L;
unicode = 004D;
},
{
glyphname = N;
lastChange = "2020-05-27 03:38:28 +0000";
layers = (
{
anchors = (
{
name = bottom;
position = "{391, 0}";
},
{
name = top;
position = "{391, 690}";
}
);
layerId = "898421D1-ED89-4F9A-874F-2D62076340E9";
paths = (
{
closed = 1;
nodes = (
"343 0 LINE",
"343 35 LINE SMOOTH",
"343 84 OFFCURVE",
"338 153 OFFCURVE",
"330 206 CURVE",
"347 210 LINE",
"404 0 LINE",
"762 0 LINE",
"762 690 LINE",
"439 690 LINE",
"439 655 LINE SMOOTH",
"439 626 OFFCURVE",
"445 549 OFFCURVE",
"455 463 CURVE",
"438 459 LINE",
"378 690 LINE",
"20 690 LINE",
"20 0 LINE"
);
}
);
width = 782;
},
{
anchors = (
{
name = bottom;
position = "{448, 0}";
},
{
name = top;
position = "{448, 690}";
}
);
layerId = "3B426CF6-0C00-48CC-B0F4-6E2C4CD07FAD";
paths = (
{
closed = 1;
nodes = (
"394 0 LINE",
"394 35 LINE SMOOTH",
"394 81 OFFCURVE",
"389 150 OFFCURVE",
"380 206 CURVE",
"399 210 LINE",
"463 0 LINE",
"876 0 LINE",
"876 690 LINE",
"502 690 LINE",
"502 655 LINE SMOOTH",
"502 624 OFFCURVE",
"509 546 OFFCURVE",
"520 463 CURVE",
"501 459 LINE",
"433 690 LINE",
"20 690 LINE",
"20 0 LINE"
);
}
);
width = 896;
}
);
leftKerningGroup = L;
unicode = 004E;
},
{
glyphname = Eng;
lastChange = "2020-05-27 03:12:14 +0000";
layers = (
{
anchors = (
{
name = bottom;
position = "{391, 0}";
},
{
name = top;
position = "{391, 690}";
}
);
layerId = "898421D1-ED89-4F9A-874F-2D62076340E9";
paths = (
{
closed = 1;
nodes = (
"343 0 LINE",
"343 35 LINE SMOOTH",
"343 84 OFFCURVE",
"338 153 OFFCURVE",
"330 206 CURVE",
"347 210 LINE",
"404 0 LINE",
"442 0 LINE",
"442 -24 OFFCURVE",
"419 -54 OFFCURVE",
"358 -54 CURVE SMOOTH",
"339 -54 OFFCURVE",
"319 -50 OFFCURVE",
"307 -45 CURVE",
"307 -275 LINE",
"336 -288 OFFCURVE",
"390 -297 OFFCURVE",
"442 -297 CURVE SMOOTH",
"629 -297 OFFCURVE",
"755 -213 OFFCURVE",
"762 0 CURVE SMOOTH",
"762 690 LINE",
"439 690 LINE",
"439 655 LINE SMOOTH",
"439 626 OFFCURVE",
"445 549 OFFCURVE",
"455 463 CURVE",
"438 459 LINE",
"378 690 LINE",
"20 690 LINE",
"20 0 LINE"
);
}
);
width = 782;
},
{
anchors = (
{
name = bottom;
position = "{436, 0}";
},
{
name = top;
position = "{436, 690}";
}
);
layerId = "3B426CF6-0C00-48CC-B0F4-6E2C4CD07FAD";
paths = (
{
closed = 1;
nodes = (
"382 0 LINE",
"382 35 LINE SMOOTH",
"382 81 OFFCURVE",
"377 150 OFFCURVE",
"368 206 CURVE",
"387 210 LINE",
"451 0 LINE",
"493 0 LINE",
"493 -24 OFFCURVE",
"467 -54 OFFCURVE",
"399 -54 CURVE SMOOTH",
"379 -54 OFFCURVE",
"355 -50 OFFCURVE",
"342 -45 CURVE",
"342 -275 LINE",
"374 -288 OFFCURVE",
"436 -297 OFFCURVE",
"493 -297 CURVE SMOOTH",
"702 -297 OFFCURVE",
"848 -213 OFFCURVE",
"848 0 CURVE SMOOTH",
"848 690 LINE",
"490 690 LINE",
"490 655 LINE SMOOTH",
"490 624 OFFCURVE",
"497 546 OFFCURVE",
"508 463 CURVE",
"489 459 LINE",
"421 690 LINE",
"20 690 LINE",
"20 0 LINE"
);
}
);
width = 868;
}
);
leftKerningGroup = L;
leftMetricsKey = N;
rightMetricsKey = N;
unicode = 014A;
},
{
glyphname = O;
lastChange = "2020-05-30 09:48:49 +0000";
layers = (
{
anchors = (
{
name = bottom;
position = "{392, 0}";
},
{
name = center;
position = "{392, 345}";
},
{
name = ogonek;
position = "{706, 10}";
},
{
name = top;
position = "{392, 690}";
},
{
name = topleft;
position = "{20, 690}";
},
{
name = topright;
position = "{764, 690}";
}
);
layerId = "898421D1-ED89-4F9A-874F-2D62076340E9";
paths = (
{
closed = 1;
nodes = (
"10 132 OFFCURVE",
"141 -10 OFFCURVE",
"392 -10 CURVE SMOOTH",
"629 -10 OFFCURVE",
"774 118 OFFCURVE",
"774 346 CURVE SMOOTH",
"774 560 OFFCURVE",
"643 702 OFFCURVE",
"392 702 CURVE SMOOTH",
"155 702 OFFCURVE",
"10 574 OFFCURVE",
"10 346 CURVE SMOOTH"
);
},
{
closed = 1;
nodes = (
"358 402 OFFCURVE",
"369 440 OFFCURVE",
"392 440 CURVE SMOOTH",
"413 440 OFFCURVE",
"426 410 OFFCURVE",
"426 346 CURVE SMOOTH",
"426 290 OFFCURVE",
"415 252 OFFCURVE",
"392 252 CURVE SMOOTH",
"371 252 OFFCURVE",
"358 282 OFFCURVE",
"358 346 CURVE SMOOTH"
);
}
);
width = 784;
},
{
anchors = (
{
name = bottom;
position = "{437, 0}";
},
{
name = center;
position = "{437, 345}";
},
{
name = ogonek;
position = "{788, 10}";
},
{
name = top;
position = "{437, 690}";
},
{
name = topleft;
position = "{21, 690}";
},
{
name = topright;
position = "{853, 690}";
}
);
layerId = "3B426CF6-0C00-48CC-B0F4-6E2C4CD07FAD";
paths = (
{
closed = 1;
nodes = (
"10 132 OFFCURVE",
"157 -10 OFFCURVE",
"437 -10 CURVE SMOOTH",
"701 -10 OFFCURVE",
"864 118 OFFCURVE",
"864 346 CURVE SMOOTH",
"864 560 OFFCURVE",
"717 702 OFFCURVE",
"437 702 CURVE SMOOTH",
"173 702 OFFCURVE",
"10 574 OFFCURVE",
"10 346 CURVE SMOOTH"
);
},
{
closed = 1;
nodes = (
"399 401 OFFCURVE",
"411 440 OFFCURVE",
"437 440 CURVE SMOOTH",
"460 440 OFFCURVE",
"475 411 OFFCURVE",
"475 346 CURVE SMOOTH",
"475 291 OFFCURVE",
"463 252 OFFCURVE",
"437 252 CURVE SMOOTH",
"414 252 OFFCURVE",
"399 281 OFFCURVE",
"399 346 CURVE SMOOTH"
);
}
);
width = 874;
}
);
leftKerningGroup = O;
rightKerningGroup = O;
unicode = 004F;
},
{
glyphname = OE;
lastChange = "2020-05-27 03:12:14 +0000";
layers = (
{
anchors = (
{
name = bottom;
position = "{377, 0}";
},
{
name = center;
position = "{565.863, 345}";
},
{
name = ogonek;
position = "{1147, 10}";
},
{
name = top;
position = "{377, 690}";
},
{
name = topleft;
position = "{591, 690}";
}
);
layerId = "898421D1-ED89-4F9A-874F-2D62076340E9";
paths = (
{
closed = 1;
nodes = (
"10 138 OFFCURVE",
"126 0 OFFCURVE",
"381 0 CURVE SMOOTH",
"1010 0 LINE",
"1010 253 LINE",
"734 253 LINE",
"734 290 LINE",
"1000 290 LINE",
"1000 400 LINE",
"734 400 LINE",
"734 437 LINE",
"1010 437 LINE",
"1010 690 LINE",
"380 690 LINE SMOOTH",
"126 690 OFFCURVE",
"10 552 OFFCURVE",
"10 345 CURVE SMOOTH"
);
},
{
closed = 1;
nodes = (
"358 396 OFFCURVE",
"373 420 OFFCURVE",
"404 420 CURVE SMOOTH",
"410 420 LINE",
"410 270 LINE",
"404 270 LINE SMOOTH",
"370 270 OFFCURVE",
"358 300 OFFCURVE",
"358 345 CURVE SMOOTH"
);
}
);
width = 1030;
},
{
anchors = (
{
name = bottom;
position = "{393, 0}";
},
{
name = center;
position = "{633, 345}";
},
{
name = ogonek;
position = "{1249, 10}";
},
{
name = top;
position = "{410, 690}";
},
{
name = topleft;
position = "{643, 690}";
}
);
layerId = "3B426CF6-0C00-48CC-B0F4-6E2C4CD07FAD";
paths = (
{
closed = 1;
nodes = (
"10 138 OFFCURVE",
"137 0 OFFCURVE",
"414 0 CURVE SMOOTH",
"1100 0 LINE",
"1100 253 LINE",
"799 253 LINE",
"799 290 LINE",
"1089 290 LINE",
"1089 400 LINE",
"799 400 LINE",
"799 437 LINE",
"1100 437 LINE",
"1100 690 LINE",
"413 690 LINE SMOOTH",
"137 690 OFFCURVE",
"10 552 OFFCURVE",
"10 345 CURVE SMOOTH"
);
},
{
closed = 1;
nodes = (
"389 396 OFFCURVE",
"406 420 OFFCURVE",
"439 420 CURVE SMOOTH",
"446 420 LINE",
"446 270 LINE",
"439 270 LINE SMOOTH",
"403 270 OFFCURVE",
"389 300 OFFCURVE",
"389 345 CURVE SMOOTH"
);
}
);
width = 1120;
}
);
leftKerningGroup = O;
leftMetricsKey = O;
rightMetricsKey = E;
unicode = 0152;
},
{
glyphname = P;
lastChange = "2020-05-27 03:38:39 +0000";
layers = (
{
anchors = (
{
name = bottom;
position = "{375, 0}";
},
{
name = top;
position = "{375, 690}";
}
);
background = {
paths = (
{
closed = 1;
nodes = (
"398 0 LINE",
"744 0 LINE",
"626 283 LINE",
"365 192 LINE",
"406 192 LINE SMOOTH",
"638 192 OFFCURVE",
"742 288 OFFCURVE",
"742 458 CURVE SMOOTH",
"742 618 OFFCURVE",
"639 724 OFFCURVE",
"406 724 CURVE SMOOTH",
"-8 724 LINE",
"-8 0 LINE",
"312 0 LINE",
"312 192 LINE",
"328 192 LINE"
);
},
{
closed = 1;
nodes = (
"312 451 LINE",
"338 451 LINE SMOOTH",
"379 451 OFFCURVE",
"407 428 OFFCURVE",
"407 379 CURVE SMOOTH",
"407 336 OFFCURVE",
"385 307 OFFCURVE",
"338 307 CURVE SMOOTH",
"312 307 LINE"
);
}
);
};
layerId = "898421D1-ED89-4F9A-874F-2D62076340E9";
paths = (
{
closed = 1;
nodes = (
"414 126 LINE SMOOTH",
"638 126 OFFCURVE",
"744 239 OFFCURVE",
"744 408 CURVE SMOOTH",
"744 600 OFFCURVE",
"607 690 OFFCURVE",
"402 690 CURVE SMOOTH",
"20 690 LINE",
"20 0 LINE",
"344 0 LINE",
"344 126 LINE"
);
},
{
closed = 1;
nodes = (
"344 444 LINE",
"350 444 LINE SMOOTH",
"378 444 OFFCURVE",
"396 429 OFFCURVE",
"396 380 CURVE SMOOTH",
"396 342 OFFCURVE",
"385 316 OFFCURVE",
"350 316 CURVE SMOOTH",
"344 316 LINE"
);
}
);
width = 754;
},
{
anchors = (
{
name = bottom;
position = "{429, 0}";
},
{
name = top;
position = "{429, 690}";
}
);
background = {
paths = (
{
closed = 1;
nodes = (
"452 0 LINE",
"798 0 LINE",
"680 283 LINE",
"419 192 LINE",
"460 192 LINE SMOOTH",
"692 192 OFFCURVE",
"796 288 OFFCURVE",
"796 458 CURVE SMOOTH",
"796 618 OFFCURVE",
"693 724 OFFCURVE",
"460 724 CURVE SMOOTH",
"46 724 LINE",
"46 0 LINE",
"366 0 LINE",
"366 192 LINE",
"382 192 LINE"
);
},
{
closed = 1;
nodes = (
"366 451 LINE",
"392 451 LINE SMOOTH",
"433 451 OFFCURVE",
"461 428 OFFCURVE",
"461 379 CURVE SMOOTH",
"461 336 OFFCURVE",
"439 307 OFFCURVE",
"392 307 CURVE SMOOTH",
"366 307 LINE"
);
}
);
};
layerId = "3B426CF6-0C00-48CC-B0F4-6E2C4CD07FAD";
paths = (
{
closed = 1;
nodes = (
"473 126 LINE SMOOTH",
"724 126 OFFCURVE",
"844 239 OFFCURVE",
"844 408 CURVE SMOOTH",
"844 600 OFFCURVE",
"689 690 OFFCURVE",
"459 690 CURVE SMOOTH",
"20 690 LINE",
"20 0 LINE",
"394 0 LINE",
"394 126 LINE"
);
},
{
closed = 1;
nodes = (
"394 444 LINE",
"401 444 LINE SMOOTH",
"426 444 OFFCURVE",
"453 435 OFFCURVE",
"453 380 CURVE SMOOTH",
"453 337 OFFCURVE",
"436 316 OFFCURVE",
"401 316 CURVE SMOOTH",
"394 316 LINE"
);
}
);
width = 854;
}
);
leftKerningGroup = L;
rightKerningGroup = P;
unicode = 0050;
},
{
glyphname = Thorn;
lastChange = "2020-05-27 03:12:14 +0000";
layers = (
{
layerId = "898421D1-ED89-4F9A-874F-2D62076340E9";
paths = (
{
closed = 1;
nodes = (
"344 690 LINE",
"20 690 LINE",
"20 0 LINE",
"344 0 LINE"
);
},
{
closed = 1;
nodes = (
"432 75 LINE SMOOTH",
"632 75 OFFCURVE",
"744 183 OFFCURVE",
"744 345 CURVE SMOOTH",
"744 518 OFFCURVE",
"619 615 OFFCURVE",
"432 615 CURVE SMOOTH",
"309 615 LINE",
"328 409 LINE",
"350 409 LINE SMOOTH",
"378 409 OFFCURVE",
"396 394 OFFCURVE",
"396 345 CURVE SMOOTH",
"396 296 OFFCURVE",
"378 281 OFFCURVE",
"350 281 CURVE SMOOTH",
"328 281 LINE",
"309 75 LINE"
);
}
);
width = 754;
},
{
layerId = "3B426CF6-0C00-48CC-B0F4-6E2C4CD07FAD";
paths = (
{
closed = 1;
nodes = (
"384 690 LINE",
"20 690 LINE",
"20 0 LINE",
"384 0 LINE"
);
},
{
closed = 1;
nodes = (
"483 75 LINE SMOOTH",
"708 75 OFFCURVE",
"834 183 OFFCURVE",
"834 345 CURVE SMOOTH",
"834 518 OFFCURVE",
"693 615 OFFCURVE",
"483 615 CURVE SMOOTH",
"345 615 LINE",
"366 409 LINE",
"391 409 LINE SMOOTH",
"416 409 OFFCURVE",
"443 400 OFFCURVE",
"443 345 CURVE SMOOTH",
"443 293 OFFCURVE",
"419 281 OFFCURVE",
"391 281 CURVE SMOOTH",
"366 281 LINE",
"345 75 LINE"
);
}
);
width = 844;
}
);
leftKerningGroup = L;
unicode = 00DE;
},
{
glyphname = Q;
lastChange = "2020-05-30 09:38:19 +0000";
layers = (
{
anchors = (
{
name = bottom;
position = "{392, 0}";
},
{
name = top;
position = "{392, 690}";
}
);
components = (
{
name = O;
}
);
layerId = "898421D1-ED89-4F9A-874F-2D62076340E9";
paths = (
{
closed = 1;
nodes = (
"514 -256 LINE",
"721 -62 LINE",
"441 80 LINE",
"363 -4 LINE"
);
}
);
width = 784;
},
{
anchors = (
{
name = bottom;
position = "{490, 0}";
},
{
name = top;
position = "{490, 690}";
}
);
components = (
{
name = O;
}
);
layerId = "3B426CF6-0C00-48CC-B0F4-6E2C4CD07FAD";
paths = (
{
closed = 1;
nodes = (
"643 -256 LINE",
"902 -62 LINE",
"552 80 LINE",
"454 -4 LINE"
);
}
);
width = 874;
}
);
leftKerningGroup = O;
leftMetricsKey = O;
rightKerningGroup = Q;
unicode = 0051;
},
{
glyphname = R;
lastChange = "2020-05-27 03:38:47 +0000";
layers = (
{
anchors = (
{
name = bottom;
position = "{376, 0}";
},
{
name = top;
position = "{376, 690}";
}
);
background = {
paths = (
{
closed = 1;
nodes = (
"414 126 LINE SMOOTH",
"612 126 OFFCURVE",
"744 228 OFFCURVE",
"744 408 CURVE SMOOTH",
"744 577 OFFCURVE",
"621 690 OFFCURVE",
"402 690 CURVE SMOOTH",
"20 690 LINE",
"20 0 LINE",
"344 0 LINE",
"344 126 LINE"
);
},
{
closed = 1;
nodes = (
"344 444 LINE",
"350 444 LINE SMOOTH",
"378 444 OFFCURVE",
"396 429 OFFCURVE",
"396 380 CURVE SMOOTH",
"396 342 OFFCURVE",
"385 316 OFFCURVE",
"350 316 CURVE SMOOTH",
"344 316 LINE"
);
}
);
};
layerId = "898421D1-ED89-4F9A-874F-2D62076340E9";
paths = (
{
closed = 1;
nodes = (
"397 0 LINE",
"746 0 LINE",
"643 270 LINE",
"385 183 LINE",
"414 183 LINE SMOOTH",
"638 183 OFFCURVE",
"744 284 OFFCURVE",
"744 436 CURVE SMOOTH",
"744 609 OFFCURVE",
"612 690 OFFCURVE",
"414 690 CURVE SMOOTH",
"20 690 LINE",
"20 0 LINE",
"344 0 LINE",
"344 155 LINE",
"359 155 LINE"
);
},
{
closed = 1;
nodes = (
"344 430 LINE",
"350 430 LINE SMOOTH",
"378 430 OFFCURVE",
"396 413 OFFCURVE",
"396 361 CURVE SMOOTH",
"396 320 OFFCURVE",
"385 293 OFFCURVE",
"350 293 CURVE SMOOTH",
"344 293 LINE"
);
}
);
width = 751;
},
{
anchors = (
{
name = bottom;
position = "{430, 0}";
},
{
name = top;
position = "{430, 690}";
}
);
background = {
paths = (
{
closed = 1;
nodes = (
"468 126 LINE SMOOTH",
"666 126 OFFCURVE",
"798 228 OFFCURVE",
"798 408 CURVE SMOOTH",
"798 577 OFFCURVE",
"675 690 OFFCURVE",
"456 690 CURVE SMOOTH",
"74 690 LINE",
"74 0 LINE",
"398 0 LINE",
"398 126 LINE"
);
},
{
closed = 1;
nodes = (
"398 444 LINE",
"404 444 LINE SMOOTH",
"432 444 OFFCURVE",
"450 429 OFFCURVE",
"450 380 CURVE SMOOTH",
"450 342 OFFCURVE",
"439 316 OFFCURVE",
"404 316 CURVE SMOOTH",
"398 316 LINE"
);
}
);
};
layerId = "3B426CF6-0C00-48CC-B0F4-6E2C4CD07FAD";
paths = (
{
closed = 1;
nodes = (
"454 0 LINE",
"846 0 LINE",
"730 270 LINE",
"440 183 LINE",
"473 183 LINE SMOOTH",
"724 183 OFFCURVE",
"844 284 OFFCURVE",
"844 436 CURVE SMOOTH",
"844 609 OFFCURVE",
"695 690 OFFCURVE",
"473 690 CURVE SMOOTH",
"20 690 LINE",
"20 0 LINE",
"394 0 LINE",
"394 155 LINE",
"411 155 LINE"
);
},
{
closed = 1;
nodes = (
"394 430 LINE",
"401 430 LINE SMOOTH",
"429 430 OFFCURVE",
"453 416 OFFCURVE",
"453 361 CURVE SMOOTH",
"453 315 OFFCURVE",
"436 293 OFFCURVE",
"401 293 CURVE SMOOTH",
"394 293 LINE"
);
}
);
width = 851;
}
);
leftKerningGroup = L;
rightKerningGroup = R;
unicode = 0052;
},
{
glyphname = S;
lastChange = "2020-05-27 03:12:14 +0000";
layers = (
{
anchors = (
{
name = bottom;
position = "{341, 0}";
},
{
name = top;
position = "{341, 690}";
}
);
layerId = "898421D1-ED89-4F9A-874F-2D62076340E9";
paths = (
{
closed = 1;
nodes = (
"10 368 OFFCURVE",
"73 301 OFFCURVE",
"257 291 CURVE SMOOTH",
"294 289 LINE SMOOTH",
"319 288 OFFCURVE",
"333 284 OFFCURVE",
"333 269 CURVE SMOOTH",
"333 253 OFFCURVE",
"318 251 OFFCURVE",
"272 252 CURVE SMOOTH",
"180 254 OFFCURVE",
"95 266 OFFCURVE",
"20 301 CURVE",
"20 45 LINE",
"81 10 OFFCURVE",
"196 -10 OFFCURVE",
"326 -10 CURVE SMOOTH",
"534 -10 OFFCURVE",
"672 68 OFFCURVE",
"672 206 CURVE SMOOTH",
"672 329 OFFCURVE",
"601 390 OFFCURVE",
"431 397 CURVE SMOOTH",
"382 399 LINE SMOOTH",
"359 400 OFFCURVE",
"348 403 OFFCURVE",
"348 417 CURVE SMOOTH",
"348 432 OFFCURVE",
"362 437 OFFCURVE",
"406 437 CURVE SMOOTH",
"489 437 OFFCURVE",
"566 428 OFFCURVE",
"633 398 CURVE",
"633 660 LINE",
"569 686 OFFCURVE",
"458 703 OFFCURVE",
"345 703 CURVE SMOOTH",
"144 703 OFFCURVE",
"10 624 OFFCURVE",
"10 484 CURVE SMOOTH"
);
}
);
width = 682;
},
{
anchors = (
{
name = bottom;
position = "{386, 0}";
},
{
name = top;
position = "{386, 690}";
}
);
layerId = "3B426CF6-0C00-48CC-B0F4-6E2C4CD07FAD";
paths = (
{
closed = 1;
nodes = (
"10 368 OFFCURVE",
"82 301 OFFCURVE",
"291 291 CURVE SMOOTH",
"333 289 LINE SMOOTH",
"364 288 OFFCURVE",
"377 283 OFFCURVE",
"377 269 CURVE SMOOTH",
"377 253 OFFCURVE",
"360 251 OFFCURVE",
"308 252 CURVE SMOOTH",
"203 254 OFFCURVE",
"107 266 OFFCURVE",
"21 301 CURVE",
"21 45 LINE",
"91 10 OFFCURVE",
"221 -10 OFFCURVE",
"369 -10 CURVE SMOOTH",
"605 -10 OFFCURVE",
"762 68 OFFCURVE",
"762 206 CURVE SMOOTH",
"762 340 OFFCURVE",
"667 390 OFFCURVE",
"488 397 CURVE SMOOTH",
"433 399 LINE SMOOTH",
"409 400 OFFCURVE",
"394 402 OFFCURVE",
"394 417 CURVE SMOOTH",
"394 432 OFFCURVE",
"410 437 OFFCURVE",
"460 437 CURVE SMOOTH",
"553 437 OFFCURVE",
"642 428 OFFCURVE",
"718 398 CURVE",
"718 660 LINE",
"645 686 OFFCURVE",
"518 703 OFFCURVE",
"391 703 CURVE SMOOTH",
"163 703 OFFCURVE",
"10 624 OFFCURVE",
"10 484 CURVE SMOOTH"
);
}
);
width = 772;
}
);
leftKerningGroup = S;
rightKerningGroup = S;
unicode = 0053;
},
{
glyphname = Germandbls;
lastChange = "2020-05-27 03:12:14 +0000";
layers = (
{
layerId = "898421D1-ED89-4F9A-874F-2D62076340E9";
paths = (
{
closed = 1;
nodes = (
"344 0 LINE",
"344 490 LINE",
"506 490 LINE",
"373 415 LINE",
"373 271 LINE",
"437 271 LINE SMOOTH",
"477 271 OFFCURVE",
"516 262 OFFCURVE",
"516 231 CURVE SMOOTH",
"516 205 OFFCURVE",
"489 190 OFFCURVE",
"444 190 CURVE SMOOTH",
"418 190 OFFCURVE",
"394 195 OFFCURVE",
"373 205 CURVE",
"373 6 LINE",
"410 -5 OFFCURVE",
"462 -13 OFFCURVE",
"523 -13 CURVE SMOOTH",
"721 -13 OFFCURVE",
"849 72 OFFCURVE",
"849 204 CURVE SMOOTH",
"849 297 OFFCURVE",
"785 386 OFFCURVE",
"624 375 CURVE",
"624 387 LINE",
"801 474 LINE",
"801 690 LINE",
"20 690 LINE",
"20 0 LINE"
);
}
);
width = 859;
},
{
layerId = "3B426CF6-0C00-48CC-B0F4-6E2C4CD07FAD";
paths = (
{
closed = 1;
nodes = (
"379 0 LINE",
"379 490 LINE",
"559 490 LINE",
"411 415 LINE",
"411 271 LINE",
"482 271 LINE SMOOTH",
"526 271 OFFCURVE",
"570 262 OFFCURVE",
"570 231 CURVE SMOOTH",
"570 205 OFFCURVE",
"539 190 OFFCURVE",
"490 190 CURVE SMOOTH",
"461 190 OFFCURVE",
"435 195 OFFCURVE",
"411 205 CURVE",
"411 6 LINE",
"452 -5 OFFCURVE",
"510 -13 OFFCURVE",
"578 -13 CURVE SMOOTH",
"797 -13 OFFCURVE",
"939 72 OFFCURVE",
"939 204 CURVE SMOOTH",
"939 297 OFFCURVE",
"868 386 OFFCURVE",
"690 375 CURVE",
"690 387 LINE",
"886 474 LINE",
"886 690 LINE",
"20 690 LINE",
"20 0 LINE"
);
}
);
width = 949;
}
);
leftKerningGroup = L;
rightKerningGroup = Germandbls;
unicode = 1E9E;
},
{
glyphname = T;
lastChange = "2020-05-30 15:40:24 +0000";
layers = (
{
anchors = (
{
name = bottom;
position = "{329, 0}";
},
{
name = center;
position = "{329, 347}";
},
{
name = top;
position = "{329, 690}";
}
);
layerId = "898421D1-ED89-4F9A-874F-2D62076340E9";
paths = (
{
closed = 1;
nodes = (
"167 437 LINE",
"167 0 LINE",
"491 0 LINE",
"491 437 LINE",
"643 437 LINE",
"643 689 LINE",
"15 689 LINE",
"15 437 LINE"
);
}
);
width = 658;
},
{
anchors = (
{
name = bottom;
position = "{374, 0}";
},
{
name = center;
position = "{374, 347}";
},
{
name = top;
position = "{374, 690}";
}
);
layerId = "3B426CF6-0C00-48CC-B0F4-6E2C4CD07FAD";
paths = (
{
closed = 1;
nodes = (
"187 438 LINE",
"187 0 LINE",
"561 0 LINE",
"561 438 LINE",
"733 438 LINE",
"733 690 LINE",
"15 690 LINE",
"15 438 LINE"
);
}
);
width = 748;
}
);
leftKerningGroup = T;
rightKerningGroup = T;
unicode = 0054;
},
{
glyphname = U;
lastChange = "2020-05-27 03:39:17 +0000";
layers = (
{
anchors = (
{
name = bottom;
position = "{364, 0}";
},
{
name = ogonek;
position = "{514, 10}";
},
{
name = top;
position = "{364, 690}";
},
{
name = topright;
position = "{707, 690}";
}
);
layerId = "898421D1-ED89-4F9A-874F-2D62076340E9";
paths = (
{
closed = 1;
nodes = (
"20 91 OFFCURVE",
"126 -10 OFFCURVE",
"364 -10 CURVE SMOOTH",
"588 -10 OFFCURVE",
"707 91 OFFCURVE",
"707 290 CURVE SMOOTH",
"707 690 LINE",
"383 690 LINE",
"383 301 LINE SMOOTH",
"383 283 OFFCURVE",
"378 271 OFFCURVE",
"364 271 CURVE SMOOTH",
"352 271 OFFCURVE",
"344 279 OFFCURVE",
"344 301 CURVE SMOOTH",
"344 690 LINE",
"20 690 LINE",
"20 290 LINE SMOOTH"
);
}
);
width = 727;
},
{
anchors = (
{
name = bottom;
position = "{417, 0}";
},
{
name = ogonek;
position = "{587, 10}";
},
{
name = top;
position = "{417, 690}";
},
{
name = topright;
position = "{805, 690}";
}
);
layerId = "3B426CF6-0C00-48CC-B0F4-6E2C4CD07FAD";
paths = (
{
closed = 1;
nodes = (
"20 120 OFFCURVE",
"108 -10 OFFCURVE",
"417 -10 CURVE SMOOTH",
"675 -10 OFFCURVE",
"813 91 OFFCURVE",
"813 290 CURVE SMOOTH",
"813 690 LINE",
"439 690 LINE",
"439 301 LINE SMOOTH",
"439 284 OFFCURVE",
"433 271 OFFCURVE",
"417 271 CURVE SMOOTH",
"404 271 OFFCURVE",
"394 279 OFFCURVE",
"394 301 CURVE SMOOTH",
"394 690 LINE",
"20 690 LINE",
"20 290 LINE SMOOTH"
);
}
);
width = 833;
}
);
leftKerningGroup = J;
rightKerningGroup = J;
unicode = 0055;
},
{
glyphname = V;
lastChange = "2020-05-30 09:44:19 +0000";
layers = (
{
anchors = (
{
name = bottom;
position = "{371, 0}";
},
{
name = top;
position = "{371, 690}";
}
);
layerId = "898421D1-ED89-4F9A-874F-2D62076340E9";
paths = (
{
closed = 1;
nodes = (
"145 0 LINE",
"596 0 LINE",
"741 690 LINE",
"396 690 LINE",
"382 316 LINE",
"359 316 LINE",
"345 690 LINE",
"0 690 LINE"
);
}
);
width = 741;
},
{
anchors = (
{
name = bottom;
position = "{426, 0}";
},
{
name = top;
position = "{426, 690}";
}
);
layerId = "3B426CF6-0C00-48CC-B0F4-6E2C4CD07FAD";
paths = (
{
closed = 1;
nodes = (
"163 0 LINE",
"688 0 LINE",
"851 690 LINE",
"454 690 LINE",
"438 316 LINE",
"413 316 LINE",
"397 690 LINE",
"0 690 LINE"
);
}
);
width = 851;
}
);
leftKerningGroup = V;
rightKerningGroup = V;
unicode = 0056;
},
{
glyphname = W;
lastChange = "2020-05-30 09:45:19 +0000";
layers = (
{
anchors = (
{
name = bottom;
position = "{536, 0}";
},
{
name = top;
position = "{536, 690}";
}
);
layerId = "898421D1-ED89-4F9A-874F-2D62076340E9";
paths = (
{
closed = 1;
nodes = (
"143 0 LINE",
"511 0 LINE",
"527 238 LINE",
"546 238 LINE",
"561 0 LINE",
"939 0 LINE",
"1077 690 LINE",
"711 690 LINE",
"711 383 LINE",
"693 383 LINE",
"654 690 LINE",
"417 690 LINE",
"379 383 LINE",
"361 383 LINE",
"361 690 LINE",
"-5 690 LINE"
);
}
);
width = 1072;
},
{
anchors = (
{
name = bottom;
position = "{591, 0}";
},
{
name = top;
position = "{591, 690}";
}
);
layerId = "3B426CF6-0C00-48CC-B0F4-6E2C4CD07FAD";
paths = (
{
closed = 1;
nodes = (
"155 0 LINE",
"564 0 LINE",
"581 238 LINE",
"602 238 LINE",
"618 0 LINE",
"1038 0 LINE",
"1187 690 LINE",
"781 690 LINE",
"781 383 LINE",
"761 383 LINE",
"719 690 LINE",
"462 690 LINE",
"421 383 LINE",
"401 383 LINE",
"401 690 LINE",
"-5 690 LINE"
);
}
);
width = 1182;
}
);
leftKerningGroup = W;
rightKerningGroup = W;
unicode = 0057;
},
{
glyphname = X;
lastChange = "2020-05-27 03:39:56 +0000";
layers = (
{
anchors = (
{
name = bottom;
position = "{371, 0}";
},
{
name = top;
position = "{371, 690}";
}
);
layerId = "898421D1-ED89-4F9A-874F-2D62076340E9";
paths = (
{
closed = 1;
nodes = (
"94 335 LINE",
"648 355 LINE",
"731 690 LINE",
"396 690 LINE",
"381 507 LINE",
"361 507 LINE",
"345 690 LINE",
"10 690 LINE"
);
},
{
closed = 1;
nodes = (
"345 0 LINE",
"361 174 LINE",
"381 174 LINE",
"396 0 LINE",
"731 0 LINE",
"648 355 LINE",
"94 335 LINE",
"10 0 LINE"
);
}
);
width = 741;
},
{
anchors = (
{
name = bottom;
position = "{426, 0}";
},
{
name = top;
position = "{426, 690}";
}
);
layerId = "3B426CF6-0C00-48CC-B0F4-6E2C4CD07FAD";
paths = (
{
closed = 1;
nodes = (
"104 335 LINE",
"748 355 LINE",
"841 690 LINE",
"454 690 LINE",
"437 507 LINE",
"415 507 LINE",
"397 690 LINE",
"10 690 LINE"
);
},
{
closed = 1;
nodes = (
"397 0 LINE",
"415 174 LINE",
"437 174 LINE",
"454 0 LINE",
"841 0 LINE",
"748 355 LINE",
"104 335 LINE",
"10 0 LINE"
);
}
);
width = 851;
}
);
leftKerningGroup = X;
rightKerningGroup = X;
unicode = 0058;
},
{
glyphname = Y;
lastChange = "2020-05-30 15:42:07 +0000";
layers = (
{
anchors = (
{
name = bottom;
position = "{367, 0}";
},
{
name = top;
position = "{367, 690}";
},
{
name = topleft;
position = "{20, 690}";
}
);
layerId = "898421D1-ED89-4F9A-874F-2D62076340E9";
paths = (
{
closed = 1;
nodes = (
"210 227 LINE",
"534 227 LINE",
"733 690 LINE",
"397 690 LINE",
"381 497 LINE",
"361 497 LINE",
"346 690 LINE",
"0 690 LINE"
);
},
{
closed = 1;
nodes = (
"210 227 LINE",
"210 0 LINE",
"534 0 LINE",
"534 227 LINE"
);
}
);
width = 733;
},
{
anchors = (
{
name = bottom;
position = "{417, 0}";
},
{
name = top;
position = "{417, 690}";
},
{
name = topleft;
position = "{27, 690}";
}
);
layerId = "3B426CF6-0C00-48CC-B0F4-6E2C4CD07FAD";
paths = (
{
closed = 1;
nodes = (
"236 227 LINE",
"610 227 LINE",
"833 690 LINE",
"451 690 LINE",
"433 497 LINE",
"410 497 LINE",
"393 690 LINE",
"0 690 LINE"
);
},
{
closed = 1;
nodes = (
"236 227 LINE",
"236 0 LINE",
"610 0 LINE",
"610 227 LINE"
);
}
);
width = 833;
}
);
leftKerningGroup = Y;
rightKerningGroup = Y;
unicode = 0059;
},
{
glyphname = Z;
lastChange = "2020-05-27 03:12:14 +0000";
layers = (
{
anchors = (
{
name = bottom;
position = "{332, 0}";
},
{
name = center;
position = "{332, 345}";
},
{
name = top;
position = "{332, 690}";
}
);
layerId = "898421D1-ED89-4F9A-874F-2D62076340E9";
paths = (
{
closed = 1;
nodes = (
"644 -1 LINE",
"644 253 LINE",
"542 253 OFFCURVE",
"438 234 OFFCURVE",
"349 187 CURVE",
"340 200 LINE",
"459 277 OFFCURVE",
"582 381 OFFCURVE",
"644 464 CURVE",
"644 690 LINE",
"20 690 LINE",
"20 436 LINE",
"144 436 OFFCURVE",
"236 453 OFFCURVE",
"314 504 CURVE",
"323 491 LINE",
"202 413 OFFCURVE",
"82 306 OFFCURVE",
"20 226 CURVE",
"20 0 LINE"
);
}
);
width = 664;
},
{
anchors = (
{
name = bottom;
position = "{377, 0}";
},
{
name = center;
position = "{377, 345}";
},
{
name = top;
position = "{377, 690}";
}
);
layerId = "3B426CF6-0C00-48CC-B0F4-6E2C4CD07FAD";
paths = (
{
closed = 1;
nodes = (
"734 -1 LINE",
"734 253 LINE",
"617 253 OFFCURVE",
"498 234 OFFCURVE",
"396 187 CURVE",
"386 200 LINE",
"522 277 OFFCURVE",
"662 381 OFFCURVE",
"734 464 CURVE",
"734 690 LINE",
"20 690 LINE",
"20 436 LINE",
"162 436 OFFCURVE",
"267 453 OFFCURVE",
"356 504 CURVE",
"367 491 LINE",
"228 413 OFFCURVE",
"91 305 OFFCURVE",
"20 226 CURVE",
"20 0 LINE"
);
}
);
width = 754;
}
);
unicode = 005A;
},
{
glyphname = a;
lastChange = "2020-06-11 12:07:26 +0000";
layers = (
{
anchors = (
{
name = bottom;
position = "{364, 0}";
},
{
name = ogonek;
position = "{636, 0}";
},
{
name = top;
position = "{364, 565}";
}
);
layerId = "898421D1-ED89-4F9A-874F-2D62076340E9";
paths = (
{
closed = 1;
nodes = (
"10 44 OFFCURVE",
"72 -13 OFFCURVE",
"185 -13 CURVE SMOOTH",
"304 -13 OFFCURVE",
"385 48 OFFCURVE",
"386 156 CURVE",
"396 156 LINE",
"414 0 LINE",
"715 0 LINE",
"715 255 LINE SMOOTH",
"715 488 OFFCURVE",
"558 578 OFFCURVE",
"321 578 CURVE SMOOTH",
"196 578 OFFCURVE",
"81 548 OFFCURVE",
"18 504 CURVE",
"18 258 LINE",
"52 297 OFFCURVE",
"132 323 OFFCURVE",
"218 323 CURVE SMOOTH",
"317 323 OFFCURVE",
"379 284 OFFCURVE",
"390 214 CURVE",
"381 214 LINE",
"353 260 OFFCURVE",
"290 291 OFFCURVE",
"210 291 CURVE SMOOTH",
"90 291 OFFCURVE",
"10 233 OFFCURVE",
"10 129 CURVE SMOOTH"
);
},
{
closed = 1;
nodes = (
"291 199 OFFCURVE",
"307 215 OFFCURVE",
"331 215 CURVE SMOOTH",
"354 215 OFFCURVE",
"370 199 OFFCURVE",
"370 175 CURVE SMOOTH",
"370 150 OFFCURVE",
"354 134 OFFCURVE",
"331 134 CURVE SMOOTH",
"307 134 OFFCURVE",
"291 150 OFFCURVE",
"291 175 CURVE SMOOTH"
);
}
);
width = 735;
},
{
anchors = (
{
name = bottom;
position = "{406, 0}";
},
{
name = ogonek;
position = "{752, 0}";
},
{
name = top;
position = "{406, 565}";
}
);
layerId = "3B426CF6-0C00-48CC-B0F4-6E2C4CD07FAD";
paths = (
{
closed = 1;
nodes = (
"10 44 OFFCURVE",
"81 -13 OFFCURVE",
"206 -13 CURVE SMOOTH",
"339 -13 OFFCURVE",
"429 48 OFFCURVE",
"431 156 CURVE",
"442 156 LINE",
"461 0 LINE",
"800 0 LINE",
"800 233 LINE SMOOTH",
"800 400 OFFCURVE",
"735 578 OFFCURVE",
"352 578 CURVE SMOOTH",
"218 578 OFFCURVE",
"85 544 OFFCURVE",
"19 493 CURVE",
"19 257 LINE",
"56 297 OFFCURVE",
"149 323 OFFCURVE",
"243 323 CURVE SMOOTH",
"350 323 OFFCURVE",
"421 286 OFFCURVE",
"435 214 CURVE",
"424 214 LINE",
"393 260 OFFCURVE",
"322 291 OFFCURVE",
"234 291 CURVE SMOOTH",
"100 291 OFFCURVE",
"10 233 OFFCURVE",
"10 129 CURVE SMOOTH"
);
},
{
closed = 1;
nodes = (
"324 199 OFFCURVE",
"343 215 OFFCURVE",
"368 215 CURVE SMOOTH",
"394 215 OFFCURVE",
"412 199 OFFCURVE",
"412 175 CURVE SMOOTH",
"412 150 OFFCURVE",
"394 134 OFFCURVE",
"368 134 CURVE SMOOTH",
"343 134 OFFCURVE",
"324 150 OFFCURVE",
"324 175 CURVE SMOOTH"
);
}
);
width = 820;
}
);
leftKerningGroup = a;
rightKerningGroup = a;
unicode = 0061;
},
{
glyphname = ae;
lastChange = "2020-05-27 03:12:14 +0000";
layers = (
{
layerId = "898421D1-ED89-4F9A-874F-2D62076340E9";
paths = (
{
closed = 1;
nodes = (
"5 44 OFFCURVE",
"69 -13 OFFCURVE",
"184 -13 CURVE SMOOTH",
"306 -13 OFFCURVE",
"389 48 OFFCURVE",
"390 156 CURVE",
"400 156 LINE",
"453 46 OFFCURVE",
"583 -13 OFFCURVE",
"782 -13 CURVE SMOOTH",
"871 -13 OFFCURVE",
"962 -1 OFFCURVE",
"1042 20 CURVE",
"1042 256 LINE",
"982 236 OFFCURVE",
"913 223 OFFCURVE",
"833 223 CURVE SMOOTH",
"744 223 OFFCURVE",
"697 239 OFFCURVE",
"684 271 CURVE",
"1041 271 LINE",
"1042 280 OFFCURVE",
"1043 295 OFFCURVE",
"1043 309 CURVE SMOOTH",
"1043 474 OFFCURVE",
"916 578 OFFCURVE",
"713 578 CURVE SMOOTH",
"635 578 OFFCURVE",
"568 563 OFFCURVE",
"529 534 CURVE",
"478 561 OFFCURVE",
"400 578 OFFCURVE",
"309 578 CURVE SMOOTH",
"214 578 OFFCURVE",
"124 565 OFFCURVE",
"50 530 CURVE",
"50 287 LINE",
"90 311 OFFCURVE",
"161 323 OFFCURVE",
"218 323 CURVE SMOOTH",
"319 323 OFFCURVE",
"382 284 OFFCURVE",
"394 214 CURVE",
"384 214 LINE",
"356 260 OFFCURVE",
"291 291 OFFCURVE",
"210 291 CURVE SMOOTH",
"87 291 OFFCURVE",
"5 233 OFFCURVE",
"5 129 CURVE SMOOTH"
);
},
{
closed = 1;
nodes = (
"293 199 OFFCURVE",
"309 215 OFFCURVE",
"333 215 CURVE SMOOTH",
"357 215 OFFCURVE",
"373 199 OFFCURVE",
"373 175 CURVE SMOOTH",
"373 150 OFFCURVE",
"357 134 OFFCURVE",
"333 134 CURVE SMOOTH",
"309 134 OFFCURVE",
"293 150 OFFCURVE",
"293 175 CURVE SMOOTH"
);
},
{
closed = 1;
nodes = (
"680 323 OFFCURVE",
"695 342 OFFCURVE",
"723 342 CURVE SMOOTH",
"746 342 OFFCURVE",
"765 328 OFFCURVE",
"767 297 CURVE",
"679 297 LINE"
);
}
);
width = 1054;
},
{
layerId = "3B426CF6-0C00-48CC-B0F4-6E2C4CD07FAD";
paths = (
{
closed = 1;
nodes = (
"5 44 OFFCURVE",
"75 -13 OFFCURVE",
"200 -13 CURVE SMOOTH",
"332 -13 OFFCURVE",
"422 48 OFFCURVE",
"423 156 CURVE",
"434 156 LINE",
"492 46 OFFCURVE",
"633 -13 OFFCURVE",
"849 -13 CURVE SMOOTH",
"946 -13 OFFCURVE",
"1045 -1 OFFCURVE",
"1132 20 CURVE",
"1132 256 LINE",
"1067 236 OFFCURVE",
"991 223 OFFCURVE",
"905 223 CURVE SMOOTH",
"808 223 OFFCURVE",
"757 239 OFFCURVE",
"743 271 CURVE",
"1131 271 LINE",
"1132 280 OFFCURVE",
"1133 297 OFFCURVE",
"1133 309 CURVE SMOOTH",
"1133 474 OFFCURVE",
"994 578 OFFCURVE",
"774 578 CURVE SMOOTH",
"690 578 OFFCURVE",
"617 563 OFFCURVE",
"574 534 CURVE",
"519 561 OFFCURVE",
"434 578 OFFCURVE",
"335 578 CURVE SMOOTH",
"233 578 OFFCURVE",
"134 565 OFFCURVE",
"54 530 CURVE",
"54 287 LINE",
"97 311 OFFCURVE",
"176 323 OFFCURVE",
"236 323 CURVE SMOOTH",
"345 323 OFFCURVE",
"415 284 OFFCURVE",
"428 214 CURVE",
"417 214 LINE",
"386 260 OFFCURVE",
"316 291 OFFCURVE",
"228 291 CURVE SMOOTH",
"95 291 OFFCURVE",
"5 233 OFFCURVE",
"5 129 CURVE SMOOTH"
);
},
{
closed = 1;
nodes = (
"318 199 OFFCURVE",
"336 215 OFFCURVE",
"361 215 CURVE SMOOTH",
"387 215 OFFCURVE",
"405 199 OFFCURVE",
"405 175 CURVE SMOOTH",
"405 150 OFFCURVE",
"387 134 OFFCURVE",
"361 134 CURVE SMOOTH",
"336 134 OFFCURVE",
"318 150 OFFCURVE",
"318 175 CURVE SMOOTH"
);
},
{
closed = 1;
nodes = (
"738 320 OFFCURVE",
"753 342 OFFCURVE",
"785 342 CURVE SMOOTH",
"810 342 OFFCURVE",
"831 328 OFFCURVE",
"833 297 CURVE",
"737 297 LINE"
);
}
);
width = 1144;
}
);
leftKerningGroup = a;
leftMetricsKey = s;
rightKerningGroup = e;
rightMetricsKey = e;
unicode = 00E6;
},
{
glyphname = b;
lastChange = "2020-05-27 03:20:31 +0000";
layers = (
{
anchors = (
{
name = bottom;
position = "{409, 0}";
},
{
name = top;
position = "{409, 724}";
}
);
layerId = "898421D1-ED89-4F9A-874F-2D62076340E9";
paths = (
{
closed = 1;
nodes = (
"808 470 OFFCURVE",
"713 578 OFFCURVE",
"571 578 CURVE SMOOTH",
"434 578 OFFCURVE",
"362 479 OFFCURVE",
"351 332 CURVE",
"340 332 LINE",
"340 724 LINE",
"20 724 LINE",
"20 0 LINE",
"320 0 LINE",
"340 224 LINE",
"351 224 LINE",
"363 69 OFFCURVE",
"448 -13 OFFCURVE",
"572 -13 CURVE SMOOTH",
"723 -13 OFFCURVE",
"808 104 OFFCURVE",
"808 280 CURVE SMOOTH"
);
},
{
closed = 1;
nodes = (
"458 248 OFFCURVE",
"440 231 OFFCURVE",
"414 231 CURVE SMOOTH",
"386 231 OFFCURVE",
"370 250 OFFCURVE",
"370 278 CURVE SMOOTH",
"370 308 OFFCURVE",
"388 325 OFFCURVE",
"414 325 CURVE SMOOTH",
"442 325 OFFCURVE",
"458 306 OFFCURVE",
"458 278 CURVE SMOOTH"
);
}
);
width = 818;
},
{
anchors = (
{
name = bottom;
position = "{470, 0}";
},
{
name = top;
position = "{470, 724}";
}
);
layerId = "3B426CF6-0C00-48CC-B0F4-6E2C4CD07FAD";
paths = (
{
closed = 1;
nodes = (
"915 470 OFFCURVE",
"809 578 OFFCURVE",
"651 578 CURVE SMOOTH",
"499 578 OFFCURVE",
"418 479 OFFCURVE",
"406 332 CURVE",
"394 332 LINE",
"394 724 LINE",
"20 724 LINE",
"20 0 LINE",
"371 0 LINE",
"394 224 LINE",
"406 224 LINE",
"419 69 OFFCURVE",
"514 -13 OFFCURVE",
"652 -13 CURVE SMOOTH",
"820 -13 OFFCURVE",
"915 104 OFFCURVE",
"915 280 CURVE SMOOTH"
);
},
{
closed = 1;
nodes = (
"525 248 OFFCURVE",
"505 231 OFFCURVE",
"476 231 CURVE SMOOTH",
"445 231 OFFCURVE",
"427 250 OFFCURVE",
"427 278 CURVE SMOOTH",
"427 308 OFFCURVE",
"447 325 OFFCURVE",
"476 325 CURVE SMOOTH",
"507 325 OFFCURVE",
"525 306 OFFCURVE",
"525 278 CURVE SMOOTH"
);
}
);
width = 925;
}
);
leftKerningGroup = l;
rightKerningGroup = b;
unicode = 0062;
},
{
glyphname = c;
lastChange = "2020-06-11 12:16:34 +0000";
layers = (
{
anchors = (
{
name = bottom;
position = "{384, 0}";
},
{
name = top;
position = "{384, 565}";
}
);
background = {
paths = (
{
closed = 1;
nodes = (
"589 -13 OFFCURVE",
"716 105 OFFCURVE",
"716 282 CURVE SMOOTH",
"716 470 OFFCURVE",
"574 576 OFFCURVE",
"362 576 CURVE SMOOTH",
"135 576 OFFCURVE",
"8 458 OFFCURVE",
"8 282 CURVE SMOOTH",
"8 93 OFFCURVE",
"150 -13 OFFCURVE",
"362 -13 CURVE SMOOTH"
);
},
{
closed = 1;
nodes = (
"318 310 OFFCURVE",
"334 329 OFFCURVE",
"362 329 CURVE SMOOTH",
"388 329 OFFCURVE",
"406 312 OFFCURVE",
"406 282 CURVE SMOOTH",
"406 254 OFFCURVE",
"390 235 OFFCURVE",
"362 235 CURVE SMOOTH",
"336 235 OFFCURVE",
"318 252 OFFCURVE",
"318 282 CURVE SMOOTH"
);
}
);
};
layerId = "898421D1-ED89-4F9A-874F-2D62076340E9";
paths = (
{
closed = 1;
nodes = (
"10 92 OFFCURVE",
"168 -13 OFFCURVE",
"413 -13 CURVE SMOOTH",
"525 -13 OFFCURVE",
"639 9 OFFCURVE",
"698 41 CURVE",
"698 261 LINE",
"643 243 OFFCURVE",
"573 231 OFFCURVE",
"499 231 CURVE SMOOTH",
"412 231 OFFCURVE",
"360 247 OFFCURVE",
"360 282 CURVE SMOOTH",
"360 312 OFFCURVE",
"396 330 OFFCURVE",
"474 330 CURVE SMOOTH",
"547 330 OFFCURVE",
"621 316 OFFCURVE",
"666 292 CURVE",
"687 525 LINE",
"629 555 OFFCURVE",
"515 575 OFFCURVE",
"414 575 CURVE SMOOTH",
"170 575 OFFCURVE",
"10 459 OFFCURVE",
"10 275 CURVE SMOOTH"
);
}
);
width = 708;
},
{
anchors = (
{
name = bottom;
position = "{410, 0}";
},
{
name = top;
position = "{410, 565}";
}
);
background = {
paths = (
{
closed = 1;
nodes = (
"613 -13 OFFCURVE",
"740 105 OFFCURVE",
"740 282 CURVE SMOOTH",
"740 470 OFFCURVE",
"598 576 OFFCURVE",
"386 576 CURVE SMOOTH",
"159 576 OFFCURVE",
"32 458 OFFCURVE",
"32 282 CURVE SMOOTH",
"32 93 OFFCURVE",
"174 -13 OFFCURVE",
"386 -13 CURVE SMOOTH"
);
},
{
closed = 1;
nodes = (
"342 310 OFFCURVE",
"358 329 OFFCURVE",
"386 329 CURVE SMOOTH",
"412 329 OFFCURVE",
"430 312 OFFCURVE",
"430 282 CURVE SMOOTH",
"430 254 OFFCURVE",
"414 235 OFFCURVE",
"386 235 CURVE SMOOTH",
"360 235 OFFCURVE",
"342 252 OFFCURVE",
"342 282 CURVE SMOOTH"
);
}
);
};
layerId = "3B426CF6-0C00-48CC-B0F4-6E2C4CD07FAD";
paths = (
{
closed = 1;
nodes = (
"10 91 OFFCURVE",
"174 -13 OFFCURVE",
"434 -13 CURVE SMOOTH",
"560 -13 OFFCURVE",
"668 4 OFFCURVE",
"749 41 CURVE",
"749 261 LINE",
"686 243 OFFCURVE",
"605 231 OFFCURVE",
"530 231 CURVE SMOOTH",
"443 231 OFFCURVE",
"400 249 OFFCURVE",
"400 282 CURVE SMOOTH",
"400 314 OFFCURVE",
"443 330 OFFCURVE",
"529 330 CURVE SMOOTH",
"596 330 OFFCURVE",
"668 315 OFFCURVE",
"714 292 CURVE",
"737 516 LINE",
"673 553 OFFCURVE",
"551 578 OFFCURVE",
"434 578 CURVE SMOOTH",
"185 578 OFFCURVE",
"10 472 OFFCURVE",
"10 283 CURVE SMOOTH"
);
}
);
width = 759;
}
);
leftKerningGroup = c;
rightKerningGroup = c;
unicode = 0063;
},
{
glyphname = d;
lastChange = "2020-05-27 03:20:40 +0000";
layers = (
{
anchors = (
{
name = bottom;
position = "{409, 0}";
},
{
name = center;
position = "{578, 623}";
},
{
name = top;
position = "{638, 724}";
},
{
name = topright;
position = "{798, 565}";
}
);
layerId = "898421D1-ED89-4F9A-874F-2D62076340E9";
paths = (
{
closed = 1;
nodes = (
"10 104 OFFCURVE",
"95 -13 OFFCURVE",
"246 -13 CURVE SMOOTH",
"370 -13 OFFCURVE",
"455 69 OFFCURVE",
"467 224 CURVE",
"478 224 LINE",
"498 0 LINE",
"798 0 LINE",
"798 724 LINE",
"478 724 LINE",
"478 332 LINE",
"467 332 LINE",
"456 480 OFFCURVE",
"384 578 OFFCURVE",
"247 578 CURVE SMOOTH",
"105 578 OFFCURVE",
"10 470 OFFCURVE",
"10 280 CURVE SMOOTH"
);
},
{
closed = 1;
nodes = (
"360 306 OFFCURVE",
"376 325 OFFCURVE",
"404 325 CURVE SMOOTH",
"430 325 OFFCURVE",
"448 308 OFFCURVE",
"448 278 CURVE SMOOTH",
"448 250 OFFCURVE",
"432 231 OFFCURVE",
"404 231 CURVE SMOOTH",
"378 231 OFFCURVE",
"360 248 OFFCURVE",
"360 278 CURVE SMOOTH"
);
}
);
width = 818;
},
{
anchors = (
{
name = bottom;
position = "{435, 0}";
},
{
name = center;
position = "{662, 623}";
},
{
name = top;
position = "{710, 724}";
},
{
name = topright;
position = "{888, 565}";
}
);
layerId = "3B426CF6-0C00-48CC-B0F4-6E2C4CD07FAD";
paths = (
{
closed = 1;
nodes = (
"10 104 OFFCURVE",
"105 -13 OFFCURVE",
"273 -13 CURVE SMOOTH",
"410 -13 OFFCURVE",
"506 69 OFFCURVE",
"519 224 CURVE",
"531 224 LINE",
"554 0 LINE",
"905 0 LINE",
"905 724 LINE",
"531 724 LINE",
"531 332 LINE",
"519 332 LINE",
"507 480 OFFCURVE",
"426 578 OFFCURVE",
"274 578 CURVE SMOOTH",
"116 578 OFFCURVE",
"10 470 OFFCURVE",
"10 280 CURVE SMOOTH"
);
},
{
closed = 1;
nodes = (
"400 306 OFFCURVE",
"418 325 OFFCURVE",
"449 325 CURVE SMOOTH",
"478 325 OFFCURVE",
"498 308 OFFCURVE",
"498 278 CURVE SMOOTH",
"498 250 OFFCURVE",
"480 231 OFFCURVE",
"449 231 CURVE SMOOTH",
"420 231 OFFCURVE",
"400 248 OFFCURVE",
"400 278 CURVE SMOOTH"
);
}
);
width = 925;
}
);
leftKerningGroup = d;
unicode = 0064;
},
{
glyphname = eth;
lastChange = "2020-05-27 03:12:14 +0000";
layers = (
{
layerId = "898421D1-ED89-4F9A-874F-2D62076340E9";
paths = (
{
closed = 1;
nodes = (
"605 633 OFFCURVE",
"408 724 CURVE",
"69 724 LINE",
"203 622 OFFCURVE",
"334 507 OFFCURVE",
"395 416 CURVE",
"391 412 LINE",
"341 456 OFFCURVE",
"294 470 OFFCURVE",
"242 470 CURVE SMOOTH",
"103 470 OFFCURVE",
"10 389 OFFCURVE",
"10 246 CURVE SMOOTH",
"10 91 OFFCURVE",
"147 -12 OFFCURVE",
"352 -12 CURVE SMOOTH",
"583 -12 OFFCURVE",
"737 108 OFFCURVE",
"737 309 CURVE SMOOTH",
"737 467 OFFCURVE"
);
},
{
closed = 1;
nodes = (
"315 322 OFFCURVE",
"334 340 OFFCURVE",
"364 340 CURVE SMOOTH",
"394 340 OFFCURVE",
"413 322 OFFCURVE",
"413 295 CURVE SMOOTH",
"413 267 OFFCURVE",
"394 249 OFFCURVE",
"364 249 CURVE SMOOTH",
"334 249 OFFCURVE",
"315 267 OFFCURVE",
"315 295 CURVE SMOOTH"
);
},
{
closed = 1;
nodes = (
"256 586 LINE",
"133 541 LINE",
"151 492 LINE",
"298 545 LINE"
);
},
{
closed = 1;
nodes = (
"536 633 LINE",
"669 681 LINE",
"651 730 LINE",
"484 669 LINE"
);
}
);
width = 747;
},
{
layerId = "3B426CF6-0C00-48CC-B0F4-6E2C4CD07FAD";
paths = (
{
closed = 1;
nodes = (
"679 633 OFFCURVE",
"457 724 CURVE",
"76 724 LINE",
"227 622 OFFCURVE",
"375 507 OFFCURVE",
"443 416 CURVE",
"438 412 LINE",
"382 456 OFFCURVE",
"329 470 OFFCURVE",
"271 470 CURVE SMOOTH",
"115 470 OFFCURVE",
"10 389 OFFCURVE",
"10 246 CURVE SMOOTH",
"10 91 OFFCURVE",
"164 -12 OFFCURVE",
"394 -12 CURVE SMOOTH",
"653 -12 OFFCURVE",
"827 108 OFFCURVE",
"827 309 CURVE SMOOTH",
"827 466 OFFCURVE"
);
},
{
closed = 1;
nodes = (
"353 322 OFFCURVE",
"375 340 OFFCURVE",
"408 340 CURVE SMOOTH",
"441 340 OFFCURVE",
"463 322 OFFCURVE",
"463 295 CURVE SMOOTH",
"463 267 OFFCURVE",
"441 249 OFFCURVE",
"408 249 CURVE SMOOTH",
"375 249 OFFCURVE",
"353 267 OFFCURVE",
"353 295 CURVE SMOOTH"
);
},
{
closed = 1;
nodes = (
"286 586 LINE",
"148 541 LINE",
"168 492 LINE",
"334 545 LINE"
);
},
{
closed = 1;
nodes = (
"601 633 LINE",
"751 681 LINE",
"730 730 LINE",
"543 669 LINE"
);
}
);
width = 837;
}
);
leftKerningGroup = d;
rightKerningGroup = b;
rightMetricsKey = b;
unicode = 00F0;
},
{
glyphname = e;
lastChange = "2020-06-11 12:15:05 +0000";
layers = (
{
anchors = (
{
name = bottom;
position = "{346, 0}";
},
{
name = ogonek;
position = "{512, 0}";
},
{
name = top;
position = "{346, 565}";
}
);
background = {
paths = (
{
closed = 1;
nodes = (
"587 -13 OFFCURVE",
"714 105 OFFCURVE",
"714 282 CURVE SMOOTH",
"714 470 OFFCURVE",
"572 576 OFFCURVE",
"360 576 CURVE SMOOTH",
"133 576 OFFCURVE",
"6 458 OFFCURVE",
"6 282 CURVE SMOOTH",
"6 93 OFFCURVE",
"148 -13 OFFCURVE",
"360 -13 CURVE SMOOTH"
);
},
{
closed = 1;
nodes = (
"316 310 OFFCURVE",
"332 329 OFFCURVE",
"360 329 CURVE SMOOTH",
"386 329 OFFCURVE",
"404 312 OFFCURVE",
"404 282 CURVE SMOOTH",
"404 254 OFFCURVE",
"388 235 OFFCURVE",
"360 235 CURVE SMOOTH",
"334 235 OFFCURVE",
"316 252 OFFCURVE",
"316 282 CURVE SMOOTH"
);
}
);
};
layerId = "898421D1-ED89-4F9A-874F-2D62076340E9";
paths = (
{
closed = 1;
nodes = (
"308 271 LINE",
"418 271 LINE",
"418 297 LINE",
"308 297 LINE"
);
},
{
closed = 1;
nodes = (
"679 256 LINE",
"619 236 OFFCURVE",
"550 223 OFFCURVE",
"470 223 CURVE SMOOTH",
"362 223 OFFCURVE",
"316 247 OFFCURVE",
"316 294 CURVE SMOOTH",
"316 321 OFFCURVE",
"331 342 OFFCURVE",
"360 342 CURVE SMOOTH",
"384 342 OFFCURVE",
"404 326 OFFCURVE",
"404 291 CURVE SMOOTH",
"404 281 OFFCURVE",
"404 274 OFFCURVE",
"403 271 CURVE",
"678 271 LINE",
"679 280 OFFCURVE",
"680 295 OFFCURVE",
"680 309 CURVE SMOOTH",
"680 474 OFFCURVE",
"553 578 OFFCURVE",
"350 578 CURVE SMOOTH",
"131 578 OFFCURVE",
"10 458 OFFCURVE",
"10 283 CURVE SMOOTH",
"10 92 OFFCURVE",
"154 -13 OFFCURVE",
"419 -13 CURVE SMOOTH",
"513 -13 OFFCURVE",
"617 8 OFFCURVE",
"679 40 CURVE"
);
}
);
width = 691;
},
{
anchors = (
{
name = bottom;
position = "{391, 0}";
},
{
name = ogonek;
position = "{629, 0}";
},
{
name = top;
position = "{391, 565}";
}
);
background = {
paths = (
{
closed = 1;
nodes = (
"632 -13 OFFCURVE",
"759 105 OFFCURVE",
"759 282 CURVE SMOOTH",
"759 470 OFFCURVE",
"617 576 OFFCURVE",
"405 576 CURVE SMOOTH",
"178 576 OFFCURVE",
"51 458 OFFCURVE",
"51 282 CURVE SMOOTH",
"51 93 OFFCURVE",
"193 -13 OFFCURVE",
"405 -13 CURVE SMOOTH"
);
},
{
closed = 1;
nodes = (
"361 310 OFFCURVE",
"377 329 OFFCURVE",
"405 329 CURVE SMOOTH",
"431 329 OFFCURVE",
"449 312 OFFCURVE",
"449 282 CURVE SMOOTH",
"449 254 OFFCURVE",
"433 235 OFFCURVE",
"405 235 CURVE SMOOTH",
"379 235 OFFCURVE",
"361 252 OFFCURVE",
"361 282 CURVE SMOOTH"
);
}
);
};
layerId = "3B426CF6-0C00-48CC-B0F4-6E2C4CD07FAD";
paths = (
{
closed = 1;
nodes = (
"348 271 LINE",
"473 271 LINE",
"473 297 LINE",
"348 297 LINE"
);
},
{
closed = 1;
nodes = (
"769 256 LINE",
"701 236 OFFCURVE",
"622 223 OFFCURVE",
"532 223 CURVE SMOOTH",
"410 223 OFFCURVE",
"357 247 OFFCURVE",
"357 294 CURVE SMOOTH",
"357 321 OFFCURVE",
"375 342 OFFCURVE",
"407 342 CURVE SMOOTH",
"434 342 OFFCURVE",
"457 326 OFFCURVE",
"457 291 CURVE SMOOTH",
"457 281 OFFCURVE",
"457 274 OFFCURVE",
"456 271 CURVE",
"768 271 LINE",
"769 281 OFFCURVE",
"770 297 OFFCURVE",
"770 309 CURVE SMOOTH",
"770 474 OFFCURVE",
"625 578 OFFCURVE",
"396 578 CURVE SMOOTH",
"164 578 OFFCURVE",
"10 460 OFFCURVE",
"10 283 CURVE SMOOTH",
"10 92 OFFCURVE",
"174 -13 OFFCURVE",
"474 -13 CURVE SMOOTH",
"580 -13 OFFCURVE",
"698 8 OFFCURVE",
"769 40 CURVE"
);
}
);
width = 781;
}
);
leftKerningGroup = c;
rightKerningGroup = e;
unicode = 0065;
},
{
glyphname = f;
lastChange = "2020-05-30 09:50:59 +0000";
layers = (
{
anchors = (
{
name = bottom;
position = "{286, 0}";
},
{
name = top;
position = "{286, 724}";
}
);
layerId = "898421D1-ED89-4F9A-874F-2D62076340E9";
paths = (
{
closed = 1;
nodes = (
"15 259 LINE",
"101 259 LINE",
"101 0 LINE",
"421 0 LINE",
"421 259 LINE",
"556 259 LINE",
"556 494 LINE",
"421 494 LINE",
"421 522 OFFCURVE",
"441 540 OFFCURVE",
"493 540 CURVE SMOOTH",
"516 540 OFFCURVE",
"541 536 OFFCURVE",
"556 530 CURVE",
"556 705 LINE",
"525 723 OFFCURVE",
"445 737 OFFCURVE",
"375 737 CURVE SMOOTH",
"215 737 OFFCURVE",
"101 668 OFFCURVE",
"101 515 CURVE SMOOTH",
"101 494 LINE",
"15 494 LINE"
);
}
);
width = 571;
},
{
anchors = (
{
name = bottom;
position = "{331, 0}";
},
{
name = top;
position = "{331, 724}";
}
);
layerId = "3B426CF6-0C00-48CC-B0F4-6E2C4CD07FAD";
paths = (
{
closed = 1;
nodes = (
"15 259 LINE",
"115 259 LINE",
"115 0 LINE",
"489 0 LINE",
"489 259 LINE",
"646 259 LINE",
"646 494 LINE",
"489 494 LINE",
"489 522 OFFCURVE",
"512 540 OFFCURVE",
"573 540 CURVE SMOOTH",
"600 540 OFFCURVE",
"628 536 OFFCURVE",
"646 530 CURVE",
"646 705 LINE",
"610 723 OFFCURVE",
"516 737 OFFCURVE",
"435 737 CURVE SMOOTH",
"249 737 OFFCURVE",
"115 668 OFFCURVE",
"115 515 CURVE SMOOTH",
"115 494 LINE",
"15 494 LINE"
);
}
);
width = 661;
}
);
leftKerningGroup = f;
rightKerningGroup = f;
unicode = 0066;
},
{
glyphname = g;
lastChange = "2020-05-30 09:49:45 +0000";
layers = (
{
anchors = (
{
name = bottom;
position = "{409, -260}";
},
{
name = top;
position = "{409, 565}";
}
);
layerId = "898421D1-ED89-4F9A-874F-2D62076340E9";
paths = (
{
closed = 1;
nodes = (
"10 116 OFFCURVE",
"105 9 OFFCURVE",
"247 9 CURVE SMOOTH",
"384 9 OFFCURVE",
"456 107 OFFCURVE",
"467 243 CURVE",
"478 243 LINE",
"478 208 LINE SMOOTH",
"478 89 OFFCURVE",
"420 -27 OFFCURVE",
"241 -27 CURVE SMOOTH",
"183 -27 OFFCURVE",
"116 -14 OFFCURVE",
"71 10 CURVE",
"71 -213 LINE",
"113 -248 OFFCURVE",
"217 -271 OFFCURVE",
"331 -271 CURVE SMOOTH",
"576 -271 OFFCURVE",
"798 -151 OFFCURVE",
"798 177 CURVE SMOOTH",
"798 565 LINE",
"498 565 LINE",
"478 351 LINE",
"467 351 LINE",
"455 497 OFFCURVE",
"370 578 OFFCURVE",
"246 578 CURVE SMOOTH",
"100 578 OFFCURVE",
"10 467 OFFCURVE",
"10 294 CURVE SMOOTH"
);
},
{
closed = 1;
nodes = (
"360 327 OFFCURVE",
"378 344 OFFCURVE",
"404 344 CURVE SMOOTH",
"432 344 OFFCURVE",
"448 325 OFFCURVE",
"448 297 CURVE SMOOTH",
"448 267 OFFCURVE",
"430 250 OFFCURVE",
"404 250 CURVE SMOOTH",
"376 250 OFFCURVE",
"360 269 OFFCURVE",
"360 297 CURVE SMOOTH"
);
}
);
width = 818;
},
{
anchors = (
{
name = bottom;
position = "{455, -260}";
},
{
name = top;
position = "{455, 565}";
}
);
layerId = "3B426CF6-0C00-48CC-B0F4-6E2C4CD07FAD";
paths = (
{
closed = 1;
nodes = (
"10 116 OFFCURVE",
"116 9 OFFCURVE",
"274 9 CURVE SMOOTH",
"426 9 OFFCURVE",
"507 107 OFFCURVE",
"519 243 CURVE",
"531 243 LINE",
"531 208 LINE SMOOTH",
"531 89 OFFCURVE",
"466 -27 OFFCURVE",
"267 -27 CURVE SMOOTH",
"202 -27 OFFCURVE",
"127 -14 OFFCURVE",
"77 10 CURVE",
"77 -213 LINE",
"124 -243 OFFCURVE",
"235 -271 OFFCURVE",
"354 -271 CURVE SMOOTH",
"657 -271 OFFCURVE",
"905 -151 OFFCURVE",
"905 177 CURVE SMOOTH",
"905 565 LINE",
"554 565 LINE",
"531 351 LINE",
"519 351 LINE",
"506 497 OFFCURVE",
"410 578 OFFCURVE",
"273 578 CURVE SMOOTH",
"111 578 OFFCURVE",
"10 467 OFFCURVE",
"10 294 CURVE SMOOTH"
);
},
{
closed = 1;
nodes = (
"400 327 OFFCURVE",
"420 344 OFFCURVE",
"449 344 CURVE SMOOTH",
"480 344 OFFCURVE",
"498 325 OFFCURVE",
"498 297 CURVE SMOOTH",
"498 267 OFFCURVE",
"478 250 OFFCURVE",
"449 250 CURVE SMOOTH",
"418 250 OFFCURVE",
"400 269 OFFCURVE",
"400 297 CURVE SMOOTH"
);
}
);
width = 925;
}
);
leftKerningGroup = d;
unicode = 0067;
},
{
glyphname = h;
lastChange = "2020-05-30 09:12:23 +0000";
layers = (
{
anchors = (
{
name = bottom;
position = "{380, 0}";
},
{
name = center;
position = "{240, 623}";
},
{
name = top;
position = "{380, 724}";
}
);
layerId = "898421D1-ED89-4F9A-874F-2D62076340E9";
paths = (
{
closed = 1;
nodes = (
"340 0 LINE",
"340 262 LINE SMOOTH",
"340 298 OFFCURVE",
"350 322 OFFCURVE",
"380 322 CURVE SMOOTH",
"404 322 OFFCURVE",
"420 308 OFFCURVE",
"420 262 CURVE SMOOTH",
"420 0 LINE",
"740 0 LINE",
"740 361 LINE SMOOTH",
"740 491 OFFCURVE",
"689 578 OFFCURVE",
"559 578 CURVE SMOOTH",
"450 578 OFFCURVE",
"370 509 OFFCURVE",
"351 332 CURVE",
"340 332 LINE",
"340 724 LINE",
"20 724 LINE",
"20 0 LINE"
);
}
);
width = 760;
},
{
anchors = (
{
name = bottom;
position = "{439, 0}";
},
{
name = center;
position = "{282, 623}";
},
{
name = top;
position = "{439, 724}";
}
);
layerId = "3B426CF6-0C00-48CC-B0F4-6E2C4CD07FAD";
paths = (
{
closed = 1;
nodes = (
"394 0 LINE",
"394 262 LINE SMOOTH",
"394 298 OFFCURVE",
"405 322 OFFCURVE",
"439 322 CURVE SMOOTH",
"466 322 OFFCURVE",
"484 308 OFFCURVE",
"484 262 CURVE SMOOTH",
"484 0 LINE",
"858 0 LINE",
"858 351 LINE SMOOTH",
"858 491 OFFCURVE",
"793 578 OFFCURVE",
"640 578 CURVE SMOOTH",
"518 578 OFFCURVE",
"428 509 OFFCURVE",
"406 332 CURVE",
"394 332 LINE",
"394 724 LINE",
"20 724 LINE",
"20 0 LINE"
);
}
);
width = 878;
}
);
leftKerningGroup = l;
rightKerningGroup = n;
unicode = 0068;
},
{
glyphname = i;
lastChange = "2020-05-30 09:12:01 +0000";
layers = (
{
anchors = (
{
name = bottom;
position = "{180, 0}";
}
);
layerId = "898421D1-ED89-4F9A-874F-2D62076340E9";
paths = (
{
closed = 1;
nodes = (
"340 0 LINE",
"340 480 LINE",
"307 445 OFFCURVE",
"247 427 OFFCURVE",
"180 427 CURVE SMOOTH",
"108 427 OFFCURVE",
"49 449 OFFCURVE",
"20 480 CURVE",
"20 0 LINE"
);
},
{
closed = 1;
nodes = (
"299 454 OFFCURVE",
"345 511 OFFCURVE",
"345 596 CURVE SMOOTH",
"345 698 OFFCURVE",
"279 737 OFFCURVE",
"180 737 CURVE SMOOTH",
"61 737 OFFCURVE",
"15 681 OFFCURVE",
"15 596 CURVE SMOOTH",
"15 494 OFFCURVE",
"81 454 OFFCURVE",
"180 454 CURVE SMOOTH"
);
}
);
width = 360;
},
{
anchors = (
{
name = bottom;
position = "{206, 0}";
}
);
layerId = "3B426CF6-0C00-48CC-B0F4-6E2C4CD07FAD";
paths = (
{
closed = 1;
nodes = (
"393 0 LINE",
"393 480 LINE",
"354 445 OFFCURVE",
"284 427 OFFCURVE",
"206 427 CURVE SMOOTH",
"123 427 OFFCURVE",
"53 449 OFFCURVE",
"19 480 CURVE",
"19 0 LINE"
);
},
{
closed = 1;
nodes = (
"329 454 OFFCURVE",
"398 510 OFFCURVE",
"398 596 CURVE SMOOTH",
"398 686 OFFCURVE",
"321 737 OFFCURVE",
"206 737 CURVE SMOOTH",
"83 737 OFFCURVE",
"14 681 OFFCURVE",
"14 596 CURVE SMOOTH",
"14 505 OFFCURVE",
"91 454 OFFCURVE",
"206 454 CURVE SMOOTH"
);
}
);
width = 412;
}
);
leftKerningGroup = i;
unicode = 0069;
},
{
glyphname = idotless;
lastChange = "2020-06-08 17:50:32 +0000";
layers = (
{
anchors = (
{
name = bottom;
position = "{180, 0}";
},
{
name = center;
position = "{180, 283}";
},
{
name = ogonek;
position = "{271, 0}";
},
{
name = top;
position = "{180, 565}";
},
{
name = topright;
position = "{340, 565}";
}
);
layerId = "898421D1-ED89-4F9A-874F-2D62076340E9";
paths = (
{
closed = 1;
nodes = (
"340 0 LINE",
"340 565 LINE",
"20 565 LINE",
"20 0 LINE"
);
}
);
width = 360;
},
{
anchors = (
{
name = bottom;
position = "{225, 0}";
},
{
name = center;
position = "{225, 283}";
},
{
name = ogonek;
position = "{380, 0}";
},
{
name = top;
position = "{225, 565}";
},
{
name = topright;
position = "{430, 565}";
}
);
layerId = "3B426CF6-0C00-48CC-B0F4-6E2C4CD07FAD";
paths = (
{
closed = 1;
nodes = (
"430 0 LINE",
"430 565 LINE",
"20 565 LINE",
"20 0 LINE"
);
}
);
width = 450;
}
);
leftKerningGroup = idotless;
unicode = 0131;
},
{
glyphname = j;
lastChange = "2020-06-11 12:08:28 +0000";
layers = (
{
layerId = "898421D1-ED89-4F9A-874F-2D62076340E9";
paths = (
{
closed = 1;
nodes = (
"-16 -269 OFFCURVE",
"30 -273 OFFCURVE",
"74 -273 CURVE SMOOTH",
"244 -273 OFFCURVE",
"340 -189 OFFCURVE",
"340 -15 CURVE SMOOTH",
"340 480 LINE",
"307 445 OFFCURVE",
"247 427 OFFCURVE",
"180 427 CURVE SMOOTH",
"108 427 OFFCURVE",
"49 449 OFFCURVE",
"20 480 CURVE",
"20 -10 LINE SMOOTH",
"20 -65 OFFCURVE",
"-3 -96 OFFCURVE",
"-44 -105 CURVE",
"-44 -257 LINE"
);
},
{
closed = 1;
nodes = (
"299 454 OFFCURVE",
"345 511 OFFCURVE",
"345 596 CURVE SMOOTH",
"345 698 OFFCURVE",
"279 737 OFFCURVE",
"180 737 CURVE SMOOTH",
"61 737 OFFCURVE",
"15 681 OFFCURVE",
"15 596 CURVE SMOOTH",
"15 494 OFFCURVE",
"81 454 OFFCURVE",
"180 454 CURVE SMOOTH"
);
}
);
width = 358;
},
{
layerId = "3B426CF6-0C00-48CC-B0F4-6E2C4CD07FAD";
paths = (
{
closed = 1;
nodes = (
"-25 -262 OFFCURVE",
"29 -273 OFFCURVE",
"81 -273 CURVE SMOOTH",
"268 -273 OFFCURVE",
"393 -206 OFFCURVE",
"393 -15 CURVE SMOOTH",
"393 480 LINE",
"354 445 OFFCURVE",
"283 427 OFFCURVE",
"206 427 CURVE SMOOTH",
"119 427 OFFCURVE",
"51 450 OFFCURVE",
"19 480 CURVE",
"19 -11 LINE SMOOTH",
"19 -65 OFFCURVE",
"-5 -89 OFFCURVE",
"-55 -85 CURVE",
"-55 -246 LINE"
);
},
{
closed = 1;
nodes = (
"329 454 OFFCURVE",
"398 510 OFFCURVE",
"398 596 CURVE SMOOTH",
"398 686 OFFCURVE",
"321 737 OFFCURVE",
"204 737 CURVE SMOOTH",
"83 737 OFFCURVE",
"14 681 OFFCURVE",
"14 596 CURVE SMOOTH",
"14 508 OFFCURVE",
"88 454 OFFCURVE",
"207 454 CURVE SMOOTH"
);
}
);
width = 412;
}
);
leftKerningGroup = j;
unicode = 006A;
},
{
glyphname = k;
lastChange = "2020-05-27 03:22:39 +0000";
layers = (
{
anchors = (
{
name = bottom;
position = "{370, 0}";
},
{
name = top;
position = "{370, 724}";
}
);
layerId = "898421D1-ED89-4F9A-874F-2D62076340E9";
paths = (
{
closed = 1;
nodes = (
"555 298 LINE",
"667 387 OFFCURVE",
"708 476 OFFCURVE",
"730 565 CURVE",
"415 565 LINE",
"340 337 LINE",
"340 724 LINE",
"20 724 LINE",
"20 0 LINE",
"340 0 LINE",
"340 215 LINE",
"414 0 LINE",
"743 0 LINE",
"598 359 LINE"
);
},
{
closed = 1;
nodes = (
"287 191 LINE",
"403 191 LINE",
"403 360 LINE",
"287 360 LINE"
);
}
);
width = 740;
},
{
anchors = (
{
name = bottom;
position = "{428, 0}";
},
{
name = top;
position = "{428, 724}";
}
);
layerId = "3B426CF6-0C00-48CC-B0F4-6E2C4CD07FAD";
paths = (
{
closed = 1;
nodes = (
"636 298 LINE",
"760 386 OFFCURVE",
"807 474 OFFCURVE",
"832 565 CURVE",
"478 565 LINE",
"394 337 LINE",
"394 724 LINE",
"20 724 LINE",
"20 0 LINE",
"394 0 LINE",
"394 215 LINE",
"477 0 LINE",
"847 0 LINE",
"684 359 LINE"
);
},
{
closed = 1;
nodes = (
"334 191 LINE",
"465 191 LINE",
"465 360 LINE",
"334 360 LINE"
);
}
);
width = 844;
}
);
leftKerningGroup = l;
rightKerningGroup = k;
unicode = 006B;
},
{
glyphname = l;
lastChange = "2020-05-30 09:11:18 +0000";
layers = (
{
anchors = (
{
name = bottom;
position = "{180, 0}";
},
{
name = center;
position = "{180, 362}";
},
{
name = top;
position = "{180, 724}";
},
{
name = topright;
position = "{340, 724}";
}
);
layerId = "898421D1-ED89-4F9A-874F-2D62076340E9";
paths = (
{
closed = 1;
nodes = (
"340 0 LINE",
"340 724 LINE",
"20 724 LINE",
"20 0 LINE"
);
}
);
width = 360;
},
{
anchors = (
{
name = bottom;
position = "{207, 0}";
},
{
name = center;
position = "{207, 362}";
},
{
name = top;
position = "{207, 724}";
},
{
name = topright;
position = "{430, 724}";
}
);
layerId = "3B426CF6-0C00-48CC-B0F4-6E2C4CD07FAD";
paths = (
{
closed = 1;
nodes = (
"394 0 LINE",
"394 724 LINE",
"20 724 LINE",
"20 0 LINE"
);
}
);
width = 414;
}
);
leftKerningGroup = l;
rightKerningGroup = l;
unicode = 006C;
},
{
glyphname = lslash;
lastChange = "2020-06-08 17:53:03 +0000";
layers = (
{
components = (
{
name = l;
}
);
layerId = "898421D1-ED89-4F9A-874F-2D62076340E9";
paths = (
{
closed = 1;
nodes = (
"-25 178 LINE",
"385 318 LINE",
"385 508 LINE",
"-25 368 LINE"
);
}
);
width = 360;
},
{
components = (
{
name = l;
}
);
layerId = "3B426CF6-0C00-48CC-B0F4-6E2C4CD07FAD";
paths = (
{
closed = 1;
nodes = (
"-23 157 LINE",
"437 314 LINE",
"437 494 LINE",
"-23 337 LINE"
);
}
);
width = 414;
}
);
leftKerningGroup = l;
rightKerningGroup = lslash;
unicode = 0142;
},
{
glyphname = m;
lastChange = "2020-05-27 03:30:03 +0000";
layers = (
{
anchors = (
{
name = bottom;
position = "{576, 0}";
},
{
name = top;
position = "{576, 565}";
}
);
layerId = "898421D1-ED89-4F9A-874F-2D62076340E9";
paths = (
{
closed = 1;
nodes = (
"340 0 LINE",
"340 262 LINE SMOOTH",
"340 298 OFFCURVE",
"350 322 OFFCURVE",
"378 322 CURVE SMOOTH",
"400 322 OFFCURVE",
"416 308 OFFCURVE",
"416 262 CURVE SMOOTH",
"416 0 LINE",
"736 0 LINE",
"736 361 LINE SMOOTH",
"736 491 OFFCURVE",
"685 578 OFFCURVE",
"555 578 CURVE SMOOTH",
"446 578 OFFCURVE",
"370 509 OFFCURVE",
"351 332 CURVE",
"340 332 LINE",
"320 565 LINE",
"20 565 LINE",
"20 0 LINE"
);
},
{
closed = 1;
nodes = (
"736 0 LINE",
"736 262 LINE SMOOTH",
"736 298 OFFCURVE",
"746 322 OFFCURVE",
"774 322 CURVE SMOOTH",
"796 322 OFFCURVE",
"812 308 OFFCURVE",
"812 262 CURVE SMOOTH",
"812 0 LINE",
"1132 0 LINE",
"1132 361 LINE SMOOTH",
"1132 491 OFFCURVE",
"1081 578 OFFCURVE",
"951 578 CURVE SMOOTH",
"842 578 OFFCURVE",
"766 509 OFFCURVE",
"747 332 CURVE",
"736 332 LINE",
"680 373 LINE",
"416 373 LINE",
"416 0 LINE"
);
}
);
width = 1152;
},
{
anchors = (
{
name = bottom;
position = "{621, 0}";
},
{
name = top;
position = "{621, 565}";
}
);
layerId = "3B426CF6-0C00-48CC-B0F4-6E2C4CD07FAD";
paths = (
{
closed = 1;
nodes = (
"394 0 LINE",
"394 262 LINE SMOOTH",
"394 298 OFFCURVE",
"405 322 OFFCURVE",
"439 322 CURVE SMOOTH",
"466 322 OFFCURVE",
"484 308 OFFCURVE",
"484 262 CURVE SMOOTH",
"484 0 LINE",
"858 0 LINE",
"858 351 LINE SMOOTH",
"858 491 OFFCURVE",
"793 578 OFFCURVE",
"640 578 CURVE SMOOTH",
"518 578 OFFCURVE",
"428 509 OFFCURVE",
"406 332 CURVE",
"394 332 LINE",
"372 565 LINE",
"20 565 LINE",
"20 0 LINE"
);
},
{
closed = 1;
nodes = (
"858 0 LINE",
"858 262 LINE SMOOTH",
"858 298 OFFCURVE",
"869 322 OFFCURVE",
"903 322 CURVE SMOOTH",
"930 322 OFFCURVE",
"948 308 OFFCURVE",
"948 262 CURVE SMOOTH",
"948 0 LINE",
"1322 0 LINE",
"1322 351 LINE SMOOTH",
"1322 491 OFFCURVE",
"1257 578 OFFCURVE",
"1104 578 CURVE SMOOTH",
"982 578 OFFCURVE",
"892 509 OFFCURVE",
"870 332 CURVE",
"858 332 LINE",
"733 381 LINE",
"484 381 LINE",
"484 0 LINE"
);
}
);
width = 1342;
}
);
leftKerningGroup = n;
rightKerningGroup = n;
unicode = 006D;
},
{
glyphname = n;
lastChange = "2020-05-27 03:29:36 +0000";
layers = (
{
anchors = (
{
name = bottom;
position = "{380, 0}";
},
{
name = top;
position = "{380, 565}";
}
);
layerId = "898421D1-ED89-4F9A-874F-2D62076340E9";
paths = (
{
closed = 1;
nodes = (
"340 0 LINE",
"340 262 LINE SMOOTH",
"340 298 OFFCURVE",
"350 322 OFFCURVE",
"380 322 CURVE SMOOTH",
"404 322 OFFCURVE",
"420 308 OFFCURVE",
"420 262 CURVE SMOOTH",
"420 0 LINE",
"740 0 LINE",
"740 361 LINE SMOOTH",
"740 491 OFFCURVE",
"689 578 OFFCURVE",
"559 578 CURVE SMOOTH",
"450 578 OFFCURVE",
"370 509 OFFCURVE",
"351 332 CURVE",
"340 332 LINE",
"320 565 LINE",
"20 565 LINE",
"20 0 LINE"
);
}
);
width = 760;
},
{
anchors = (
{
name = bottom;
position = "{425, 0}";
},
{
name = top;
position = "{425, 565}";
}
);
layerId = "3B426CF6-0C00-48CC-B0F4-6E2C4CD07FAD";
paths = (
{
closed = 1;
nodes = (
"394 0 LINE",
"394 262 LINE SMOOTH",
"394 298 OFFCURVE",
"405 322 OFFCURVE",
"439 322 CURVE SMOOTH",
"466 322 OFFCURVE",
"484 308 OFFCURVE",
"484 262 CURVE SMOOTH",
"484 0 LINE",
"858 0 LINE",
"858 351 LINE SMOOTH",
"858 491 OFFCURVE",
"793 578 OFFCURVE",
"640 578 CURVE SMOOTH",
"518 578 OFFCURVE",
"428 509 OFFCURVE",
"406 332 CURVE",
"394 332 LINE",
"372 565 LINE",
"20 565 LINE",
"20 0 LINE"
);
}
);
width = 878;
}
);
leftKerningGroup = n;
rightKerningGroup = n;
unicode = 006E;
},
{
glyphname = eng;
lastChange = "2020-05-27 03:12:14 +0000";
layers = (
{
anchors = (
{
name = bottom;
position = "{380, 0}";
},
{
name = top;
position = "{380, 565}";
}
);
layerId = "898421D1-ED89-4F9A-874F-2D62076340E9";
paths = (
{
closed = 1;
nodes = (
"340 0 LINE",
"340 262 LINE SMOOTH",
"340 298 OFFCURVE",
"350 322 OFFCURVE",
"380 322 CURVE SMOOTH",
"404 322 OFFCURVE",
"420 308 OFFCURVE",
"420 262 CURVE SMOOTH",
"420 38 LINE SMOOTH",
"420 -24 OFFCURVE",
"397 -54 OFFCURVE",
"336 -54 CURVE SMOOTH",
"317 -54 OFFCURVE",
"297 -50 OFFCURVE",
"285 -45 CURVE",
"285 -275 LINE",
"314 -288 OFFCURVE",
"368 -297 OFFCURVE",
"420 -297 CURVE SMOOTH",
"607 -297 OFFCURVE",
"733 -213 OFFCURVE",
"740 0 CURVE",
"740 361 LINE SMOOTH",
"740 491 OFFCURVE",
"689 578 OFFCURVE",
"559 578 CURVE SMOOTH",
"450 578 OFFCURVE",
"370 509 OFFCURVE",
"351 332 CURVE",
"340 332 LINE",
"320 565 LINE",
"20 565 LINE",
"20 0 LINE"
);
}
);
width = 760;
},
{
anchors = (
{
name = bottom;
position = "{425, 0}";
},
{
name = top;
position = "{425, 565}";
}
);
layerId = "3B426CF6-0C00-48CC-B0F4-6E2C4CD07FAD";
paths = (
{
closed = 1;
nodes = (
"380 0 LINE",
"380 262 LINE SMOOTH",
"380 298 OFFCURVE",
"391 322 OFFCURVE",
"425 322 CURVE SMOOTH",
"452 322 OFFCURVE",
"470 308 OFFCURVE",
"470 262 CURVE SMOOTH",
"470 38 LINE SMOOTH",
"470 -18 OFFCURVE",
"449 -54 OFFCURVE",
"376 -54 CURVE SMOOTH",
"353 -54 OFFCURVE",
"332 -50 OFFCURVE",
"318 -45 CURVE",
"318 -275 LINE",
"351 -288 OFFCURVE",
"412 -297 OFFCURVE",
"470 -297 CURVE SMOOTH",
"680 -297 OFFCURVE",
"822 -213 OFFCURVE",
"830 0 CURVE",
"830 361 LINE SMOOTH",
"830 491 OFFCURVE",
"772 578 OFFCURVE",
"626 578 CURVE SMOOTH",
"504 578 OFFCURVE",
"414 509 OFFCURVE",
"392 332 CURVE",
"380 332 LINE",
"358 565 LINE",
"20 565 LINE",
"20 0 LINE"
);
}
);
width = 850;
}
);
leftKerningGroup = n;
leftMetricsKey = n;
rightKerningGroup = n;
rightMetricsKey = n;
unicode = 014B;
},
{
glyphname = o;
lastChange = "2022-01-11 11:57:00 +0000";
layers = (
{
anchors = (
{
name = bottom;
position = "{364, 0}";
},
{
name = center;
position = "{364, 283}";
},
{
name = ogonek;
position = "{655, 10}";
},
{
name = top;
position = "{364, 565}";
},
{
name = topright;
position = "{708, 565}";
}
);
layerId = "898421D1-ED89-4F9A-874F-2D62076340E9";
paths = (
{
closed = 1;
nodes = (
"591 -13 OFFCURVE",
"718 105 OFFCURVE",
"718 283 CURVE SMOOTH",
"718 471 OFFCURVE",
"576 578 OFFCURVE",
"364 578 CURVE SMOOTH",
"137 578 OFFCURVE",
"10 460 OFFCURVE",
"10 283 CURVE SMOOTH",
"10 94 OFFCURVE",
"152 -13 OFFCURVE",
"364 -13 CURVE SMOOTH"
);
},
{
closed = 1;
nodes = (
"310 317 OFFCURVE",
"330 341 OFFCURVE",
"364 341 CURVE SMOOTH",
"396 341 OFFCURVE",
"418 319 OFFCURVE",
"418 283 CURVE SMOOTH",
"418 248 OFFCURVE",
"398 225 OFFCURVE",
"364 225 CURVE SMOOTH",
"332 225 OFFCURVE",
"310 246 OFFCURVE",
"310 283 CURVE SMOOTH"
);
}
);
width = 728;
},
{
anchors = (
{
name = bottom;
position = "{409, 0}";
},
{
name = center;
position = "{409, 283}";
},
{
name = ogonek;
position = "{737, 10}";
},
{
name = top;
position = "{409, 565}";
},
{
name = topright;
position = "{797, 565}";
}
);
layerId = "3B426CF6-0C00-48CC-B0F4-6E2C4CD07FAD";
paths = (
{
closed = 1;
nodes = (
"664 -13 OFFCURVE",
"808 105 OFFCURVE",
"808 283 CURVE SMOOTH",
"808 471 OFFCURVE",
"647 578 OFFCURVE",
"409 578 CURVE SMOOTH",
"154 578 OFFCURVE",
"10 460 OFFCURVE",
"10 283 CURVE SMOOTH",
"10 94 OFFCURVE",
"171 -13 OFFCURVE",
"409 -13 CURVE SMOOTH"
);
},
{
closed = 1;
nodes = (
"348 317 OFFCURVE",
"371 341 OFFCURVE",
"409 341 CURVE SMOOTH",
"445 341 OFFCURVE",
"470 319 OFFCURVE",
"470 283 CURVE SMOOTH",
"470 248 OFFCURVE",
"447 225 OFFCURVE",
"409 225 CURVE SMOOTH",
"373 225 OFFCURVE",
"348 246 OFFCURVE",
"348 283 CURVE SMOOTH"
);
}
);
width = 818;
}
);
leftKerningGroup = c;
rightKerningGroup = o;
unicode = 006F;
},
{
glyphname = p;
lastChange = "2020-05-27 03:31:35 +0000";
layers = (
{
anchors = (
{
name = bottom;
position = "{409, 0}";
},
{
name = top;
position = "{409, 565}";
}
);
layerId = "898421D1-ED89-4F9A-874F-2D62076340E9";
paths = (
{
closed = 1;
nodes = (
"808 461 OFFCURVE",
"723 578 OFFCURVE",
"572 578 CURVE SMOOTH",
"448 578 OFFCURVE",
"363 496 OFFCURVE",
"351 341 CURVE",
"340 341 LINE",
"320 565 LINE",
"20 565 LINE",
"20 -149 LINE",
"340 -149 LINE",
"340 233 LINE",
"351 233 LINE",
"362 86 OFFCURVE",
"434 -13 OFFCURVE",
"571 -13 CURVE SMOOTH",
"713 -13 OFFCURVE",
"808 95 OFFCURVE",
"808 285 CURVE SMOOTH"
);
},
{
closed = 1;
nodes = (
"458 259 OFFCURVE",
"442 240 OFFCURVE",
"414 240 CURVE SMOOTH",
"388 240 OFFCURVE",
"370 257 OFFCURVE",
"370 287 CURVE SMOOTH",
"370 315 OFFCURVE",
"386 334 OFFCURVE",
"414 334 CURVE SMOOTH",
"440 334 OFFCURVE",
"458 317 OFFCURVE",
"458 287 CURVE SMOOTH"
);
}
);
width = 818;
},
{
anchors = (
{
name = bottom;
position = "{470, 0}";
},
{
name = top;
position = "{470, 565}";
}
);
layerId = "3B426CF6-0C00-48CC-B0F4-6E2C4CD07FAD";
paths = (
{
closed = 1;
nodes = (
"915 461 OFFCURVE",
"820 578 OFFCURVE",
"652 578 CURVE SMOOTH",
"515 578 OFFCURVE",
"419 496 OFFCURVE",
"406 341 CURVE",
"394 341 LINE",
"371 565 LINE",
"20 565 LINE",
"20 -149 LINE",
"394 -149 LINE",
"394 233 LINE",
"406 233 LINE",
"418 86 OFFCURVE",
"499 -13 OFFCURVE",
"651 -13 CURVE SMOOTH",
"809 -13 OFFCURVE",
"915 95 OFFCURVE",
"915 285 CURVE SMOOTH"
);
},
{
closed = 1;
nodes = (
"525 259 OFFCURVE",
"507 240 OFFCURVE",
"476 240 CURVE SMOOTH",
"447 240 OFFCURVE",
"427 257 OFFCURVE",
"427 287 CURVE SMOOTH",
"427 315 OFFCURVE",
"445 334 OFFCURVE",
"476 334 CURVE SMOOTH",
"505 334 OFFCURVE",
"525 317 OFFCURVE",
"525 287 CURVE SMOOTH"
);
}
);
width = 925;
}
);
leftKerningGroup = n;
rightKerningGroup = b;
unicode = 0070;
},
{
glyphname = thorn;
lastChange = "2020-05-27 03:12:14 +0000";
layers = (
{
layerId = "898421D1-ED89-4F9A-874F-2D62076340E9";
paths = (
{
closed = 1;
nodes = (
"808 461 OFFCURVE",
"723 578 OFFCURVE",
"572 578 CURVE SMOOTH",
"448 578 OFFCURVE",
"363 496 OFFCURVE",
"351 341 CURVE",
"340 341 LINE",
"340 724 LINE",
"20 724 LINE",
"20 -149 LINE",
"340 -149 LINE",
"340 233 LINE",
"351 233 LINE",
"362 86 OFFCURVE",
"434 -13 OFFCURVE",
"571 -13 CURVE SMOOTH",
"713 -13 OFFCURVE",
"808 95 OFFCURVE",
"808 285 CURVE SMOOTH"
);
},
{
closed = 1;
nodes = (
"458 259 OFFCURVE",
"442 240 OFFCURVE",
"414 240 CURVE SMOOTH",
"388 240 OFFCURVE",
"370 257 OFFCURVE",
"370 287 CURVE SMOOTH",
"370 315 OFFCURVE",
"386 334 OFFCURVE",
"414 334 CURVE SMOOTH",
"440 334 OFFCURVE",
"458 317 OFFCURVE",
"458 287 CURVE SMOOTH"
);
}
);
width = 818;
},
{
layerId = "3B426CF6-0C00-48CC-B0F4-6E2C4CD07FAD";
paths = (
{
closed = 1;
nodes = (
"898 461 OFFCURVE",
"803 578 OFFCURVE",
"635 578 CURVE SMOOTH",
"498 578 OFFCURVE",
"402 496 OFFCURVE",
"389 341 CURVE",
"377 341 LINE",
"377 724 LINE",
"20 724 LINE",
"20 -149 LINE",
"377 -149 LINE",
"377 233 LINE",
"389 233 LINE",
"401 86 OFFCURVE",
"482 -13 OFFCURVE",
"634 -13 CURVE SMOOTH",
"792 -13 OFFCURVE",
"898 95 OFFCURVE",
"898 285 CURVE SMOOTH"
);
},
{
closed = 1;
nodes = (
"508 259 OFFCURVE",
"490 240 OFFCURVE",
"459 240 CURVE SMOOTH",
"430 240 OFFCURVE",
"410 257 OFFCURVE",
"410 287 CURVE SMOOTH",
"410 315 OFFCURVE",
"428 334 OFFCURVE",
"459 334 CURVE SMOOTH",
"488 334 OFFCURVE",
"508 317 OFFCURVE",
"508 287 CURVE SMOOTH"
);
}
);
width = 908;
}
);
rightKerningGroup = b;
rightMetricsKey = b;
unicode = 00FE;
},
{
glyphname = q;
lastChange = "2020-05-27 03:31:45 +0000";
layers = (
{
anchors = (
{
name = bottom;
position = "{409, 0}";
},
{
name = top;
position = "{409, 565}";
}
);
layerId = "898421D1-ED89-4F9A-874F-2D62076340E9";
paths = (
{
closed = 1;
nodes = (
"10 95 OFFCURVE",
"105 -13 OFFCURVE",
"247 -13 CURVE SMOOTH",
"384 -13 OFFCURVE",
"456 86 OFFCURVE",
"467 233 CURVE",
"478 233 LINE",
"478 -149 LINE",
"798 -149 LINE",
"798 565 LINE",
"498 565 LINE",
"478 341 LINE",
"467 341 LINE",
"455 496 OFFCURVE",
"370 578 OFFCURVE",
"246 578 CURVE SMOOTH",
"95 578 OFFCURVE",
"10 461 OFFCURVE",
"10 285 CURVE SMOOTH"
);
},
{
closed = 1;
nodes = (
"360 317 OFFCURVE",
"378 334 OFFCURVE",
"404 334 CURVE SMOOTH",
"432 334 OFFCURVE",
"448 315 OFFCURVE",
"448 287 CURVE SMOOTH",
"448 257 OFFCURVE",
"430 240 OFFCURVE",
"404 240 CURVE SMOOTH",
"376 240 OFFCURVE",
"360 259 OFFCURVE",
"360 287 CURVE SMOOTH"
);
}
);
width = 818;
},
{
anchors = (
{
name = bottom;
position = "{455, 0}";
},
{
name = top;
position = "{455, 565}";
}
);
layerId = "3B426CF6-0C00-48CC-B0F4-6E2C4CD07FAD";
paths = (
{
closed = 1;
nodes = (
"10 95 OFFCURVE",
"116 -13 OFFCURVE",
"274 -13 CURVE SMOOTH",
"426 -13 OFFCURVE",
"507 86 OFFCURVE",
"519 233 CURVE",
"531 233 LINE",
"531 -149 LINE",
"905 -149 LINE",
"905 565 LINE",
"554 565 LINE",
"531 341 LINE",
"519 341 LINE",
"506 496 OFFCURVE",
"410 578 OFFCURVE",
"273 578 CURVE SMOOTH",
"105 578 OFFCURVE",
"10 461 OFFCURVE",
"10 285 CURVE SMOOTH"
);
},
{
closed = 1;
nodes = (
"400 317 OFFCURVE",
"420 334 OFFCURVE",
"449 334 CURVE SMOOTH",
"480 334 OFFCURVE",
"498 315 OFFCURVE",
"498 287 CURVE SMOOTH",
"498 257 OFFCURVE",
"478 240 OFFCURVE",
"449 240 CURVE SMOOTH",
"418 240 OFFCURVE",
"400 259 OFFCURVE",
"400 287 CURVE SMOOTH"
);
}
);
width = 925;
}
);
leftKerningGroup = d;
unicode = 0071;
},
{
glyphname = r;
lastChange = "2020-05-28 20:41:18 +0000";
layers = (
{
anchors = (
{
name = bottom;
position = "{180, 0}";
},
{
name = top;
position = "{281, 565}";
}
);
layerId = "898421D1-ED89-4F9A-874F-2D62076340E9";
paths = (
{
closed = 1;
nodes = (
"547 574 LINE",
"431 577 OFFCURVE",
"363 508 OFFCURVE",
"351 311 CURVE",
"340 311 LINE",
"320 565 LINE",
"20 565 LINE",
"20 0 LINE",
"340 0 LINE",
"340 159 LINE SMOOTH",
"340 222 OFFCURVE",
"340 313 OFFCURVE",
"466 313 CURVE SMOOTH",
"492 313 OFFCURVE",
"528 309 OFFCURVE",
"547 302 CURVE"
);
}
);
width = 562;
},
{
anchors = (
{
name = bottom;
position = "{206, 0}";
},
{
name = top;
position = "{325, 565}";
}
);
layerId = "3B426CF6-0C00-48CC-B0F4-6E2C4CD07FAD";
paths = (
{
closed = 1;
nodes = (
"636 574 LINE",
"500 577 OFFCURVE",
"421 507 OFFCURVE",
"407 311 CURVE",
"394 311 LINE",
"370 565 LINE",
"20 565 LINE",
"20 0 LINE",
"394 0 LINE",
"394 159 LINE SMOOTH",
"394 222 OFFCURVE",
"394 313 OFFCURVE",
"541 313 CURVE SMOOTH",
"571 313 OFFCURVE",
"614 309 OFFCURVE",
"636 302 CURVE"
);
}
);
width = 651;
}
);
leftKerningGroup = n;
rightKerningGroup = r;
unicode = 0072;
},
{
glyphname = s;
lastChange = "2020-06-11 14:13:03 +0000";
layers = (
{
anchors = (
{
name = bottom;
position = "{296, 0}";
},
{
name = top;
position = "{296, 565}";
}
);
layerId = "898421D1-ED89-4F9A-874F-2D62076340E9";
paths = (
{
closed = 1;
nodes = (
"5 325 OFFCURVE",
"45 280 OFFCURVE",
"172 268 CURVE SMOOTH",
"248 261 LINE SMOOTH",
"258 260 OFFCURVE",
"280 257 OFFCURVE",
"280 240 CURVE SMOOTH",
"280 222 OFFCURVE",
"257 220 OFFCURVE",
"231 220 CURVE SMOOTH",
"159 220 OFFCURVE",
"75 236 OFFCURVE",
"15 261 CURVE",
"15 35 LINE",
"73 6 OFFCURVE",
"186 -13 OFFCURVE",
"299 -13 CURVE SMOOTH",
"471 -13 OFFCURVE",
"586 33 OFFCURVE",
"586 153 CURVE SMOOTH",
"586 224 OFFCURVE",
"544 275 OFFCURVE",
"443 288 CURVE SMOOTH",
"355 299 LINE SMOOTH",
"329 302 OFFCURVE",
"311 305 OFFCURVE",
"311 322 CURVE SMOOTH",
"311 333 OFFCURVE",
"320 342 OFFCURVE",
"369 342 CURVE SMOOTH",
"437 342 OFFCURVE",
"526 324 OFFCURVE",
"574 299 CURVE",
"574 521 LINE",
"516 555 OFFCURVE",
"404 578 OFFCURVE",
"295 578 CURVE SMOOTH",
"121 578 OFFCURVE",
"5 521 OFFCURVE",
"5 398 CURVE SMOOTH"
);
}
);
width = 591;
},
{
anchors = (
{
name = bottom;
position = "{341, 0}";
},
{
name = top;
position = "{341, 565}";
}
);
layerId = "3B426CF6-0C00-48CC-B0F4-6E2C4CD07FAD";
paths = (
{
closed = 1;
nodes = (
"5 325 OFFCURVE",
"51 280 OFFCURVE",
"198 268 CURVE SMOOTH",
"286 261 LINE SMOOTH",
"297 260 OFFCURVE",
"323 257 OFFCURVE",
"323 240 CURVE SMOOTH",
"323 222 OFFCURVE",
"296 220 OFFCURVE",
"266 220 CURVE SMOOTH",
"183 220 OFFCURVE",
"86 236 OFFCURVE",
"17 261 CURVE",
"17 45 LINE",
"79 10 OFFCURVE",
"211 -13 OFFCURVE",
"345 -13 CURVE SMOOTH",
"543 -13 OFFCURVE",
"676 33 OFFCURVE",
"676 153 CURVE SMOOTH",
"676 227 OFFCURVE",
"623 276 OFFCURVE",
"511 288 CURVE SMOOTH",
"409 299 LINE SMOOTH",
"379 302 OFFCURVE",
"358 306 OFFCURVE",
"358 322 CURVE SMOOTH",
"358 333 OFFCURVE",
"369 342 OFFCURVE",
"425 342 CURVE SMOOTH",
"503 342 OFFCURVE",
"613 323 OFFCURVE",
"664 298 CURVE",
"664 511 LINE",
"602 551 OFFCURVE",
"472 578 OFFCURVE",
"340 578 CURVE SMOOTH",
"139 578 OFFCURVE",
"5 521 OFFCURVE",
"5 398 CURVE SMOOTH"
);
}
);
width = 681;
}
);
leftKerningGroup = s;
rightKerningGroup = s;
unicode = 0073;
},
{
glyphname = germandbls;
lastChange = "2020-05-27 03:12:14 +0000";
layers = (
{
layerId = "898421D1-ED89-4F9A-874F-2D62076340E9";
paths = (
{
closed = 1;
nodes = (
"709 410 OFFCURVE",
"749 462 OFFCURVE",
"749 534 CURVE SMOOTH",
"749 655 OFFCURVE",
"616 735 OFFCURVE",
"416 735 CURVE SMOOTH",
"173 735 OFFCURVE",
"20 634 OFFCURVE",
"20 420 CURVE SMOOTH",
"20 0 LINE",
"340 0 LINE",
"340 446 LINE SMOOTH",
"340 487 OFFCURVE",
"360 514 OFFCURVE",
"398 514 CURVE SMOOTH",
"428 514 OFFCURVE",
"450 497 OFFCURVE",
"450 468 CURVE SMOOTH",
"450 440 OFFCURVE",
"428 423 OFFCURVE",
"396 423 CURVE SMOOTH",
"370 423 LINE",
"370 305 LINE",
"397 305 LINE SMOOTH",
"441 305 OFFCURVE",
"463 290 OFFCURVE",
"463 260 CURVE SMOOTH",
"463 232 OFFCURVE",
"441 216 OFFCURVE",
"404 216 CURVE SMOOTH",
"390 216 OFFCURVE",
"380 218 OFFCURVE",
"370 221 CURVE",
"370 1 LINE",
"391 -5 OFFCURVE",
"447 -13 OFFCURVE",
"501 -13 CURVE SMOOTH",
"676 -13 OFFCURVE",
"793 67 OFFCURVE",
"793 209 CURVE SMOOTH",
"793 298 OFFCURVE",
"742 369 OFFCURVE",
"626 386 CURVE"
);
}
);
width = 803;
},
{
layerId = "3B426CF6-0C00-48CC-B0F4-6E2C4CD07FAD";
paths = (
{
closed = 1;
nodes = (
"789 410 OFFCURVE",
"834 462 OFFCURVE",
"834 534 CURVE SMOOTH",
"834 655 OFFCURVE",
"685 735 OFFCURVE",
"462 735 CURVE SMOOTH",
"191 735 OFFCURVE",
"20 634 OFFCURVE",
"20 420 CURVE SMOOTH",
"20 0 LINE",
"377 0 LINE",
"377 446 LINE SMOOTH",
"377 487 OFFCURVE",
"400 514 OFFCURVE",
"442 514 CURVE SMOOTH",
"475 514 OFFCURVE",
"500 497 OFFCURVE",
"500 468 CURVE SMOOTH",
"500 440 OFFCURVE",
"475 423 OFFCURVE",
"440 423 CURVE SMOOTH",
"411 423 LINE",
"411 305 LINE",
"441 305 LINE SMOOTH",
"490 305 OFFCURVE",
"515 290 OFFCURVE",
"515 260 CURVE SMOOTH",
"515 232 OFFCURVE",
"490 216 OFFCURVE",
"449 216 CURVE SMOOTH",
"433 216 OFFCURVE",
"422 218 OFFCURVE",
"411 221 CURVE",
"411 1 LINE",
"434 -5 OFFCURVE",
"497 -13 OFFCURVE",
"557 -13 CURVE SMOOTH",
"752 -13 OFFCURVE",
"883 67 OFFCURVE",
"883 209 CURVE SMOOTH",
"883 298 OFFCURVE",
"826 369 OFFCURVE",
"697 386 CURVE"
);
}
);
width = 893;
}
);
rightKerningGroup = germandbls;
unicode = 00DF;
},
{
glyphname = t;
lastChange = "2020-05-30 09:51:16 +0000";
layers = (
{
anchors = (
{
name = bottom;
position = "{293, 0}";
},
{
name = center;
position = "{293, 283}";
},
{
name = top;
position = "{291, 724}";
},
{
name = topright;
position = "{566, 565}";
}
);
layerId = "898421D1-ED89-4F9A-874F-2D62076340E9";
paths = (
{
closed = 1;
nodes = (
"96 330 LINE",
"96 237 LINE SMOOTH",
"96 75 OFFCURVE",
"171 -13 OFFCURVE",
"373 -13 CURVE SMOOTH",
"452 -13 OFFCURVE",
"528 3 OFFCURVE",
"561 27 CURVE",
"561 257 LINE",
"541 249 OFFCURVE",
"516 244 OFFCURVE",
"492 244 CURVE SMOOTH",
"416 244 OFFCURVE",
"416 277 OFFCURVE",
"416 316 CURVE SMOOTH",
"416 330 LINE",
"571 330 LINE",
"571 565 LINE",
"416 565 LINE",
"416 724 LINE",
"336 724 LINE",
"271 614 OFFCURVE",
"149 518 OFFCURVE",
"10 477 CURVE",
"10 330 LINE"
);
}
);
width = 586;
},
{
anchors = (
{
name = bottom;
position = "{338, 0}";
},
{
name = center;
position = "{338, 283}";
},
{
name = top;
position = "{336, 724}";
},
{
name = topright;
position = "{655, 565}";
}
);
layerId = "3B426CF6-0C00-48CC-B0F4-6E2C4CD07FAD";
paths = (
{
closed = 1;
nodes = (
"110 330 LINE",
"110 237 LINE SMOOTH",
"110 101 OFFCURVE",
"168 -13 OFFCURVE",
"431 -13 CURVE SMOOTH",
"508 -13 OFFCURVE",
"594 -1 OFFCURVE",
"649 27 CURVE",
"649 257 LINE",
"626 249 OFFCURVE",
"597 244 OFFCURVE",
"569 244 CURVE SMOOTH",
"484 244 OFFCURVE",
"484 277 OFFCURVE",
"484 316 CURVE SMOOTH",
"484 330 LINE",
"661 330 LINE",
"661 565 LINE",
"484 565 LINE",
"484 724 LINE",
"388 724 LINE",
"313 614 OFFCURVE",
"171 518 OFFCURVE",
"10 477 CURVE",
"10 330 LINE"
);
}
);
width = 676;
}
);
leftKerningGroup = t;
rightKerningGroup = t;
unicode = 0074;
},
{
glyphname = tbar;
lastChange = "2020-05-27 03:12:14 +0000";
layers = (
{
anchors = (
{
name = bottom;
position = "{293, 0}";
},
{
name = center;
position = "{291, 306}";
},
{
name = top;
position = "{293, 565}";
},
{
name = topright;
position = "{566, 565}";
}
);
components = (
{
name = strokeshortcomb;
transform = "{1, 0, 0, 1, 0, -6}";
}
);
layerId = "898421D1-ED89-4F9A-874F-2D62076340E9";
paths = (
{
closed = 1;
nodes = (
"96 370 LINE",
"96 237 LINE SMOOTH",
"96 75 OFFCURVE",
"168 -13 OFFCURVE",
"363 -13 CURVE SMOOTH",
"434 -13 OFFCURVE",
"517 -1 OFFCURVE",
"571 17 CURVE",
"571 257 LINE",
"548 249 OFFCURVE",
"519 244 OFFCURVE",
"492 244 CURVE SMOOTH",
"416 244 OFFCURVE",
"416 277 OFFCURVE",
"416 316 CURVE SMOOTH",
"416 370 LINE",
"571 370 LINE",
"571 565 LINE",
"416 565 LINE",
"416 724 LINE",
"336 724 LINE",
"271 614 OFFCURVE",
"149 518 OFFCURVE",
"10 477 CURVE",
"10 370 LINE"
);
}
);
width = 586;
},
{
anchors = (
{
name = bottom;
position = "{386, 0}";
},
{
name = center;
position = "{383, 306}";
},
{
name = top;
position = "{385, 565}";
},
{
name = topright;
position = "{702, 565}";
}
);
components = (
{
name = strokeshortcomb;
transform = "{1, 0, 0, 1, 45, -6}";
}
);
layerId = "3B426CF6-0C00-48CC-B0F4-6E2C4CD07FAD";
paths = (
{
closed = 1;
nodes = (
"157 370 LINE",
"157 237 LINE SMOOTH",
"157 102 OFFCURVE",
"212 -13 OFFCURVE",
"467 -13 CURVE SMOOTH",
"550 -13 OFFCURVE",
"645 -1 OFFCURVE",
"708 17 CURVE",
"708 257 LINE",
"681 249 OFFCURVE",
"648 244 OFFCURVE",
"616 244 CURVE SMOOTH",
"528 244 OFFCURVE",
"528 277 OFFCURVE",
"528 316 CURVE SMOOTH",
"528 370 LINE",
"708 370 LINE",
"708 565 LINE",
"528 565 LINE",
"528 724 LINE",
"435 724 LINE",
"360 614 OFFCURVE",
"218 518 OFFCURVE",
"57 477 CURVE",
"57 370 LINE"
);
}
);
width = 723;
}
);
leftKerningGroup = t;
rightKerningGroup = t;
unicode = 0167;
},
{
glyphname = u;
lastChange = "2022-01-11 12:05:27 +0000";
layers = (
{
anchors = (
{
name = bottom;
position = "{380, 0}";
},
{
name = ogonek;
position = "{684, 10}";
},
{
name = top;
position = "{380, 565}";
},
{
name = topright;
position = "{740, 565}";
}
);
layerId = "898421D1-ED89-4F9A-874F-2D62076340E9";
paths = (
{
closed = 1;
nodes = (
"420 565 LINE",
"420 303 LINE SMOOTH",
"420 267 OFFCURVE",
"410 243 OFFCURVE",
"380 243 CURVE SMOOTH",
"356 243 OFFCURVE",
"340 257 OFFCURVE",
"340 303 CURVE SMOOTH",
"340 565 LINE",
"20 565 LINE",
"20 205 LINE SMOOTH",
"20 75 OFFCURVE",
"63 -11 OFFCURVE",
"201 -11 CURVE SMOOTH",
"317 -11 OFFCURVE",
"391 67 OFFCURVE",
"409 233 CURVE",
"420 233 LINE",
"440 0 LINE",
"740 0 LINE",
"740 565 LINE"
);
}
);
width = 760;
},
{
anchors = (
{
name = bottom;
position = "{425, 0}";
},
{
name = ogonek;
position = "{767, 10}";
},
{
name = top;
position = "{425, 565}";
},
{
name = topright;
position = "{830, 565}";
}
);
layerId = "3B426CF6-0C00-48CC-B0F4-6E2C4CD07FAD";
paths = (
{
closed = 1;
nodes = (
"484 565 LINE",
"484 303 LINE SMOOTH",
"484 267 OFFCURVE",
"473 243 OFFCURVE",
"439 243 CURVE SMOOTH",
"412 243 OFFCURVE",
"394 257 OFFCURVE",
"394 303 CURVE SMOOTH",
"394 565 LINE",
"20 565 LINE",
"20 214 LINE SMOOTH",
"20 74 OFFCURVE",
"85 -13 OFFCURVE",
"238 -13 CURVE SMOOTH",
"360 -13 OFFCURVE",
"450 56 OFFCURVE",
"472 233 CURVE",
"484 233 LINE",
"506 0 LINE",
"858 0 LINE",
"858 565 LINE"
);
}
);
width = 878;
}
);
leftKerningGroup = u;
unicode = 0075;
},
{
glyphname = v;
lastChange = "2020-05-30 09:49:28 +0000";
layers = (
{
anchors = (
{
name = bottom;
position = "{355, 0}";
},
{
name = top;
position = "{355, 565}";
}
);
layerId = "898421D1-ED89-4F9A-874F-2D62076340E9";
paths = (
{
closed = 1;
nodes = (
"135 0 LINE",
"575 0 LINE",
"710 565 LINE",
"387 565 LINE",
"363 206 LINE",
"347 206 LINE",
"323 565 LINE",
"0 565 LINE"
);
}
);
width = 710;
},
{
anchors = (
{
name = bottom;
position = "{400, 0}";
},
{
name = top;
position = "{400, 565}";
}
);
layerId = "3B426CF6-0C00-48CC-B0F4-6E2C4CD07FAD";
paths = (
{
closed = 1;
nodes = (
"152 0 LINE",
"648 0 LINE",
"800 565 LINE",
"436 565 LINE",
"409 206 LINE",
"391 206 LINE",
"364 565 LINE",
"0 565 LINE"
);
}
);
width = 800;
}
);
leftKerningGroup = v;
rightKerningGroup = v;
unicode = 0076;
},
{
glyphname = w;
lastChange = "2020-05-30 09:48:56 +0000";
layers = (
{
anchors = (
{
name = bottom;
position = "{501, 0}";
},
{
name = top;
position = "{501, 565}";
}
);
layerId = "898421D1-ED89-4F9A-874F-2D62076340E9";
paths = (
{
closed = 1;
nodes = (
"106 0 LINE",
"477 0 LINE",
"494 260 LINE",
"505 260 LINE",
"522 0 LINE",
"895 0 LINE",
"991 565 LINE",
"687 565 LINE",
"674 206 LINE",
"663 206 LINE",
"620 555 LINE",
"381 555 LINE",
"338 206 LINE",
"327 206 LINE",
"314 565 LINE",
"10 565 LINE"
);
}
);
width = 1001;
},
{
anchors = (
{
name = bottom;
position = "{546, 0}";
},
{
name = top;
position = "{546, 565}";
}
);
layerId = "3B426CF6-0C00-48CC-B0F4-6E2C4CD07FAD";
paths = (
{
closed = 1;
nodes = (
"115 0 LINE",
"520 0 LINE",
"538 260 LINE",
"550 260 LINE",
"569 0 LINE",
"976 0 LINE",
"1081 565 LINE",
"749 565 LINE",
"735 206 LINE",
"723 206 LINE",
"676 555 LINE",
"415 555 LINE",
"368 206 LINE",
"356 206 LINE",
"342 565 LINE",
"10 565 LINE"
);
}
);
width = 1091;
}
);
leftKerningGroup = w;
rightKerningGroup = w;
unicode = 0077;
},
{
glyphname = x;
lastChange = "2020-05-30 09:42:44 +0000";
layers = (
{
anchors = (
{
name = bottom;
position = "{359, 0}";
},
{
name = top;
position = "{359, 565}";
}
);
layerId = "898421D1-ED89-4F9A-874F-2D62076340E9";
paths = (
{
closed = 1;
nodes = (
"100 279 LINE",
"618 279 LINE",
"718 565 LINE",
"397 565 LINE",
"364 437 LINE",
"353 437 LINE",
"321 565 LINE",
"0 565 LINE"
);
},
{
closed = 1;
nodes = (
"321 0 LINE",
"353 129 LINE",
"364 129 LINE",
"397 0 LINE",
"718 0 LINE",
"618 279 LINE",
"100 279 LINE",
"0 0 LINE"
);
}
);
width = 718;
},
{
anchors = (
{
name = bottom;
position = "{404, 0}";
},
{
name = top;
position = "{404, 565}";
}
);
layerId = "3B426CF6-0C00-48CC-B0F4-6E2C4CD07FAD";
paths = (
{
closed = 1;
nodes = (
"113 279 LINE",
"695 279 LINE",
"808 565 LINE",
"447 565 LINE",
"410 437 LINE",
"397 437 LINE",
"361 565 LINE",
"0 565 LINE"
);
},
{
closed = 1;
nodes = (
"361 0 LINE",
"397 129 LINE",
"410 129 LINE",
"447 0 LINE",
"808 0 LINE",
"695 279 LINE",
"113 279 LINE",
"0 0 LINE"
);
}
);
width = 808;
}
);
leftKerningGroup = x;
rightKerningGroup = x;
unicode = 0078;
},
{
glyphname = y;
lastChange = "2020-05-30 09:43:21 +0000";
layers = (
{
anchors = (
{
name = bottom;
position = "{361, 0}";
},
{
name = top;
position = "{361, 565}";
}
);
layerId = "898421D1-ED89-4F9A-874F-2D62076340E9";
paths = (
{
closed = 1;
nodes = (
"161 61 LINE SMOOTH",
"182 -6 OFFCURVE",
"153 -52 OFFCURVE",
"97 -52 CURVE SMOOTH",
"64 -52 OFFCURVE",
"32 -46 OFFCURVE",
"0 -28 CURVE",
"0 -250 LINE",
"41 -277 OFFCURVE",
"106 -289 OFFCURVE",
"176 -289 CURVE SMOOTH",
"358 -289 OFFCURVE",
"500 -196 OFFCURVE",
"557 0 CURVE SMOOTH",
"721 565 LINE",
"398 565 LINE",
"367 206 LINE",
"356 206 LINE",
"326 565 LINE",
"3 565 LINE"
);
}
);
width = 721;
},
{
anchors = (
{
name = bottom;
position = "{406, 0}";
},
{
name = top;
position = "{406, 565}";
}
);
layerId = "3B426CF6-0C00-48CC-B0F4-6E2C4CD07FAD";
paths = (
{
closed = 1;
nodes = (
"181 61 LINE SMOOTH",
"205 -6 OFFCURVE",
"172 -52 OFFCURVE",
"109 -52 CURVE SMOOTH",
"72 -52 OFFCURVE",
"36 -46 OFFCURVE",
"0 -28 CURVE",
"0 -250 LINE",
"46 -277 OFFCURVE",
"120 -289 OFFCURVE",
"198 -289 CURVE SMOOTH",
"402 -289 OFFCURVE",
"562 -196 OFFCURVE",
"626 0 CURVE SMOOTH",
"811 565 LINE",
"448 565 LINE",
"413 206 LINE",
"400 206 LINE",
"367 565 LINE",
"3 565 LINE"
);
}
);
width = 811;
}
);
leftKerningGroup = y;
rightKerningGroup = y;
unicode = 0079;
},
{
glyphname = z;
lastChange = "2020-05-27 03:12:14 +0000";
layers = (
{
anchors = (
{
name = bottom;
position = "{322, 0}";
},
{
name = center;
position = "{322, 283}";
},
{
name = top;
position = "{322, 565}";
}
);
layerId = "898421D1-ED89-4F9A-874F-2D62076340E9";
paths = (
{
closed = 1;
nodes = (
"624 0 LINE",
"624 236 LINE",
"551 236 OFFCURVE",
"455 204 OFFCURVE",
"380 156 CURVE",
"372 169 LINE",
"471 235 OFFCURVE",
"565 311 OFFCURVE",
"624 378 CURVE",
"624 565 LINE",
"20 566 LINE",
"20 330 LINE",
"93 330 OFFCURVE",
"189 362 OFFCURVE",
"264 410 CURVE",
"272 397 LINE",
"173 331 OFFCURVE",
"79 255 OFFCURVE",
"20 188 CURVE",
"20 1 LINE"
);
}
);
width = 644;
},
{
anchors = (
{
name = bottom;
position = "{367, 0}";
},
{
name = center;
position = "{367, 283}";
},
{
name = top;
position = "{367, 565}";
}
);
layerId = "3B426CF6-0C00-48CC-B0F4-6E2C4CD07FAD";
paths = (
{
closed = 1;
nodes = (
"714 0 LINE",
"714 236 LINE",
"629 236 OFFCURVE",
"520 204 OFFCURVE",
"434 156 CURVE",
"424 169 LINE",
"538 235 OFFCURVE",
"645 311 OFFCURVE",
"714 378 CURVE",
"714 565 LINE",
"20 566 LINE",
"20 330 LINE",
"104 330 OFFCURVE",
"214 362 OFFCURVE",
"300 410 CURVE",
"310 397 LINE",
"196 331 OFFCURVE",
"89 255 OFFCURVE",
"20 188 CURVE",
"20 1 LINE"
);
}
);
width = 734;
}
);
unicode = 007A;
},
{
glyphname = j.001;
lastChange = "2020-06-11 12:09:19 +0000";
layers = (
{
layerId = "898421D1-ED89-4F9A-874F-2D62076340E9";
paths = (
{
closed = 1;
nodes = (
"299 454 OFFCURVE",
"345 511 OFFCURVE",
"345 596 CURVE SMOOTH",
"345 698 OFFCURVE",
"279 737 OFFCURVE",
"180 737 CURVE SMOOTH",
"61 737 OFFCURVE",
"15 681 OFFCURVE",
"15 596 CURVE SMOOTH",
"15 494 OFFCURVE",
"81 454 OFFCURVE",
"180 454 CURVE SMOOTH"
);
},
{
closed = 1;
nodes = (
"-115 -251 LINE",
"-91 -264 OFFCURVE",
"-32 -273 OFFCURVE",
"31 -273 CURVE SMOOTH",
"212 -273 OFFCURVE",
"340 -192 OFFCURVE",
"340 17 CURVE SMOOTH",
"340 480 LINE",
"307 445 OFFCURVE",
"247 427 OFFCURVE",
"180 427 CURVE SMOOTH",
"108 427 OFFCURVE",
"49 449 OFFCURVE",
"20 480 CURVE",
"20 38 LINE SMOOTH",
"20 -27 OFFCURVE",
"-34 -60 OFFCURVE",
"-115 -45 CURVE"
);
}
);
width = 358;
},
{
layerId = "3B426CF6-0C00-48CC-B0F4-6E2C4CD07FAD";
paths = (
{
closed = 1;
nodes = (
"329 454 OFFCURVE",
"398 510 OFFCURVE",
"398 596 CURVE SMOOTH",
"398 686 OFFCURVE",
"321 737 OFFCURVE",
"204 737 CURVE SMOOTH",
"83 737 OFFCURVE",
"14 681 OFFCURVE",
"14 596 CURVE SMOOTH",
"14 508 OFFCURVE",
"88 454 OFFCURVE",
"207 454 CURVE SMOOTH"
);
},
{
closed = 1;
nodes = (
"-55 -252 LINE",
"-31 -265 OFFCURVE",
"22 -273 OFFCURVE",
"81 -273 CURVE SMOOTH",
"281 -273 OFFCURVE",
"393 -186 OFFCURVE",
"393 0 CURVE SMOOTH",
"393 480 LINE",
"354 445 OFFCURVE",
"283 427 OFFCURVE",
"206 427 CURVE SMOOTH",
"119 427 OFFCURVE",
"51 450 OFFCURVE",
"19 480 CURVE",
"19 16 LINE SMOOTH",
"19 -31 OFFCURVE",
"-5 -55 OFFCURVE",
"-55 -51 CURVE"
);
}
);
width = 412;
}
);
leftKerningGroup = j;
},
{
glyphname = s.ss02;
lastChange = "2020-06-11 14:12:57 +0000";
layers = (
{
anchors = (
{
name = bottom;
position = "{330, 0}";
},
{
name = top;
position = "{339, 565}";
}
);
layerId = "898421D1-ED89-4F9A-874F-2D62076340E9";
paths = (
{
closed = 1;
nodes = (
"5 325 OFFCURVE",
"50 280 OFFCURVE",
"192 268 CURVE SMOOTH",
"277 261 LINE SMOOTH",
"288 260 OFFCURVE",
"312 257 OFFCURVE",
"312 240 CURVE SMOOTH",
"312 222 OFFCURVE",
"287 220 OFFCURVE",
"258 220 CURVE SMOOTH",
"177 220 OFFCURVE",
"84 236 OFFCURVE",
"17 261 CURVE",
"17 35 LINE",
"79 6 OFFCURVE",
"201 -13 OFFCURVE",
"323 -13 CURVE SMOOTH",
"585 -13 OFFCURVE",
"654 53 OFFCURVE",
"654 144 CURVE SMOOTH",
"654 236 OFFCURVE",
"596 276 OFFCURVE",
"474 290 CURVE SMOOTH",
"396 299 LINE SMOOTH",
"367 302 OFFCURVE",
"347 305 OFFCURVE",
"347 320 CURVE SMOOTH",
"347 333 OFFCURVE",
"357 342 OFFCURVE",
"411 342 CURVE SMOOTH",
"487 342 OFFCURVE",
"587 324 OFFCURVE",
"640 299 CURVE",
"640 521 LINE",
"587 555 OFFCURVE",
"466 578 OFFCURVE",
"339 578 CURVE SMOOTH",
"139 578 OFFCURVE",
"5 516 OFFCURVE",
"5 405 CURVE SMOOTH"
);
}
);
width = 659;
},
{
anchors = (
{
name = bottom;
position = "{378, 0}";
},
{
name = top;
position = "{378, 565}";
}
);
layerId = "3B426CF6-0C00-48CC-B0F4-6E2C4CD07FAD";
paths = (
{
closed = 1;
nodes = (
"5 325 OFFCURVE",
"56 280 OFFCURVE",
"219 268 CURVE SMOOTH",
"317 261 LINE SMOOTH",
"329 260 OFFCURVE",
"358 257 OFFCURVE",
"358 240 CURVE SMOOTH",
"358 222 OFFCURVE",
"328 220 OFFCURVE",
"295 220 CURVE SMOOTH",
"202 220 OFFCURVE",
"95 236 OFFCURVE",
"18 261 CURVE",
"18 45 LINE",
"87 10 OFFCURVE",
"234 -13 OFFCURVE",
"383 -13 CURVE SMOOTH",
"618 -13 OFFCURVE",
"750 32 OFFCURVE",
"750 148 CURVE SMOOTH",
"750 227 OFFCURVE",
"714 274 OFFCURVE",
"547 290 CURVE SMOOTH",
"454 299 LINE SMOOTH",
"420 302 OFFCURVE",
"397 306 OFFCURVE",
"397 322 CURVE SMOOTH",
"397 333 OFFCURVE",
"409 342 OFFCURVE",
"471 342 CURVE SMOOTH",
"558 342 OFFCURVE",
"680 323 OFFCURVE",
"737 298 CURVE",
"737 511 LINE",
"668 551 OFFCURVE",
"524 578 OFFCURVE",
"377 578 CURVE SMOOTH",
"154 578 OFFCURVE",
"5 521 OFFCURVE",
"5 398 CURVE SMOOTH"
);
}
);
width = 755;
}
);
leftKerningGroup = s;
rightKerningGroup = s;
},
{
glyphname = w_w_w.dlig;
lastChange = "2020-05-30 15:41:07 +0000";
layers = (
{
layerId = "898421D1-ED89-4F9A-874F-2D62076340E9";
paths = (
{
closed = 1;
nodes = (
"106 0 LINE",
"476 0 LINE",
"493 260 LINE",
"504 260 LINE",
"521 0 LINE",
"857 0 LINE",
"872 280 LINE",
"882 280 LINE",
"897 0 LINE",
"1212 0 LINE",
"1229 260 LINE",
"1239 260 LINE",
"1257 0 LINE",
"1575 0 LINE",
"1590 280 LINE",
"1598 280 LINE",
"1615 0 LINE",
"1948 0 LINE",
"1965 260 LINE",
"1975 260 LINE",
"1993 0 LINE",
"2365 0 LINE",
"2461 565 LINE",
"2158 565 LINE",
"2144 206 LINE",
"2134 206 LINE",
"2091 555 LINE",
"1852 555 LINE",
"1809 206 LINE",
"1798 206 LINE",
"1785 565 LINE",
"1422 565 LINE",
"1408 206 LINE",
"1398 206 LINE",
"1355 555 LINE",
"1116 555 LINE",
"1073 206 LINE",
"1062 206 LINE",
"1050 565 LINE",
"686 565 LINE",
"672 206 LINE",
"662 206 LINE",
"619 555 LINE",
"380 555 LINE",
"337 206 LINE",
"326 206 LINE",
"314 565 LINE",
"10 565 LINE"
);
}
);
width = 2471;
},
{
layerId = "3B426CF6-0C00-48CC-B0F4-6E2C4CD07FAD";
paths = (
{
closed = 1;
nodes = (
"115 0 LINE",
"520 0 LINE",
"538 260 LINE",
"550 260 LINE",
"569 0 LINE",
"936 0 LINE",
"953 280 LINE",
"963 280 LINE",
"980 0 LINE",
"1325 0 LINE",
"1343 260 LINE",
"1355 260 LINE",
"1374 0 LINE",
"1721 0 LINE",
"1738 280 LINE",
"1748 280 LINE",
"1765 0 LINE",
"2130 0 LINE",
"2148 260 LINE",
"2160 260 LINE",
"2179 0 LINE",
"2586 0 LINE",
"2691 565 LINE",
"2359 565 LINE",
"2345 206 LINE",
"2333 206 LINE",
"2286 555 LINE",
"2025 555 LINE",
"1978 206 LINE",
"1966 206 LINE",
"1952 565 LINE",
"1554 565 LINE",
"1540 206 LINE",
"1528 206 LINE",
"1481 555 LINE",
"1220 555 LINE",
"1173 206 LINE",
"1161 206 LINE",
"1147 565 LINE",
"749 565 LINE",
"735 206 LINE",
"723 206 LINE",
"676 555 LINE",
"415 555 LINE",
"368 206 LINE",
"356 206 LINE",
"342 565 LINE",
"10 565 LINE"
);
}
);
width = 2701;
}
);
leftKerningGroup = w;
leftMetricsKey = w;
rightKerningGroup = w;
rightMetricsKey = w;
},
{
glyphname = f_f.liga;
lastChange = "2020-06-11 11:42:42 +0000";
layers = (
{
layerId = "898421D1-ED89-4F9A-874F-2D62076340E9";
paths = (
{
closed = 1;
nodes = (
"101 259 LINE",
"101 0 LINE",
"421 0 LINE",
"421 259 LINE",
"565 259 LINE",
"565 0 LINE",
"885 0 LINE",
"885 259 LINE",
"1020 259 LINE",
"1020 494 LINE",
"885 494 LINE",
"885 522 OFFCURVE",
"905 540 OFFCURVE",
"957 540 CURVE SMOOTH",
"980 540 OFFCURVE",
"1005 536 OFFCURVE",
"1020 530 CURVE",
"1020 705 LINE",
"989 723 OFFCURVE",
"909 737 OFFCURVE",
"839 737 CURVE SMOOTH",
"679 737 OFFCURVE",
"565 668 OFFCURVE",
"565 515 CURVE SMOOTH",
"565 494 LINE",
"421 494 LINE",
"421 522 OFFCURVE",
"438 540 OFFCURVE",
"483 540 CURVE SMOOTH",
"502 540 OFFCURVE",
"523 536 OFFCURVE",
"536 530 CURVE",
"536 705 LINE",
"507 723 OFFCURVE",
"437 737 OFFCURVE",
"375 737 CURVE SMOOTH",
"215 737 OFFCURVE",
"101 668 OFFCURVE",
"101 515 CURVE SMOOTH",
"101 494 LINE",
"15 494 LINE",
"15 259 LINE"
);
}
);
width = 1035;
},
{
layerId = "3B426CF6-0C00-48CC-B0F4-6E2C4CD07FAD";
paths = (
{
closed = 1;
nodes = (
"109 259 LINE",
"109 0 LINE",
"457 0 LINE",
"457 259 LINE",
"615 259 LINE",
"615 0 LINE",
"963 0 LINE",
"963 259 LINE",
"1110 259 LINE",
"1110 494 LINE",
"963 494 LINE",
"963 522 OFFCURVE",
"985 540 OFFCURVE",
"1041 540 CURVE SMOOTH",
"1065 540 OFFCURVE",
"1094 536 OFFCURVE",
"1110 530 CURVE",
"1110 705 LINE",
"1076 723 OFFCURVE",
"989 737 OFFCURVE",
"913 737 CURVE SMOOTH",
"739 737 OFFCURVE",
"615 668 OFFCURVE",
"615 515 CURVE SMOOTH",
"615 494 LINE",
"457 494 LINE",
"457 522 OFFCURVE",
"476 540 OFFCURVE",
"525 540 CURVE SMOOTH",
"546 540 OFFCURVE",
"570 536 OFFCURVE",
"584 530 CURVE",
"584 705 LINE",
"552 723 OFFCURVE",
"475 737 OFFCURVE",
"407 737 CURVE SMOOTH",
"233 737 OFFCURVE",
"109 668 OFFCURVE",
"109 515 CURVE SMOOTH",
"109 494 LINE",
"15 494 LINE",
"15 259 LINE"
);
}
);
width = 1125;
}
);
leftKerningGroup = f;
leftMetricsKey = f;
rightKerningGroup = f;
rightMetricsKey = f;
},
{
glyphname = g_j.liga;
lastChange = "2020-05-30 09:04:08 +0000";
layers = (
{
anchors = (
{
name = bottom;
position = "{409, -260}";
},
{
name = top;
position = "{409, 565}";
}
);
layerId = "898421D1-ED89-4F9A-874F-2D62076340E9";
paths = (
{
closed = 1;
nodes = (
"10 116 OFFCURVE",
"105 9 OFFCURVE",
"247 9 CURVE SMOOTH",
"384 9 OFFCURVE",
"456 107 OFFCURVE",
"467 243 CURVE",
"478 243 LINE",
"478 208 LINE SMOOTH",
"478 89 OFFCURVE",
"420 -27 OFFCURVE",
"241 -27 CURVE SMOOTH",
"183 -27 OFFCURVE",
"116 -14 OFFCURVE",
"71 10 CURVE",
"71 -213 LINE",
"113 -248 OFFCURVE",
"217 -271 OFFCURVE",
"331 -271 CURVE SMOOTH",
"576 -271 OFFCURVE",
"798 -151 OFFCURVE",
"798 177 CURVE SMOOTH",
"798 565 LINE",
"498 565 LINE",
"478 351 LINE",
"467 351 LINE",
"455 497 OFFCURVE",
"370 578 OFFCURVE",
"246 578 CURVE SMOOTH",
"100 578 OFFCURVE",
"10 467 OFFCURVE",
"10 294 CURVE SMOOTH"
);
},
{
closed = 1;
nodes = (
"360 327 OFFCURVE",
"378 344 OFFCURVE",
"404 344 CURVE SMOOTH",
"432 344 OFFCURVE",
"448 325 OFFCURVE",
"448 297 CURVE SMOOTH",
"448 267 OFFCURVE",
"430 250 OFFCURVE",
"404 250 CURVE SMOOTH",
"376 250 OFFCURVE",
"360 269 OFFCURVE",
"360 297 CURVE SMOOTH"
);
},
{
closed = 1;
nodes = (
"1117 454 OFFCURVE",
"1163 511 OFFCURVE",
"1163 596 CURVE SMOOTH",
"1163 698 OFFCURVE",
"1097 737 OFFCURVE",
"998 737 CURVE SMOOTH",
"879 737 OFFCURVE",
"833 681 OFFCURVE",
"833 596 CURVE SMOOTH",
"833 494 OFFCURVE",
"899 454 OFFCURVE",
"998 454 CURVE SMOOTH"
);
},
{
closed = 1;
nodes = (
"985 -253 OFFCURVE",
"1158 -178 OFFCURVE",
"1158 59 CURVE SMOOTH",
"1158 478 LINE",
"1124 442 OFFCURVE",
"1064 425 OFFCURVE",
"998 425 CURVE SMOOTH",
"924 425 OFFCURVE",
"866 448 OFFCURVE",
"838 478 CURVE",
"838 182 LINE SMOOTH",
"838 10 OFFCURVE",
"790 -110 OFFCURVE",
"718 -176 CURVE",
"783 -297 LINE"
);
}
);
width = 1176;
},
{
anchors = (
{
name = bottom;
position = "{455, -260}";
},
{
name = top;
position = "{455, 565}";
}
);
layerId = "3B426CF6-0C00-48CC-B0F4-6E2C4CD07FAD";
paths = (
{
closed = 1;
nodes = (
"10 116 OFFCURVE",
"116 9 OFFCURVE",
"274 9 CURVE SMOOTH",
"426 9 OFFCURVE",
"507 107 OFFCURVE",
"519 243 CURVE",
"531 243 LINE",
"531 208 LINE SMOOTH",
"531 89 OFFCURVE",
"466 -27 OFFCURVE",
"267 -27 CURVE SMOOTH",
"202 -27 OFFCURVE",
"127 -14 OFFCURVE",
"77 10 CURVE",
"77 -213 LINE",
"124 -243 OFFCURVE",
"235 -271 OFFCURVE",
"354 -271 CURVE SMOOTH",
"657 -271 OFFCURVE",
"905 -151 OFFCURVE",
"905 177 CURVE SMOOTH",
"905 565 LINE",
"554 565 LINE",
"531 351 LINE",
"519 351 LINE",
"506 497 OFFCURVE",
"410 578 OFFCURVE",
"273 578 CURVE SMOOTH",
"111 578 OFFCURVE",
"10 467 OFFCURVE",
"10 294 CURVE SMOOTH"
);
},
{
closed = 1;
nodes = (
"400 327 OFFCURVE",
"420 344 OFFCURVE",
"449 344 CURVE SMOOTH",
"480 344 OFFCURVE",
"498 325 OFFCURVE",
"498 297 CURVE SMOOTH",
"498 267 OFFCURVE",
"478 250 OFFCURVE",
"449 250 CURVE SMOOTH",
"418 250 OFFCURVE",
"400 269 OFFCURVE",
"400 297 CURVE SMOOTH"
);
},
{
closed = 1;
nodes = (
"1254 454 OFFCURVE",
"1323 510 OFFCURVE",
"1323 596 CURVE SMOOTH",
"1323 686 OFFCURVE",
"1246 737 OFFCURVE",
"1129 737 CURVE SMOOTH",
"1008 737 OFFCURVE",
"939 681 OFFCURVE",
"939 596 CURVE SMOOTH",
"939 505 OFFCURVE",
"1017 454 OFFCURVE",
"1131 454 CURVE SMOOTH"
);
},
{
closed = 1;
nodes = (
"1191 -249 OFFCURVE",
"1318 -170 OFFCURVE",
"1318 59 CURVE SMOOTH",
"1318 480 LINE",
"1279 445 OFFCURVE",
"1208 427 OFFCURVE",
"1131 427 CURVE SMOOTH",
"1044 427 OFFCURVE",
"976 450 OFFCURVE",
"944 480 CURVE",
"944 171 LINE SMOOTH",
"944 16 OFFCURVE",
"909 -72 OFFCURVE",
"827 -157 CURVE",
"902 -299 LINE"
);
}
);
width = 1337;
}
);
leftMetricsKey = g;
rightMetricsKey = j;
},
{
glyphname = j_j.liga;
lastChange = "2020-06-11 11:28:16 +0000";
layers = (
{
layerId = "898421D1-ED89-4F9A-874F-2D62076340E9";
paths = (
{
closed = 1;
nodes = (
"703 -218 OFFCURVE",
"764 -147 OFFCURVE",
"764 31 CURVE SMOOTH",
"764 479 LINE",
"731 444 OFFCURVE",
"671 427 OFFCURVE",
"604 427 CURVE SMOOTH",
"530 427 OFFCURVE",
"471 452 OFFCURVE",
"444 479 CURVE",
"444 65 LINE SMOOTH",
"444 -75 OFFCURVE",
"432 -134 OFFCURVE",
"400 -179 CURVE",
"509 -276 LINE"
);
},
{
closed = 1;
nodes = (
"369 454 OFFCURVE",
"416 511 OFFCURVE",
"416 596 CURVE SMOOTH",
"416 698 OFFCURVE",
"349 737 OFFCURVE",
"248 737 CURVE SMOOTH",
"131 737 OFFCURVE",
"86 681 OFFCURVE",
"86 596 CURVE SMOOTH",
"86 494 OFFCURVE",
"151 454 OFFCURVE",
"248 454 CURVE SMOOTH"
);
},
{
closed = 1;
nodes = (
"-20 -264 OFFCURVE",
"39 -273 OFFCURVE",
"102 -273 CURVE SMOOTH",
"283 -273 OFFCURVE",
"411 -192 OFFCURVE",
"411 17 CURVE SMOOTH",
"411 480 LINE",
"378 445 OFFCURVE",
"318 427 OFFCURVE",
"248 427 CURVE SMOOTH",
"179 427 OFFCURVE",
"120 449 OFFCURVE",
"91 480 CURVE",
"91 38 LINE SMOOTH",
"91 -24 OFFCURVE",
"68 -54 OFFCURVE",
"7 -54 CURVE SMOOTH",
"-12 -54 OFFCURVE",
"-32 -50 OFFCURVE",
"-44 -45 CURVE",
"-44 -251 LINE"
);
},
{
closed = 1;
nodes = (
"724 454 OFFCURVE",
"769 511 OFFCURVE",
"769 596 CURVE SMOOTH",
"769 698 OFFCURVE",
"704 737 OFFCURVE",
"607 737 CURVE SMOOTH",
"486 737 OFFCURVE",
"439 681 OFFCURVE",
"439 596 CURVE SMOOTH",
"439 494 OFFCURVE",
"506 454 OFFCURVE",
"607 454 CURVE SMOOTH"
);
}
);
width = 782;
},
{
layerId = "3B426CF6-0C00-48CC-B0F4-6E2C4CD07FAD";
paths = (
{
closed = 1;
nodes = (
"818 -232 OFFCURVE",
"890 -150 OFFCURVE",
"890 59 CURVE SMOOTH",
"890 480 LINE",
"851 445 OFFCURVE",
"780 427 OFFCURVE",
"703 427 CURVE SMOOTH",
"616 427 OFFCURVE",
"548 450 OFFCURVE",
"516 480 CURVE",
"516 98 LINE SMOOTH",
"516 -65 OFFCURVE",
"502 -134 OFFCURVE",
"464 -186 CURVE",
"591 -300 LINE"
);
},
{
closed = 1;
nodes = (
"411 454 OFFCURVE",
"480 510 OFFCURVE",
"480 596 CURVE SMOOTH",
"480 686 OFFCURVE",
"402 737 OFFCURVE",
"285 737 CURVE SMOOTH",
"165 737 OFFCURVE",
"96 681 OFFCURVE",
"96 596 CURVE SMOOTH",
"96 505 OFFCURVE",
"173 454 OFFCURVE",
"285 454 CURVE SMOOTH"
);
},
{
closed = 1;
nodes = (
"-23 -263 OFFCURVE",
"50 -273 OFFCURVE",
"122 -273 CURVE SMOOTH",
"308 -273 OFFCURVE",
"475 -216 OFFCURVE",
"475 0 CURVE SMOOTH",
"475 480 LINE",
"436 445 OFFCURVE",
"365 427 OFFCURVE",
"288 427 CURVE SMOOTH",
"201 427 OFFCURVE",
"133 450 OFFCURVE",
"101 480 CURVE",
"101 64 LINE SMOOTH",
"101 6 OFFCURVE",
"101 -53 OFFCURVE",
"1 -53 CURVE SMOOTH",
"-18 -53 OFFCURVE",
"-41 -50 OFFCURVE",
"-55 -45 CURVE",
"-55 -248 LINE"
);
},
{
closed = 1;
nodes = (
"826 454 OFFCURVE",
"895 510 OFFCURVE",
"895 596 CURVE SMOOTH",
"895 686 OFFCURVE",
"818 737 OFFCURVE",
"706 737 CURVE SMOOTH",
"579 737 OFFCURVE",
"509 681 OFFCURVE",
"509 596 CURVE SMOOTH",
"509 505 OFFCURVE",
"588 454 OFFCURVE",
"706 454 CURVE SMOOTH"
);
}
);
width = 909;
}
);
leftMetricsKey = j;
rightMetricsKey = j;
},
{
glyphname = m_m.liga;
lastChange = "2020-05-27 19:41:15 +0000";
layers = (
{
layerId = "898421D1-ED89-4F9A-874F-2D62076340E9";
paths = (
{
closed = 1;
nodes = (
"340 0 LINE",
"340 262 LINE SMOOTH",
"340 298 OFFCURVE",
"350 322 OFFCURVE",
"378 322 CURVE SMOOTH",
"400 322 OFFCURVE",
"416 308 OFFCURVE",
"416 262 CURVE SMOOTH",
"416 0 LINE",
"736 0 LINE",
"736 262 LINE SMOOTH",
"736 298 OFFCURVE",
"746 322 OFFCURVE",
"774 322 CURVE SMOOTH",
"796 322 OFFCURVE",
"812 308 OFFCURVE",
"812 262 CURVE SMOOTH",
"812 0 LINE",
"1132 0 LINE",
"1132 262 LINE SMOOTH",
"1132 298 OFFCURVE",
"1142 322 OFFCURVE",
"1170 322 CURVE SMOOTH",
"1192 322 OFFCURVE",
"1208 308 OFFCURVE",
"1208 262 CURVE SMOOTH",
"1208 0 LINE",
"1528 0 LINE",
"1528 262 LINE SMOOTH",
"1528 298 OFFCURVE",
"1538 322 OFFCURVE",
"1566 322 CURVE SMOOTH",
"1588 322 OFFCURVE",
"1604 308 OFFCURVE",
"1604 262 CURVE SMOOTH",
"1604 0 LINE",
"1924 0 LINE",
"1924 361 LINE SMOOTH",
"1924 491 OFFCURVE",
"1873 578 OFFCURVE",
"1743 578 CURVE SMOOTH",
"1634 578 OFFCURVE",
"1558 509 OFFCURVE",
"1539 332 CURVE",
"1528 332 LINE",
"1528 361 LINE SMOOTH",
"1528 491 OFFCURVE",
"1477 578 OFFCURVE",
"1347 578 CURVE SMOOTH",
"1238 578 OFFCURVE",
"1162 509 OFFCURVE",
"1143 332 CURVE",
"1132 332 LINE",
"1132 361 LINE SMOOTH",
"1132 491 OFFCURVE",
"1081 578 OFFCURVE",
"951 578 CURVE SMOOTH",
"842 578 OFFCURVE",
"766 509 OFFCURVE",
"747 332 CURVE",
"736 332 LINE",
"736 361 LINE SMOOTH",
"736 491 OFFCURVE",
"685 578 OFFCURVE",
"555 578 CURVE SMOOTH",
"446 578 OFFCURVE",
"370 509 OFFCURVE",
"351 332 CURVE",
"340 332 LINE",
"320 565 LINE",
"20 565 LINE",
"20 0 LINE"
);
}
);
width = 1944;
},
{
layerId = "3B426CF6-0C00-48CC-B0F4-6E2C4CD07FAD";
paths = (
{
closed = 1;
nodes = (
"394 0 LINE",
"394 262 LINE SMOOTH",
"394 298 OFFCURVE",
"405 322 OFFCURVE",
"439 322 CURVE SMOOTH",
"466 322 OFFCURVE",
"484 308 OFFCURVE",
"484 262 CURVE SMOOTH",
"484 0 LINE",
"858 0 LINE",
"858 262 LINE SMOOTH",
"858 298 OFFCURVE",
"869 322 OFFCURVE",
"903 322 CURVE SMOOTH",
"930 322 OFFCURVE",
"948 308 OFFCURVE",
"948 262 CURVE SMOOTH",
"948 0 LINE",
"1322 0 LINE",
"1322 262 LINE SMOOTH",
"1322 298 OFFCURVE",
"1333 322 OFFCURVE",
"1367 322 CURVE SMOOTH",
"1394 322 OFFCURVE",
"1412 308 OFFCURVE",
"1412 262 CURVE SMOOTH",
"1412 0 LINE",
"1786 0 LINE",
"1786 262 LINE SMOOTH",
"1786 298 OFFCURVE",
"1797 322 OFFCURVE",
"1831 322 CURVE SMOOTH",
"1858 322 OFFCURVE",
"1876 308 OFFCURVE",
"1876 262 CURVE SMOOTH",
"1876 0 LINE",
"2250 0 LINE",
"2250 351 LINE SMOOTH",
"2250 491 OFFCURVE",
"2185 578 OFFCURVE",
"2032 578 CURVE SMOOTH",
"1910 578 OFFCURVE",
"1820 509 OFFCURVE",
"1798 332 CURVE",
"1786 332 LINE",
"1786 351 LINE SMOOTH",
"1786 491 OFFCURVE",
"1721 578 OFFCURVE",
"1568 578 CURVE SMOOTH",
"1446 578 OFFCURVE",
"1356 509 OFFCURVE",
"1334 332 CURVE",
"1322 332 LINE",
"1322 351 LINE SMOOTH",
"1322 491 OFFCURVE",
"1257 578 OFFCURVE",
"1104 578 CURVE SMOOTH",
"982 578 OFFCURVE",
"892 509 OFFCURVE",
"870 332 CURVE",
"858 332 LINE",
"858 351 LINE SMOOTH",
"858 491 OFFCURVE",
"793 578 OFFCURVE",
"640 578 CURVE SMOOTH",
"518 578 OFFCURVE",
"428 509 OFFCURVE",
"406 332 CURVE",
"394 332 LINE",
"372 565 LINE",
"20 565 LINE",
"20 0 LINE"
);
}
);
width = 2270;
}
);
leftKerningGroup = n;
leftMetricsKey = m;
rightKerningGroup = n;
rightMetricsKey = m;
},
{
glyphname = ordfeminine;
lastChange = "2020-06-11 12:09:50 +0000";
layers = (
{
layerId = "898421D1-ED89-4F9A-874F-2D62076340E9";
paths = (
{
closed = 1;
nodes = (
"15 303 OFFCURVE",
"62 261 OFFCURVE",
"147 261 CURVE SMOOTH",
"238 261 OFFCURVE",
"299 306 OFFCURVE",
"300 386 CURVE",
"307 386 LINE",
"320 270 LINE",
"543 270 LINE",
"543 459 LINE SMOOTH",
"543 632 OFFCURVE",
"426 698 OFFCURVE",
"250 698 CURVE SMOOTH",
"155 698 OFFCURVE",
"69 676 OFFCURVE",
"21 644 CURVE",
"21 461 LINE",
"46 490 OFFCURVE",
"107 510 OFFCURVE",
"172 510 CURVE SMOOTH",
"247 510 OFFCURVE",
"294 481 OFFCURVE",
"303 429 CURVE",
"295 429 LINE",
"275 463 OFFCURVE",
"226 486 OFFCURVE",
"166 486 CURVE SMOOTH",
"75 486 OFFCURVE",
"15 443 OFFCURVE",
"15 366 CURVE SMOOTH"
);
},
{
closed = 1;
nodes = (
"228 418 OFFCURVE",
"240 430 OFFCURVE",
"258 430 CURVE SMOOTH",
"275 430 OFFCURVE",
"287 418 OFFCURVE",
"287 400 CURVE SMOOTH",
"287 381 OFFCURVE",
"275 370 OFFCURVE",
"258 370 CURVE SMOOTH",
"240 370 OFFCURVE",
"228 381 OFFCURVE",
"228 400 CURVE SMOOTH"
);
}
);
width = 563;
},
{
layerId = "3B426CF6-0C00-48CC-B0F4-6E2C4CD07FAD";
paths = (
{
closed = 1;
nodes = (
"15 303 OFFCURVE",
"69 261 OFFCURVE",
"165 261 CURVE SMOOTH",
"266 261 OFFCURVE",
"335 306 OFFCURVE",
"337 386 CURVE",
"345 386 LINE",
"360 270 LINE",
"611 270 LINE",
"611 443 LINE SMOOTH",
"611 567 OFFCURVE",
"563 698 OFFCURVE",
"277 698 CURVE SMOOTH",
"174 698 OFFCURVE",
"72 673 OFFCURVE",
"22 635 CURVE",
"22 461 LINE",
"50 490 OFFCURVE",
"121 510 OFFCURVE",
"193 510 CURVE SMOOTH",
"274 510 OFFCURVE",
"329 482 OFFCURVE",
"340 429 CURVE",
"332 429 LINE",
"308 463 OFFCURVE",
"254 486 OFFCURVE",
"186 486 CURVE SMOOTH",
"84 486 OFFCURVE",
"15 443 OFFCURVE",
"15 366 CURVE SMOOTH"
);
},
{
closed = 1;
nodes = (
"255 418 OFFCURVE",
"269 430 OFFCURVE",
"289 430 CURVE SMOOTH",
"309 430 OFFCURVE",
"322 418 OFFCURVE",
"322 400 CURVE SMOOTH",
"322 381 OFFCURVE",
"309 370 OFFCURVE",
"289 370 CURVE SMOOTH",
"269 370 OFFCURVE",
"255 381 OFFCURVE",
"255 400 CURVE SMOOTH"
);
}
);
width = 640;
}
);
unicode = 00AA;
},
{
glyphname = ordmasculine;
lastChange = "2020-06-11 11:33:00 +0000";
layers = (
{
layerId = "898421D1-ED89-4F9A-874F-2D62076340E9";
paths = (
{
closed = 1;
nodes = (
"445 261 OFFCURVE",
"539 348 OFFCURVE",
"539 480 CURVE SMOOTH",
"539 619 OFFCURVE",
"434 698 OFFCURVE",
"277 698 CURVE SMOOTH",
"109 698 OFFCURVE",
"15 611 OFFCURVE",
"15 480 CURVE SMOOTH",
"15 340 OFFCURVE",
"120 261 OFFCURVE",
"277 261 CURVE SMOOTH"
);
},
{
closed = 1;
nodes = (
"237 505 OFFCURVE",
"252 523 OFFCURVE",
"277 523 CURVE SMOOTH",
"301 523 OFFCURVE",
"317 507 OFFCURVE",
"317 480 CURVE SMOOTH",
"317 454 OFFCURVE",
"302 437 OFFCURVE",
"277 437 CURVE SMOOTH",
"253 437 OFFCURVE",
"237 452 OFFCURVE",
"237 480 CURVE SMOOTH"
);
}
);
width = 554;
},
{
layerId = "3B426CF6-0C00-48CC-B0F4-6E2C4CD07FAD";
paths = (
{
closed = 1;
nodes = (
"500 261 OFFCURVE",
"607 348 OFFCURVE",
"607 480 CURVE SMOOTH",
"607 619 OFFCURVE",
"487 698 OFFCURVE",
"311 698 CURVE SMOOTH",
"122 698 OFFCURVE",
"15 611 OFFCURVE",
"15 480 CURVE SMOOTH",
"15 340 OFFCURVE",
"135 261 OFFCURVE",
"311 261 CURVE SMOOTH"
);
},
{
closed = 1;
nodes = (
"266 505 OFFCURVE",
"283 523 OFFCURVE",
"311 523 CURVE SMOOTH",
"338 523 OFFCURVE",
"356 507 OFFCURVE",
"356 480 CURVE SMOOTH",
"356 454 OFFCURVE",
"339 437 OFFCURVE",
"311 437 CURVE SMOOTH",
"284 437 OFFCURVE",
"266 452 OFFCURVE",
"266 480 CURVE SMOOTH"
);
}
);
width = 622;
}
);
unicode = 00BA;
},
{
glyphname = mu;
lastChange = "2020-05-28 20:21:35 +0000";
layers = (
{
anchors = (
{
name = bottom;
position = "{380, 0}";
},
{
name = ogonek;
position = "{684, 10}";
},
{
name = top;
position = "{380, 565}";
},
{
name = topright;
position = "{740, 565}";
}
);
layerId = "898421D1-ED89-4F9A-874F-2D62076340E9";
paths = (
{
closed = 1;
nodes = (
"310 -176 LINE",
"310 -9 LINE",
"370 21 OFFCURVE",
"407 111 OFFCURVE",
"409 170 CURVE",
"421 170 LINE",
"421 0 LINE",
"741 0 LINE",
"741 565 LINE",
"421 565 LINE",
"420 270 LINE SMOOTH",
"420 234 OFFCURVE",
"410 210 OFFCURVE",
"380 210 CURVE SMOOTH",
"356 210 OFFCURVE",
"340 224 OFFCURVE",
"340 270 CURVE SMOOTH",
"340 565 LINE",
"20 565 LINE",
"20 -176 LINE"
);
}
);
width = 761;
},
{
anchors = (
{
name = bottom;
position = "{425, 0}";
},
{
name = ogonek;
position = "{767, 10}";
},
{
name = top;
position = "{425, 565}";
},
{
name = topright;
position = "{830, 565}";
}
);
layerId = "3B426CF6-0C00-48CC-B0F4-6E2C4CD07FAD";
paths = (
{
closed = 1;
nodes = (
"346 -176 LINE",
"346 -12 LINE",
"414 18 OFFCURVE",
"455 109 OFFCURVE",
"458 167 CURVE",
"471 167 LINE",
"471 0 LINE",
"831 0 LINE",
"831 565 LINE",
"471 565 LINE",
"470 267 LINE SMOOTH",
"470 230 OFFCURVE",
"458 207 OFFCURVE",
"425 207 CURVE SMOOTH",
"394 207 OFFCURVE",
"380 226 OFFCURVE",
"380 267 CURVE SMOOTH",
"380 565 LINE",
"20 565 LINE",
"20 -176 LINE"
);
}
);
width = 851;
}
);
unicode = 03BC;
},
{
glyphname = zero;
lastChange = "2020-05-30 09:54:18 +0000";
layers = (
{
layerId = "898421D1-ED89-4F9A-874F-2D62076340E9";
paths = (
{
closed = 1;
nodes = (
"265 262 LINE",
"527 384 LINE",
"519 430 LINE",
"257 308 LINE"
);
},
{
closed = 1;
nodes = (
"10 132 OFFCURVE",
"141 -10 OFFCURVE",
"392 -10 CURVE SMOOTH",
"629 -10 OFFCURVE",
"774 118 OFFCURVE",
"774 346 CURVE SMOOTH",
"774 560 OFFCURVE",
"643 702 OFFCURVE",
"392 702 CURVE SMOOTH",
"155 702 OFFCURVE",
"10 574 OFFCURVE",
"10 346 CURVE SMOOTH"
);
},
{
closed = 1;
nodes = (
"341 415 OFFCURVE",
"362 441 OFFCURVE",
"392 441 CURVE SMOOTH",
"429 441 OFFCURVE",
"443 403 OFFCURVE",
"443 346 CURVE SMOOTH",
"443 277 OFFCURVE",
"422 251 OFFCURVE",
"392 251 CURVE SMOOTH",
"355 251 OFFCURVE",
"341 289 OFFCURVE",
"341 346 CURVE SMOOTH"
);
}
);
width = 784;
},
{
layerId = "3B426CF6-0C00-48CC-B0F4-6E2C4CD07FAD";
paths = (
{
closed = 1;
nodes = (
"295 262 LINE",
"588 384 LINE",
"579 430 LINE",
"286 308 LINE"
);
},
{
closed = 1;
nodes = (
"10 132 OFFCURVE",
"157 -10 OFFCURVE",
"437 -10 CURVE SMOOTH",
"701 -10 OFFCURVE",
"864 118 OFFCURVE",
"864 346 CURVE SMOOTH",
"864 560 OFFCURVE",
"717 702 OFFCURVE",
"437 702 CURVE SMOOTH",
"173 702 OFFCURVE",
"10 574 OFFCURVE",
"10 346 CURVE SMOOTH"
);
},
{
closed = 1;
nodes = (
"380 415 OFFCURVE",
"404 441 OFFCURVE",
"437 441 CURVE SMOOTH",
"478 441 OFFCURVE",
"494 403 OFFCURVE",
"494 346 CURVE SMOOTH",
"494 277 OFFCURVE",
"470 251 OFFCURVE",
"437 251 CURVE SMOOTH",
"396 251 OFFCURVE",
"380 289 OFFCURVE",
"380 346 CURVE SMOOTH"
);
}
);
width = 874;
}
);
unicode = 0030;
},
{
glyphname = one;
lastChange = "2022-01-11 11:51:48 +0000";
layers = (
{
layerId = "898421D1-ED89-4F9A-874F-2D62076340E9";
paths = (
{
closed = 1;
nodes = (
"70 345 OFFCURVE",
"124 372 OFFCURVE",
"151 398 CURVE",
"151 0 LINE",
"471 0 LINE",
"471 690 LINE",
"296 690 LINE",
"15 588 LINE",
"15 331 LINE"
);
}
);
width = 491;
},
{
layerId = "3B426CF6-0C00-48CC-B0F4-6E2C4CD07FAD";
paths = (
{
closed = 1;
nodes = (
"81 345 OFFCURVE",
"146 372 OFFCURVE",
"178 398 CURVE",
"178 0 LINE",
"552 0 LINE",
"552 690 LINE",
"351 690 LINE",
"15 588 LINE",
"15 331 LINE"
);
}
);
width = 572;
}
);
leftKerningGroup = one;
unicode = 0031;
},
{
glyphname = two;
lastChange = "2020-05-27 17:44:14 +0000";
layers = (
{
layerId = "898421D1-ED89-4F9A-874F-2D62076340E9";
paths = (
{
closed = 1;
nodes = (
"668 0 LINE",
"668 232 LINE",
"625 232 LINE SMOOTH",
"572 232 OFFCURVE",
"489 227 OFFCURVE",
"402 219 CURVE",
"576 262 OFFCURVE",
"658 324 OFFCURVE",
"658 460 CURVE SMOOTH",
"658 616 OFFCURVE",
"535 703 OFFCURVE",
"315 703 CURVE SMOOTH",
"194 703 OFFCURVE",
"76 677 OFFCURVE",
"20 637 CURVE",
"20 383 LINE",
"83 409 OFFCURVE",
"165 427 OFFCURVE",
"228 427 CURVE SMOOTH",
"290 427 OFFCURVE",
"323 408 OFFCURVE",
"323 369 CURVE SMOOTH",
"323 288 OFFCURVE",
"183 248 OFFCURVE",
"20 200 CURVE",
"20 0 LINE"
);
}
);
width = 688;
},
{
layerId = "3B426CF6-0C00-48CC-B0F4-6E2C4CD07FAD";
paths = (
{
closed = 1;
nodes = (
"757 0 LINE",
"757 232 LINE",
"710 232 LINE SMOOTH",
"648 232 OFFCURVE",
"544 225 OFFCURVE",
"442 212 CURVE",
"632 256 OFFCURVE",
"748 291 OFFCURVE",
"748 460 CURVE SMOOTH",
"748 606 OFFCURVE",
"623 703 OFFCURVE",
"357 703 CURVE SMOOTH",
"219 703 OFFCURVE",
"84 677 OFFCURVE",
"20 637 CURVE",
"20 383 LINE",
"92 409 OFFCURVE",
"186 427 OFFCURVE",
"257 427 CURVE SMOOTH",
"328 427 OFFCURVE",
"366 408 OFFCURVE",
"366 369 CURVE SMOOTH",
"366 288 OFFCURVE",
"206 248 OFFCURVE",
"20 200 CURVE",
"20 0 LINE"
);
}
);
width = 777;
}
);
unicode = 0032;
},
{
glyphname = three;
lastChange = "2020-05-27 17:44:53 +0000";
layers = (
{
layerId = "898421D1-ED89-4F9A-874F-2D62076340E9";
paths = (
{
closed = 1;
nodes = (
"380 435 LINE",
"370 448 LINE",
"213 388 LINE",
"234 319 LINE",
"251 324 OFFCURVE",
"277 328 OFFCURVE",
"300 328 CURVE SMOOTH",
"329 328 OFFCURVE",
"349 322 OFFCURVE",
"349 302 CURVE SMOOTH",
"349 279 OFFCURVE",
"318 263 OFFCURVE",
"251 263 CURVE SMOOTH",
"180 263 OFFCURVE",
"95 279 OFFCURVE",
"29 307 CURVE",
"29 37 LINE",
"92 7 OFFCURVE",
"194 -13 OFFCURVE",
"299 -13 CURVE SMOOTH",
"544 -13 OFFCURVE",
"684 57 OFFCURVE",
"684 206 CURVE SMOOTH",
"684 342 OFFCURVE",
"580 402 OFFCURVE",
"421 376 CURVE",
"453 370 LINE",
"644 472 LINE",
"644 690 LINE",
"29 690 LINE",
"29 435 LINE"
);
}
);
width = 694;
},
{
layerId = "3B426CF6-0C00-48CC-B0F4-6E2C4CD07FAD";
paths = (
{
closed = 1;
nodes = (
"419 435 LINE",
"408 448 LINE",
"229 388 LINE",
"253 319 LINE",
"272 324 OFFCURVE",
"303 328 OFFCURVE",
"328 328 CURVE SMOOTH",
"361 328 OFFCURVE",
"384 322 OFFCURVE",
"384 302 CURVE SMOOTH",
"384 279 OFFCURVE",
"348 263 OFFCURVE",
"273 263 CURVE SMOOTH",
"192 263 OFFCURVE",
"95 279 OFFCURVE",
"20 307 CURVE",
"20 37 LINE",
"92 7 OFFCURVE",
"208 -13 OFFCURVE",
"327 -13 CURVE SMOOTH",
"605 -13 OFFCURVE",
"765 57 OFFCURVE",
"765 206 CURVE SMOOTH",
"765 341 OFFCURVE",
"647 402 OFFCURVE",
"466 376 CURVE",
"502 370 LINE",
"720 472 LINE",
"720 690 LINE",
"20 690 LINE",
"20 435 LINE"
);
}
);
width = 775;
}
);
rightKerningGroup = three;
unicode = 0033;
},
{
glyphname = four;
lastChange = "2020-05-27 17:45:38 +0000";
layers = (
{
layerId = "898421D1-ED89-4F9A-874F-2D62076340E9";
paths = (
{
closed = 1;
nodes = (
"338 108 LINE",
"338 0 LINE",
"658 0 LINE",
"658 108 LINE",
"733 108 LINE",
"733 335 LINE",
"658 335 LINE",
"658 690 LINE",
"312 690 LINE",
"194 558 OFFCURVE",
"77 403 OFFCURVE",
"20 305 CURVE",
"20 108 LINE"
);
},
{
closed = 1;
nodes = (
"289 363 OFFCURVE",
"344 433 OFFCURVE",
"381 492 CURVE",
"338 520 LINE",
"338 335 LINE",
"212 335 LINE",
"242 317 LINE"
);
}
);
width = 753;
},
{
layerId = "3B426CF6-0C00-48CC-B0F4-6E2C4CD07FAD";
paths = (
{
closed = 1;
nodes = (
"378 108 LINE",
"378 0 LINE",
"753 0 LINE",
"753 108 LINE",
"837 108 LINE",
"837 335 LINE",
"753 335 LINE",
"753 690 LINE",
"349 690 LINE",
"216 558 OFFCURVE",
"85 403 OFFCURVE",
"20 305 CURVE",
"20 108 LINE"
);
},
{
closed = 1;
nodes = (
"323 363 OFFCURVE",
"385 434 OFFCURVE",
"427 492 CURVE",
"378 520 LINE",
"378 335 LINE",
"236 335 LINE",
"270 317 LINE"
);
}
);
width = 847;
}
);
rightKerningGroup = four;
unicode = 0034;
},
{
glyphname = five;
lastChange = "2020-05-30 09:59:57 +0000";
layers = (
{
layerId = "898421D1-ED89-4F9A-874F-2D62076340E9";
paths = (
{
closed = 1;
nodes = (
"650 339 OFFCURVE",
"567 415 OFFCURVE",
"422 415 CURVE SMOOTH",
"372 415 OFFCURVE",
"323 406 OFFCURVE",
"292 393 CURVE",
"341 372 LINE",
"347 459 LINE",
"620 459 LINE",
"620 688 LINE",
"44 688 LINE",
"24 346 LINE",
"70 361 OFFCURVE",
"132 371 OFFCURVE",
"198 371 CURVE SMOOTH",
"279 371 OFFCURVE",
"315 355 OFFCURVE",
"315 320 CURVE SMOOTH",
"315 289 OFFCURVE",
"288 266 OFFCURVE",
"207 266 CURVE SMOOTH",
"140 266 OFFCURVE",
"66 282 OFFCURVE",
"15 310 CURVE",
"15 40 LINE",
"79 7 OFFCURVE",
"177 -10 OFFCURVE",
"279 -10 CURVE SMOOTH",
"494 -10 OFFCURVE",
"650 66 OFFCURVE",
"650 220 CURVE SMOOTH"
);
}
);
width = 660;
},
{
layerId = "3B426CF6-0C00-48CC-B0F4-6E2C4CD07FAD";
paths = (
{
closed = 1;
nodes = (
"736 339 OFFCURVE",
"641 415 OFFCURVE",
"476 415 CURVE SMOOTH",
"419 415 OFFCURVE",
"363 406 OFFCURVE",
"327 393 CURVE",
"383 372 LINE",
"390 459 LINE",
"702 459 LINE",
"702 688 LINE",
"44 688 LINE",
"21 346 LINE",
"74 361 OFFCURVE",
"145 371 OFFCURVE",
"220 371 CURVE SMOOTH",
"312 371 OFFCURVE",
"354 355 OFFCURVE",
"354 320 CURVE SMOOTH",
"354 289 OFFCURVE",
"322 266 OFFCURVE",
"230 266 CURVE SMOOTH",
"155 266 OFFCURVE",
"69 282 OFFCURVE",
"11 310 CURVE",
"11 40 LINE",
"84 7 OFFCURVE",
"197 -10 OFFCURVE",
"312 -10 CURVE SMOOTH",
"557 -10 OFFCURVE",
"736 66 OFFCURVE",
"736 220 CURVE SMOOTH"
);
}
);
width = 746;
}
);
unicode = 0035;
},
{
glyphname = six;
lastChange = "2020-05-27 03:12:14 +0000";
layers = (
{
layerId = "898421D1-ED89-4F9A-874F-2D62076340E9";
paths = (
{
closed = 1;
nodes = (
"10 93 OFFCURVE",
"121 -12 OFFCURVE",
"356 -12 CURVE SMOOTH",
"600 -12 OFFCURVE",
"737 84 OFFCURVE",
"737 255 CURVE SMOOTH",
"737 398 OFFCURVE",
"629 493 OFFCURVE",
"468 493 CURVE SMOOTH",
"422 493 OFFCURVE",
"374 486 OFFCURVE",
"327 452 CURVE",
"290 422 LINE",
"367 464 OFFCURVE",
"476 540 OFFCURVE",
"622 690 CURVE",
"234 690 LINE",
"141 553 LINE SMOOTH",
"78 461 OFFCURVE",
"10 378 OFFCURVE",
"10 251 CURVE SMOOTH"
);
},
{
closed = 1;
nodes = (
"324 322 OFFCURVE",
"343 340 OFFCURVE",
"373 340 CURVE SMOOTH",
"403 340 OFFCURVE",
"422 322 OFFCURVE",
"422 295 CURVE SMOOTH",
"422 267 OFFCURVE",
"403 249 OFFCURVE",
"373 249 CURVE SMOOTH",
"343 249 OFFCURVE",
"324 267 OFFCURVE",
"324 295 CURVE SMOOTH"
);
}
);
width = 747;
},
{
layerId = "3B426CF6-0C00-48CC-B0F4-6E2C4CD07FAD";
paths = (
{
closed = 1;
nodes = (
"10 93 OFFCURVE",
"135 -12 OFFCURVE",
"399 -12 CURVE SMOOTH",
"673 -12 OFFCURVE",
"827 84 OFFCURVE",
"827 255 CURVE SMOOTH",
"827 398 OFFCURVE",
"705 493 OFFCURVE",
"525 493 CURVE SMOOTH",
"474 493 OFFCURVE",
"419 486 OFFCURVE",
"366 452 CURVE",
"325 422 LINE",
"411 464 OFFCURVE",
"532 540 OFFCURVE",
"698 690 CURVE",
"262 690 LINE",
"157 553 LINE SMOOTH",
"87 462 OFFCURVE",
"10 378 OFFCURVE",
"10 251 CURVE SMOOTH"
);
},
{
closed = 1;
nodes = (
"363 322 OFFCURVE",
"385 340 OFFCURVE",
"418 340 CURVE SMOOTH",
"451 340 OFFCURVE",
"473 322 OFFCURVE",
"473 295 CURVE SMOOTH",
"473 267 OFFCURVE",
"451 249 OFFCURVE",
"418 249 CURVE SMOOTH",
"385 249 OFFCURVE",
"363 267 OFFCURVE",
"363 295 CURVE SMOOTH"
);
}
);
width = 837;
}
);
unicode = 0036;
},
{
glyphname = seven;
lastChange = "2020-05-30 09:59:39 +0000";
layers = (
{
layerId = "898421D1-ED89-4F9A-874F-2D62076340E9";
paths = (
{
closed = 1;
nodes = (
"401 425 LINE",
"358 442 LINE",
"192 344 OFFCURVE",
"91 195 OFFCURVE",
"92 24 CURVE SMOOTH",
"92 0 LINE",
"419 0 LINE",
"419 25 LINE SMOOTH",
"419 190 OFFCURVE",
"495 317 OFFCURVE",
"666 455 CURVE",
"666 690 LINE",
"10 690 LINE",
"10 425 LINE"
);
}
);
width = 676;
},
{
layerId = "3B426CF6-0C00-48CC-B0F4-6E2C4CD07FAD";
paths = (
{
closed = 1;
nodes = (
"455 425 LINE",
"406 442 LINE",
"217 344 OFFCURVE",
"103 195 OFFCURVE",
"103 24 CURVE SMOOTH",
"103 0 LINE",
"475 0 LINE",
"475 25 LINE SMOOTH",
"475 174 OFFCURVE",
"543 304 OFFCURVE",
"756 455 CURVE",
"756 690 LINE",
"10 690 LINE",
"10 425 LINE"
);
}
);
width = 766;
}
);
unicode = 0037;
},
{
glyphname = eight;
lastChange = "2020-05-30 09:53:44 +0000";
layers = (
{
layerId = "898421D1-ED89-4F9A-874F-2D62076340E9";
paths = (
{
closed = 1;
nodes = (
"10 67 OFFCURVE",
"112 -12 OFFCURVE",
"372 -12 CURVE SMOOTH",
"592 -12 OFFCURVE",
"738 44 OFFCURVE",
"738 190 CURVE SMOOTH",
"738 278 OFFCURVE",
"685 337 OFFCURVE",
"602 350 CURVE",
"674 370 OFFCURVE",
"718 429 OFFCURVE",
"718 505 CURVE SMOOTH",
"718 624 OFFCURVE",
"607 704 OFFCURVE",
"376 704 CURVE SMOOTH",
"168 704 OFFCURVE",
"30 639 OFFCURVE",
"30 503 CURVE SMOOTH",
"30 429 OFFCURVE",
"74 370 OFFCURVE",
"146 350 CURVE",
"63 337 OFFCURVE",
"10 278 OFFCURVE",
"10 190 CURVE SMOOTH"
);
},
{
closed = 1;
nodes = (
"331 246 OFFCURVE",
"348 261 OFFCURVE",
"374 261 CURVE SMOOTH",
"400 261 OFFCURVE",
"417 246 OFFCURVE",
"417 225 CURVE SMOOTH",
"417 204 OFFCURVE",
"400 190 OFFCURVE",
"374 190 CURVE SMOOTH",
"348 190 OFFCURVE",
"331 204 OFFCURVE",
"331 225 CURVE SMOOTH"
);
},
{
closed = 1;
nodes = (
"331 489 OFFCURVE",
"348 503 OFFCURVE",
"374 503 CURVE SMOOTH",
"400 503 OFFCURVE",
"417 489 OFFCURVE",
"417 467 CURVE SMOOTH",
"417 446 OFFCURVE",
"400 432 OFFCURVE",
"374 432 CURVE SMOOTH",
"348 432 OFFCURVE",
"331 446 OFFCURVE",
"331 467 CURVE SMOOTH"
);
}
);
width = 748;
},
{
layerId = "3B426CF6-0C00-48CC-B0F4-6E2C4CD07FAD";
paths = (
{
closed = 1;
nodes = (
"10 67 OFFCURVE",
"125 -12 OFFCURVE",
"417 -12 CURVE SMOOTH",
"663 -12 OFFCURVE",
"828 44 OFFCURVE",
"828 190 CURVE SMOOTH",
"828 278 OFFCURVE",
"768 337 OFFCURVE",
"675 350 CURVE",
"756 370 OFFCURVE",
"806 429 OFFCURVE",
"806 505 CURVE SMOOTH",
"806 624 OFFCURVE",
"680 704 OFFCURVE",
"421 704 CURVE SMOOTH",
"188 704 OFFCURVE",
"32 639 OFFCURVE",
"32 503 CURVE SMOOTH",
"32 429 OFFCURVE",
"82 370 OFFCURVE",
"163 350 CURVE",
"70 337 OFFCURVE",
"10 278 OFFCURVE",
"10 190 CURVE SMOOTH"
);
},
{
closed = 1;
nodes = (
"371 246 OFFCURVE",
"390 261 OFFCURVE",
"419 261 CURVE SMOOTH",
"448 261 OFFCURVE",
"467 246 OFFCURVE",
"467 225 CURVE SMOOTH",
"467 204 OFFCURVE",
"448 190 OFFCURVE",
"419 190 CURVE SMOOTH",
"390 190 OFFCURVE",
"371 204 OFFCURVE",
"371 225 CURVE SMOOTH"
);
},
{
closed = 1;
nodes = (
"371 489 OFFCURVE",
"390 503 OFFCURVE",
"419 503 CURVE SMOOTH",
"448 503 OFFCURVE",
"467 489 OFFCURVE",
"467 467 CURVE SMOOTH",
"467 446 OFFCURVE",
"448 432 OFFCURVE",
"419 432 CURVE SMOOTH",
"390 432 OFFCURVE",
"371 446 OFFCURVE",
"371 467 CURVE SMOOTH"
);
}
);
width = 838;
}
);
unicode = 0038;
},
{
glyphname = nine;
lastChange = "2020-05-30 09:53:38 +0000";
layers = (
{
layerId = "898421D1-ED89-4F9A-874F-2D62076340E9";
paths = (
{
closed = 1;
nodes = (
"738 604 OFFCURVE",
"607 703 OFFCURVE",
"375 703 CURVE SMOOTH",
"156 703 OFFCURVE",
"10 602 OFFCURVE",
"10 423 CURVE SMOOTH",
"10 283 OFFCURVE",
"106 188 OFFCURVE",
"278 188 CURVE SMOOTH",
"325 188 OFFCURVE",
"373 195 OFFCURVE",
"420 229 CURVE",
"457 269 LINE",
"380 227 OFFCURVE",
"246 115 OFFCURVE",
"125 0 CURVE",
"513 0 LINE",
"609 136 LINE SMOOTH",
"667 218 OFFCURVE",
"738 312 OFFCURVE",
"738 428 CURVE SMOOTH"
);
},
{
closed = 1;
nodes = (
"423 369 OFFCURVE",
"404 351 OFFCURVE",
"374 351 CURVE SMOOTH",
"344 351 OFFCURVE",
"325 369 OFFCURVE",
"325 396 CURVE SMOOTH",
"325 424 OFFCURVE",
"344 442 OFFCURVE",
"374 442 CURVE SMOOTH",
"404 442 OFFCURVE",
"423 424 OFFCURVE",
"423 396 CURVE SMOOTH"
);
}
);
width = 748;
},
{
layerId = "3B426CF6-0C00-48CC-B0F4-6E2C4CD07FAD";
paths = (
{
closed = 1;
nodes = (
"828 604 OFFCURVE",
"680 703 OFFCURVE",
"420 703 CURVE SMOOTH",
"175 703 OFFCURVE",
"10 602 OFFCURVE",
"10 423 CURVE SMOOTH",
"10 283 OFFCURVE",
"118 188 OFFCURVE",
"311 188 CURVE SMOOTH",
"363 188 OFFCURVE",
"418 195 OFFCURVE",
"471 229 CURVE",
"512 269 LINE",
"426 227 OFFCURVE",
"277 116 OFFCURVE",
"139 0 CURVE",
"575 0 LINE",
"683 136 LINE SMOOTH",
"748 218 OFFCURVE",
"828 312 OFFCURVE",
"828 428 CURVE SMOOTH"
);
},
{
closed = 1;
nodes = (
"474 369 OFFCURVE",
"453 351 OFFCURVE",
"419 351 CURVE SMOOTH",
"385 351 OFFCURVE",
"364 369 OFFCURVE",
"364 396 CURVE SMOOTH",
"364 424 OFFCURVE",
"385 442 OFFCURVE",
"419 442 CURVE SMOOTH",
"453 442 OFFCURVE",
"474 424 OFFCURVE",
"474 396 CURVE SMOOTH"
);
}
);
width = 838;
}
);
unicode = 0039;
},
{
color = 6;
glyphname = zeroinferior;
lastChange = "2020-05-27 03:12:14 +0000";
layers = (
{
layerId = "898421D1-ED89-4F9A-874F-2D62076340E9";
paths = (
{
closed = 1;
nodes = (
"199 194 LINE",
"393 284 LINE",
"387 318 LINE",
"193 228 LINE"
);
},
{
closed = 1;
nodes = (
"10 97 OFFCURVE",
"107 -8 OFFCURVE",
"293 -8 CURVE SMOOTH",
"469 -8 OFFCURVE",
"576 87 OFFCURVE",
"576 256 CURVE SMOOTH",
"576 415 OFFCURVE",
"479 520 OFFCURVE",
"293 520 CURVE SMOOTH",
"117 520 OFFCURVE",
"10 425 OFFCURVE",
"10 256 CURVE SMOOTH"
);
},
{
closed = 1;
nodes = (
"255 307 OFFCURVE",
"271 326 OFFCURVE",
"293 326 CURVE SMOOTH",
"320 326 OFFCURVE",
"331 298 OFFCURVE",
"331 256 CURVE SMOOTH",
"331 205 OFFCURVE",
"315 186 OFFCURVE",
"293 186 CURVE SMOOTH",
"266 186 OFFCURVE",
"255 214 OFFCURVE",
"255 256 CURVE SMOOTH"
);
}
);
width = 586;
},
{
layerId = "3B426CF6-0C00-48CC-B0F4-6E2C4CD07FAD";
paths = (
{
closed = 1;
nodes = (
"229 194 LINE",
"454 284 LINE",
"447 318 LINE",
"222 228 LINE"
);
},
{
closed = 1;
nodes = (
"10 97 OFFCURVE",
"123 -8 OFFCURVE",
"338 -8 CURVE SMOOTH",
"541 -8 OFFCURVE",
"666 87 OFFCURVE",
"666 256 CURVE SMOOTH",
"666 415 OFFCURVE",
"553 520 OFFCURVE",
"338 520 CURVE SMOOTH",
"135 520 OFFCURVE",
"10 425 OFFCURVE",
"10 256 CURVE SMOOTH"
);
},
{
closed = 1;
nodes = (
"294 307 OFFCURVE",
"313 326 OFFCURVE",
"338 326 CURVE SMOOTH",
"369 326 OFFCURVE",
"382 298 OFFCURVE",
"382 256 CURVE SMOOTH",
"382 205 OFFCURVE",
"363 186 OFFCURVE",
"338 186 CURVE SMOOTH",
"307 186 OFFCURVE",
"294 214 OFFCURVE",
"294 256 CURVE SMOOTH"
);
}
);
width = 676;
}
);
leftMetricsKey = zero;
rightMetricsKey = zero;
unicode = 2080;
},
{
color = 6;
glyphname = oneinferior;
lastChange = "2020-05-27 19:42:17 +0000";
layers = (
{
layerId = "898421D1-ED89-4F9A-874F-2D62076340E9";
paths = (
{
closed = 1;
nodes = (
"56 256 OFFCURVE",
"96 276 OFFCURVE",
"116 295 CURVE",
"116 0 LINE",
"353 0 LINE",
"353 512 LINE",
"223 512 LINE",
"15 436 LINE",
"15 246 LINE"
);
}
);
width = 373;
},
{
layerId = "3B426CF6-0C00-48CC-B0F4-6E2C4CD07FAD";
paths = (
{
closed = 1;
nodes = (
"67 256 OFFCURVE",
"117 277 OFFCURVE",
"143 295 CURVE",
"143 0 LINE",
"443 0 LINE",
"443 512 LINE",
"278 512 LINE",
"15 436 LINE",
"15 246 LINE"
);
}
);
width = 463;
}
);
leftMetricsKey = one;
rightMetricsKey = one;
unicode = 2081;
},
{
color = 6;
glyphname = twoinferior;
lastChange = "2020-05-27 19:42:17 +0000";
layers = (
{
layerId = "898421D1-ED89-4F9A-874F-2D62076340E9";
paths = (
{
closed = 1;
nodes = (
"492 464 OFFCURVE",
"391 521 OFFCURVE",
"238 521 CURVE SMOOTH",
"149 521 OFFCURVE",
"61 502 OFFCURVE",
"20 479 CURVE",
"20 284 LINE",
"66 303 OFFCURVE",
"127 316 OFFCURVE",
"174 316 CURVE SMOOTH",
"220 316 OFFCURVE",
"244 302 OFFCURVE",
"244 273 CURVE SMOOTH",
"244 213 OFFCURVE",
"140 184 OFFCURVE",
"20 148 CURVE",
"20 0 LINE",
"485 0 LINE",
"485 172 LINE",
"468 172 LINE SMOOTH",
"401 172 OFFCURVE",
"263 157 OFFCURVE",
"177 134 CURVE",
"242 143 LINE",
"418 176 OFFCURVE",
"492 232 OFFCURVE",
"492 342 CURVE SMOOTH"
);
}
);
width = 512;
},
{
layerId = "3B426CF6-0C00-48CC-B0F4-6E2C4CD07FAD";
paths = (
{
closed = 1;
nodes = (
"582 464 OFFCURVE",
"461 521 OFFCURVE",
"280 521 CURVE SMOOTH",
"174 521 OFFCURVE",
"69 502 OFFCURVE",
"20 479 CURVE",
"20 284 LINE",
"75 303 OFFCURVE",
"148 316 OFFCURVE",
"203 316 CURVE SMOOTH",
"258 316 OFFCURVE",
"287 302 OFFCURVE",
"287 273 CURVE SMOOTH",
"287 213 OFFCURVE",
"163 184 OFFCURVE",
"20 148 CURVE",
"20 0 LINE",
"574 0 LINE",
"574 172 LINE",
"553 172 LINE SMOOTH",
"475 172 OFFCURVE",
"309 157 OFFCURVE",
"207 134 CURVE",
"284 143 LINE",
"494 176 OFFCURVE",
"582 233 OFFCURVE",
"582 342 CURVE SMOOTH"
);
}
);
width = 602;
}
);
leftMetricsKey = two;
rightMetricsKey = two;
unicode = 2082;
},
{
color = 6;
glyphname = threeinferior;
lastChange = "2020-05-27 19:42:17 +0000";
layers = (
{
layerId = "898421D1-ED89-4F9A-874F-2D62076340E9";
paths = (
{
closed = 1;
nodes = (
"289 321 LINE",
"282 331 LINE",
"165 286 LINE",
"181 235 LINE",
"193 239 OFFCURVE",
"213 242 OFFCURVE",
"230 242 CURVE SMOOTH",
"251 242 OFFCURVE",
"266 237 OFFCURVE",
"266 222 CURVE SMOOTH",
"266 205 OFFCURVE",
"243 194 OFFCURVE",
"193 194 CURVE SMOOTH",
"141 194 OFFCURVE",
"78 205 OFFCURVE",
"29 226 CURVE",
"29 26 LINE",
"76 4 OFFCURVE",
"151 -11 OFFCURVE",
"229 -11 CURVE SMOOTH",
"410 -11 OFFCURVE",
"514 41 OFFCURVE",
"514 151 CURVE SMOOTH",
"514 252 OFFCURVE",
"437 297 OFFCURVE",
"319 277 CURVE",
"343 273 LINE",
"484 348 LINE",
"484 510 LINE",
"29 510 LINE",
"29 321 LINE"
);
}
);
width = 524;
},
{
layerId = "3B426CF6-0C00-48CC-B0F4-6E2C4CD07FAD";
paths = (
{
closed = 1;
nodes = (
"328 321 LINE",
"320 331 LINE",
"181 286 LINE",
"200 235 LINE",
"214 239 OFFCURVE",
"239 242 OFFCURVE",
"258 242 CURVE SMOOTH",
"283 242 OFFCURVE",
"301 237 OFFCURVE",
"301 222 CURVE SMOOTH",
"301 205 OFFCURVE",
"273 194 OFFCURVE",
"214 194 CURVE SMOOTH",
"153 194 OFFCURVE",
"78 205 OFFCURVE",
"20 226 CURVE",
"20 26 LINE",
"76 4 OFFCURVE",
"165 -11 OFFCURVE",
"257 -11 CURVE SMOOTH",
"471 -11 OFFCURVE",
"595 41 OFFCURVE",
"595 151 CURVE SMOOTH",
"595 251 OFFCURVE",
"504 297 OFFCURVE",
"364 277 CURVE",
"392 273 LINE",
"559 348 LINE",
"559 510 LINE",
"20 510 LINE",
"20 321 LINE"
);
}
);
width = 605;
}
);
leftMetricsKey = three;
rightMetricsKey = three;
unicode = 2083;
},
{
color = 6;
glyphname = fourinferior;
lastChange = "2020-05-27 19:42:17 +0000";
layers = (
{
layerId = "898421D1-ED89-4F9A-874F-2D62076340E9";
paths = (
{
closed = 1;
nodes = (
"256 80 LINE",
"256 0 LINE",
"493 0 LINE",
"493 80 LINE",
"549 80 LINE",
"549 249 LINE",
"493 249 LINE",
"493 512 LINE",
"237 512 LINE",
"149 414 OFFCURVE",
"63 299 OFFCURVE",
"20 226 CURVE",
"20 80 LINE"
);
},
{
closed = 1;
nodes = (
"220 269 OFFCURVE",
"260 321 OFFCURVE",
"288 365 CURVE",
"256 386 LINE",
"256 249 LINE",
"163 249 LINE",
"185 235 LINE"
);
}
);
width = 569;
},
{
layerId = "3B426CF6-0C00-48CC-B0F4-6E2C4CD07FAD";
paths = (
{
closed = 1;
nodes = (
"296 80 LINE",
"296 0 LINE",
"573 0 LINE",
"573 80 LINE",
"639 80 LINE",
"639 249 LINE",
"573 249 LINE",
"573 512 LINE",
"274 512 LINE",
"171 414 OFFCURVE",
"71 299 OFFCURVE",
"20 226 CURVE",
"20 80 LINE"
);
},
{
closed = 1;
nodes = (
"255 270 OFFCURVE",
"301 321 OFFCURVE",
"334 365 CURVE",
"296 386 LINE",
"296 249 LINE",
"187 249 LINE",
"213 235 LINE"
);
}
);
width = 649;
}
);
leftMetricsKey = four;
rightMetricsKey = four;
unicode = 2084;
},
{
color = 6;
glyphname = fiveinferior;
lastChange = "2020-05-30 13:02:29 +0000";
layers = (
{
layerId = "898421D1-ED89-4F9A-874F-2D62076340E9";
paths = (
{
closed = 1;
nodes = (
"486 253 OFFCURVE",
"424 309 OFFCURVE",
"317 309 CURVE SMOOTH",
"280 309 OFFCURVE",
"243 303 OFFCURVE",
"221 293 CURVE",
"257 277 LINE",
"261 342 LINE",
"463 342 LINE",
"463 512 LINE",
"37 512 LINE",
"22 258 LINE",
"56 269 OFFCURVE",
"102 277 OFFCURVE",
"151 277 CURVE SMOOTH",
"211 277 OFFCURVE",
"238 265 OFFCURVE",
"238 239 CURVE SMOOTH",
"238 216 OFFCURVE",
"218 199 OFFCURVE",
"158 199 CURVE SMOOTH",
"108 199 OFFCURVE",
"53 211 OFFCURVE",
"15 232 CURVE",
"15 32 LINE",
"63 7 OFFCURVE",
"135 -6 OFFCURVE",
"211 -6 CURVE SMOOTH",
"370 -6 OFFCURVE",
"486 51 OFFCURVE",
"486 165 CURVE SMOOTH"
);
}
);
width = 496;
},
{
layerId = "3B426CF6-0C00-48CC-B0F4-6E2C4CD07FAD";
paths = (
{
closed = 1;
nodes = (
"572 253 OFFCURVE",
"498 309 OFFCURVE",
"371 309 CURVE SMOOTH",
"327 309 OFFCURVE",
"283 303 OFFCURVE",
"256 293 CURVE",
"299 277 LINE",
"304 342 LINE",
"545 342 LINE",
"545 512 LINE",
"37 512 LINE",
"19 258 LINE",
"60 269 OFFCURVE",
"115 277 OFFCURVE",
"173 277 CURVE SMOOTH",
"244 277 OFFCURVE",
"277 265 OFFCURVE",
"277 239 CURVE SMOOTH",
"277 216 OFFCURVE",
"252 199 OFFCURVE",
"181 199 CURVE SMOOTH",
"123 199 OFFCURVE",
"56 211 OFFCURVE",
"11 232 CURVE",
"11 32 LINE",
"68 7 OFFCURVE",
"155 -6 OFFCURVE",
"244 -6 CURVE SMOOTH",
"433 -6 OFFCURVE",
"572 51 OFFCURVE",
"572 165 CURVE SMOOTH"
);
}
);
width = 582;
}
);
leftMetricsKey = five;
rightMetricsKey = five;
unicode = 2085;
},
{
color = 6;
glyphname = sixinferior;
lastChange = "2020-05-27 03:12:14 +0000";
layers = (
{
layerId = "898421D1-ED89-4F9A-874F-2D62076340E9";
paths = (
{
closed = 1;
nodes = (
"10 70 OFFCURVE",
"92 -8 OFFCURVE",
"267 -8 CURVE SMOOTH",
"447 -8 OFFCURVE",
"549 63 OFFCURVE",
"549 190 CURVE SMOOTH",
"549 296 OFFCURVE",
"469 366 OFFCURVE",
"350 366 CURVE SMOOTH",
"315 366 OFFCURVE",
"280 361 OFFCURVE",
"245 336 CURVE",
"218 313 LINE",
"275 345 OFFCURVE",
"355 401 OFFCURVE",
"464 512 CURVE",
"176 512 LINE",
"107 411 LINE SMOOTH",
"61 342 OFFCURVE",
"10 281 OFFCURVE",
"10 187 CURVE SMOOTH"
);
},
{
closed = 1;
nodes = (
"243 239 OFFCURVE",
"257 253 OFFCURVE",
"279 253 CURVE SMOOTH",
"301 253 OFFCURVE",
"315 239 OFFCURVE",
"315 219 CURVE SMOOTH",
"315 199 OFFCURVE",
"301 185 OFFCURVE",
"279 185 CURVE SMOOTH",
"257 185 OFFCURVE",
"243 199 OFFCURVE",
"243 219 CURVE SMOOTH"
);
}
);
width = 559;
},
{
layerId = "3B426CF6-0C00-48CC-B0F4-6E2C4CD07FAD";
paths = (
{
closed = 1;
nodes = (
"10 70 OFFCURVE",
"106 -8 OFFCURVE",
"310 -8 CURVE SMOOTH",
"519 -8 OFFCURVE",
"639 63 OFFCURVE",
"639 190 CURVE SMOOTH",
"639 296 OFFCURVE",
"545 366 OFFCURVE",
"407 366 CURVE SMOOTH",
"367 366 OFFCURVE",
"325 361 OFFCURVE",
"284 336 CURVE",
"253 313 LINE",
"319 345 OFFCURVE",
"411 401 OFFCURVE",
"540 512 CURVE",
"204 512 LINE",
"124 411 LINE SMOOTH",
"69 342 OFFCURVE",
"10 280 OFFCURVE",
"10 187 CURVE SMOOTH"
);
},
{
closed = 1;
nodes = (
"282 239 OFFCURVE",
"299 253 OFFCURVE",
"324 253 CURVE SMOOTH",
"349 253 OFFCURVE",
"366 239 OFFCURVE",
"366 219 CURVE SMOOTH",
"366 199 OFFCURVE",
"349 185 OFFCURVE",
"324 185 CURVE SMOOTH",
"299 185 OFFCURVE",
"282 199 OFFCURVE",
"282 219 CURVE SMOOTH"
);
}
);
width = 649;
}
);
leftMetricsKey = six;
rightMetricsKey = six;
unicode = 2086;
},
{
color = 6;
glyphname = seveninferior;
lastChange = "2020-05-27 03:12:14 +0000";
layers = (
{
layerId = "898421D1-ED89-4F9A-874F-2D62076340E9";
paths = (
{
closed = 1;
nodes = (
"300 315 LINE",
"268 328 LINE",
"145 255 OFFCURVE",
"70 145 OFFCURVE",
"71 18 CURVE SMOOTH",
"71 0 LINE",
"313 0 LINE",
"313 19 LINE SMOOTH",
"313 141 OFFCURVE",
"369 235 OFFCURVE",
"496 337 CURVE",
"496 512 LINE",
"10 512 LINE",
"10 315 LINE"
);
}
);
width = 506;
},
{
layerId = "3B426CF6-0C00-48CC-B0F4-6E2C4CD07FAD";
paths = (
{
closed = 1;
nodes = (
"354 315 LINE",
"316 328 LINE",
"170 255 OFFCURVE",
"82 145 OFFCURVE",
"82 18 CURVE SMOOTH",
"82 0 LINE",
"369 0 LINE",
"369 19 LINE SMOOTH",
"369 140 OFFCURVE",
"434 234 OFFCURVE",
"586 337 CURVE",
"586 512 LINE",
"10 512 LINE",
"10 315 LINE"
);
}
);
width = 596;
}
);
leftMetricsKey = seven;
rightMetricsKey = seven;
unicode = 2087;
},
{
color = 6;
glyphname = eightinferior;
lastChange = "2020-05-27 03:12:14 +0000";
layers = (
{
layerId = "898421D1-ED89-4F9A-874F-2D62076340E9";
paths = (
{
closed = 1;
nodes = (
"10 49 OFFCURVE",
"86 -9 OFFCURVE",
"279 -9 CURVE SMOOTH",
"441 -9 OFFCURVE",
"550 32 OFFCURVE",
"550 140 CURVE SMOOTH",
"550 206 OFFCURVE",
"510 249 OFFCURVE",
"449 259 CURVE",
"502 274 OFFCURVE",
"535 317 OFFCURVE",
"535 374 CURVE SMOOTH",
"535 462 OFFCURVE",
"453 521 OFFCURVE",
"281 521 CURVE SMOOTH",
"127 521 OFFCURVE",
"25 473 OFFCURVE",
"25 372 CURVE SMOOTH",
"25 317 OFFCURVE",
"58 274 OFFCURVE",
"111 259 CURVE",
"50 249 OFFCURVE",
"10 206 OFFCURVE",
"10 140 CURVE SMOOTH"
);
},
{
closed = 1;
nodes = (
"248 182 OFFCURVE",
"261 193 OFFCURVE",
"280 193 CURVE SMOOTH",
"299 193 OFFCURVE",
"312 182 OFFCURVE",
"312 166 CURVE SMOOTH",
"312 151 OFFCURVE",
"299 140 OFFCURVE",
"280 140 CURVE SMOOTH",
"261 140 OFFCURVE",
"248 151 OFFCURVE",
"248 166 CURVE SMOOTH"
);
},
{
closed = 1;
nodes = (
"248 362 OFFCURVE",
"261 372 OFFCURVE",
"280 372 CURVE SMOOTH",
"299 372 OFFCURVE",
"312 362 OFFCURVE",
"312 346 CURVE SMOOTH",
"312 330 OFFCURVE",
"299 320 OFFCURVE",
"280 320 CURVE SMOOTH",
"261 320 OFFCURVE",
"248 330 OFFCURVE",
"248 346 CURVE SMOOTH"
);
}
);
width = 560;
},
{
layerId = "3B426CF6-0C00-48CC-B0F4-6E2C4CD07FAD";
paths = (
{
closed = 1;
nodes = (
"10 49 OFFCURVE",
"99 -9 OFFCURVE",
"324 -9 CURVE SMOOTH",
"512 -9 OFFCURVE",
"640 32 OFFCURVE",
"640 140 CURVE SMOOTH",
"640 206 OFFCURVE",
"593 249 OFFCURVE",
"522 259 CURVE",
"584 274 OFFCURVE",
"623 317 OFFCURVE",
"623 374 CURVE SMOOTH",
"623 462 OFFCURVE",
"526 521 OFFCURVE",
"326 521 CURVE SMOOTH",
"147 521 OFFCURVE",
"28 473 OFFCURVE",
"28 372 CURVE SMOOTH",
"28 317 OFFCURVE",
"66 274 OFFCURVE",
"128 259 CURVE",
"57 249 OFFCURVE",
"10 206 OFFCURVE",
"10 140 CURVE SMOOTH"
);
},
{
closed = 1;
nodes = (
"288 182 OFFCURVE",
"303 193 OFFCURVE",
"325 193 CURVE SMOOTH",
"347 193 OFFCURVE",
"362 182 OFFCURVE",
"362 166 CURVE SMOOTH",
"362 151 OFFCURVE",
"347 140 OFFCURVE",
"325 140 CURVE SMOOTH",
"303 140 OFFCURVE",
"288 151 OFFCURVE",
"288 166 CURVE SMOOTH"
);
},
{
closed = 1;
nodes = (
"288 362 OFFCURVE",
"303 372 OFFCURVE",
"325 372 CURVE SMOOTH",
"347 372 OFFCURVE",
"362 362 OFFCURVE",
"362 346 CURVE SMOOTH",
"362 330 OFFCURVE",
"347 320 OFFCURVE",
"325 320 CURVE SMOOTH",
"303 320 OFFCURVE",
"288 330 OFFCURVE",
"288 346 CURVE SMOOTH"
);
}
);
width = 650;
}
);
leftMetricsKey = eight;
rightMetricsKey = eight;
unicode = 2088;
},
{
color = 6;
glyphname = nineinferior;
lastChange = "2020-05-27 03:12:14 +0000";
layers = (
{
layerId = "898421D1-ED89-4F9A-874F-2D62076340E9";
paths = (
{
closed = 1;
nodes = (
"550 448 OFFCURVE",
"453 521 OFFCURVE",
"281 521 CURVE SMOOTH",
"119 521 OFFCURVE",
"10 446 OFFCURVE",
"10 313 CURVE SMOOTH",
"10 210 OFFCURVE",
"81 139 OFFCURVE",
"209 139 CURVE SMOOTH",
"244 139 OFFCURVE",
"279 145 OFFCURVE",
"314 170 CURVE",
"341 199 LINE",
"284 168 OFFCURVE",
"185 85 OFFCURVE",
"96 0 CURVE",
"383 0 LINE",
"454 101 LINE SMOOTH",
"497 162 OFFCURVE",
"550 231 OFFCURVE",
"550 317 CURVE SMOOTH"
);
},
{
closed = 1;
nodes = (
"316 273 OFFCURVE",
"302 260 OFFCURVE",
"280 260 CURVE SMOOTH",
"258 260 OFFCURVE",
"244 273 OFFCURVE",
"244 293 CURVE SMOOTH",
"244 314 OFFCURVE",
"258 328 OFFCURVE",
"280 328 CURVE SMOOTH",
"302 328 OFFCURVE",
"316 314 OFFCURVE",
"316 293 CURVE SMOOTH"
);
}
);
width = 560;
},
{
layerId = "3B426CF6-0C00-48CC-B0F4-6E2C4CD07FAD";
paths = (
{
closed = 1;
nodes = (
"640 448 OFFCURVE",
"526 521 OFFCURVE",
"326 521 CURVE SMOOTH",
"138 521 OFFCURVE",
"10 446 OFFCURVE",
"10 313 CURVE SMOOTH",
"10 210 OFFCURVE",
"93 139 OFFCURVE",
"242 139 CURVE SMOOTH",
"282 139 OFFCURVE",
"324 145 OFFCURVE",
"365 170 CURVE",
"396 199 LINE",
"330 168 OFFCURVE",
"216 87 OFFCURVE",
"110 0 CURVE",
"445 0 LINE",
"528 101 LINE SMOOTH",
"578 162 OFFCURVE",
"640 231 OFFCURVE",
"640 317 CURVE SMOOTH"
);
},
{
closed = 1;
nodes = (
"367 273 OFFCURVE",
"350 260 OFFCURVE",
"325 260 CURVE SMOOTH",
"300 260 OFFCURVE",
"283 273 OFFCURVE",
"283 293 CURVE SMOOTH",
"283 314 OFFCURVE",
"300 328 OFFCURVE",
"325 328 CURVE SMOOTH",
"350 328 OFFCURVE",
"367 314 OFFCURVE",
"367 293 CURVE SMOOTH"
);
}
);
width = 650;
}
);
leftMetricsKey = nine;
rightMetricsKey = nine;
unicode = 2089;
},
{
glyphname = zero.dnom;
lastChange = "2020-06-11 11:34:40 +0000";
layers = (
{
layerId = "898421D1-ED89-4F9A-874F-2D62076340E9";
paths = (
{
closed = 1;
nodes = (
"186 178 LINE",
"366 262 LINE",
"360 294 LINE",
"180 210 LINE"
);
},
{
closed = 1;
nodes = (
"10 89 OFFCURVE",
"100 -9 OFFCURVE",
"273 -9 CURVE SMOOTH",
"436 -9 OFFCURVE",
"536 79 OFFCURVE",
"536 236 CURVE SMOOTH",
"536 383 OFFCURVE",
"446 481 OFFCURVE",
"273 481 CURVE SMOOTH",
"110 481 OFFCURVE",
"10 393 OFFCURVE",
"10 236 CURVE SMOOTH"
);
},
{
closed = 1;
nodes = (
"238 284 OFFCURVE",
"252 302 OFFCURVE",
"273 302 CURVE SMOOTH",
"298 302 OFFCURVE",
"308 275 OFFCURVE",
"308 236 CURVE SMOOTH",
"308 189 OFFCURVE",
"294 171 OFFCURVE",
"273 171 CURVE SMOOTH",
"248 171 OFFCURVE",
"238 197 OFFCURVE",
"238 236 CURVE SMOOTH"
);
}
);
width = 546;
},
{
layerId = "3B426CF6-0C00-48CC-B0F4-6E2C4CD07FAD";
paths = (
{
closed = 1;
nodes = (
"216 178 LINE",
"427 262 LINE",
"420 294 LINE",
"209 210 LINE"
);
},
{
closed = 1;
nodes = (
"10 89 OFFCURVE",
"115 -9 OFFCURVE",
"318 -9 CURVE SMOOTH",
"509 -9 OFFCURVE",
"626 79 OFFCURVE",
"626 236 CURVE SMOOTH",
"626 383 OFFCURVE",
"521 481 OFFCURVE",
"318 481 CURVE SMOOTH",
"127 481 OFFCURVE",
"10 393 OFFCURVE",
"10 236 CURVE SMOOTH"
);
},
{
closed = 1;
nodes = (
"277 284 OFFCURVE",
"293 302 OFFCURVE",
"318 302 CURVE SMOOTH",
"347 302 OFFCURVE",
"359 275 OFFCURVE",
"359 236 CURVE SMOOTH",
"359 189 OFFCURVE",
"343 171 OFFCURVE",
"318 171 CURVE SMOOTH",
"289 171 OFFCURVE",
"277 197 OFFCURVE",
"277 236 CURVE SMOOTH"
);
}
);
width = 636;
}
);
leftMetricsKey = zero;
rightMetricsKey = zero;
},
{
glyphname = one.dnom;
lastChange = "2020-06-11 11:34:53 +0000";
layers = (
{
layerId = "898421D1-ED89-4F9A-874F-2D62076340E9";
paths = (
{
closed = 1;
nodes = (
"53 238 OFFCURVE",
"90 256 OFFCURVE",
"109 274 CURVE",
"109 0 LINE",
"329 0 LINE",
"329 475 LINE",
"208 475 LINE",
"15 405 LINE",
"15 228 LINE"
);
}
);
width = 349;
},
{
layerId = "3B426CF6-0C00-48CC-B0F4-6E2C4CD07FAD";
paths = (
{
closed = 1;
nodes = (
"64 238 OFFCURVE",
"111 257 OFFCURVE",
"136 274 CURVE",
"136 0 LINE",
"419 0 LINE",
"419 475 LINE",
"263 475 LINE",
"15 405 LINE",
"15 228 LINE"
);
}
);
width = 439;
}
);
leftMetricsKey = one;
rightMetricsKey = one;
},
{
glyphname = two.dnom;
lastChange = "2020-06-11 11:35:08 +0000";
layers = (
{
layerId = "898421D1-ED89-4F9A-874F-2D62076340E9";
paths = (
{
closed = 1;
nodes = (
"459 430 OFFCURVE",
"365 483 OFFCURVE",
"223 483 CURVE SMOOTH",
"140 483 OFFCURVE",
"59 465 OFFCURVE",
"20 445 CURVE",
"20 263 LINE",
"64 281 OFFCURVE",
"120 294 OFFCURVE",
"163 294 CURVE SMOOTH",
"206 294 OFFCURVE",
"229 281 OFFCURVE",
"229 254 CURVE SMOOTH",
"229 198 OFFCURVE",
"132 171 OFFCURVE",
"20 138 CURVE",
"20 0 LINE",
"452 0 LINE",
"452 160 LINE",
"436 160 LINE SMOOTH",
"374 160 OFFCURVE",
"246 146 OFFCURVE",
"166 124 CURVE",
"227 133 LINE",
"390 164 OFFCURVE",
"459 215 OFFCURVE",
"459 318 CURVE SMOOTH"
);
}
);
width = 479;
},
{
layerId = "3B426CF6-0C00-48CC-B0F4-6E2C4CD07FAD";
paths = (
{
closed = 1;
nodes = (
"549 430 OFFCURVE",
"435 483 OFFCURVE",
"265 483 CURVE SMOOTH",
"165 483 OFFCURVE",
"67 465 OFFCURVE",
"20 445 CURVE",
"20 263 LINE",
"73 281 OFFCURVE",
"141 294 OFFCURVE",
"192 294 CURVE SMOOTH",
"244 294 OFFCURVE",
"272 281 OFFCURVE",
"272 254 CURVE SMOOTH",
"272 198 OFFCURVE",
"155 171 OFFCURVE",
"20 138 CURVE",
"20 0 LINE",
"541 0 LINE",
"541 160 LINE",
"521 160 LINE SMOOTH",
"448 160 OFFCURVE",
"292 146 OFFCURVE",
"196 124 CURVE",
"269 133 LINE",
"466 164 OFFCURVE",
"549 216 OFFCURVE",
"549 318 CURVE SMOOTH"
);
}
);
width = 569;
}
);
leftMetricsKey = two;
rightMetricsKey = two;
},
{
glyphname = three.dnom;
lastChange = "2020-06-11 11:35:23 +0000";
layers = (
{
layerId = "898421D1-ED89-4F9A-874F-2D62076340E9";
paths = (
{
closed = 1;
nodes = (
"271 297 LINE",
"264 306 LINE",
"156 265 LINE",
"170 217 LINE",
"182 221 OFFCURVE",
"200 223 OFFCURVE",
"216 223 CURVE SMOOTH",
"236 223 OFFCURVE",
"249 219 OFFCURVE",
"249 205 CURVE SMOOTH",
"249 190 OFFCURVE",
"228 179 OFFCURVE",
"182 179 CURVE SMOOTH",
"133 179 OFFCURVE",
"75 190 OFFCURVE",
"29 209 CURVE",
"29 23 LINE",
"73 3 OFFCURVE",
"143 -11 OFFCURVE",
"215 -11 CURVE SMOOTH",
"383 -11 OFFCURVE",
"480 37 OFFCURVE",
"480 139 CURVE SMOOTH",
"480 233 OFFCURVE",
"408 274 OFFCURVE",
"299 256 CURVE",
"321 252 LINE",
"452 322 LINE",
"452 472 LINE",
"29 472 LINE",
"29 297 LINE"
);
}
);
width = 490;
},
{
layerId = "3B426CF6-0C00-48CC-B0F4-6E2C4CD07FAD";
paths = (
{
closed = 1;
nodes = (
"310 297 LINE",
"302 306 LINE",
"172 265 LINE",
"189 217 LINE",
"203 221 OFFCURVE",
"226 223 OFFCURVE",
"244 223 CURVE SMOOTH",
"268 223 OFFCURVE",
"284 219 OFFCURVE",
"284 205 CURVE SMOOTH",
"284 190 OFFCURVE",
"258 179 OFFCURVE",
"204 179 CURVE SMOOTH",
"146 179 OFFCURVE",
"75 190 OFFCURVE",
"20 209 CURVE",
"20 23 LINE",
"73 3 OFFCURVE",
"157 -11 OFFCURVE",
"243 -11 CURVE SMOOTH",
"444 -11 OFFCURVE",
"561 37 OFFCURVE",
"561 139 CURVE SMOOTH",
"561 232 OFFCURVE",
"475 274 OFFCURVE",
"344 256 CURVE",
"370 252 LINE",
"527 322 LINE",
"527 472 LINE",
"20 472 LINE",
"20 297 LINE"
);
}
);
width = 571;
}
);
leftMetricsKey = three;
rightMetricsKey = three;
},
{
glyphname = four.dnom;
lastChange = "2020-06-11 11:35:33 +0000";
layers = (
{
layerId = "898421D1-ED89-4F9A-874F-2D62076340E9";
paths = (
{
closed = 1;
nodes = (
"239 75 LINE",
"239 0 LINE",
"459 0 LINE",
"459 75 LINE",
"510 75 LINE",
"510 231 LINE",
"459 231 LINE",
"459 475 LINE",
"221 475 LINE",
"140 384 OFFCURVE",
"59 278 OFFCURVE",
"20 210 CURVE",
"20 75 LINE"
);
},
{
closed = 1;
nodes = (
"205 250 OFFCURVE",
"243 298 OFFCURVE",
"268 339 CURVE",
"239 358 LINE",
"239 231 LINE",
"152 231 LINE",
"173 218 LINE"
);
}
);
width = 530;
},
{
layerId = "3B426CF6-0C00-48CC-B0F4-6E2C4CD07FAD";
paths = (
{
closed = 1;
nodes = (
"279 75 LINE",
"279 0 LINE",
"540 0 LINE",
"540 75 LINE",
"600 75 LINE",
"600 231 LINE",
"540 231 LINE",
"540 475 LINE",
"258 475 LINE",
"162 384 OFFCURVE",
"67 277 OFFCURVE",
"20 210 CURVE",
"20 75 LINE"
);
},
{
closed = 1;
nodes = (
"239 250 OFFCURVE",
"284 299 OFFCURVE",
"314 339 CURVE",
"279 358 LINE",
"279 231 LINE",
"176 231 LINE",
"201 218 LINE"
);
}
);
width = 610;
}
);
leftMetricsKey = four;
rightMetricsKey = four;
},
{
glyphname = five.dnom;
lastChange = "2020-06-11 11:35:47 +0000";
layers = (
{
layerId = "898421D1-ED89-4F9A-874F-2D62076340E9";
paths = (
{
closed = 1;
nodes = (
"452 229 OFFCURVE",
"395 281 OFFCURVE",
"295 281 CURVE SMOOTH",
"260 281 OFFCURVE",
"227 275 OFFCURVE",
"205 266 CURVE",
"239 252 LINE",
"243 311 LINE",
"431 311 LINE",
"431 469 LINE",
"35 469 LINE",
"21 234 LINE",
"53 244 OFFCURVE",
"95 251 OFFCURVE",
"141 251 CURVE SMOOTH",
"197 251 OFFCURVE",
"221 240 OFFCURVE",
"221 216 CURVE SMOOTH",
"221 194 OFFCURVE",
"203 179 OFFCURVE",
"147 179 CURVE SMOOTH",
"101 179 OFFCURVE",
"50 190 OFFCURVE",
"15 209 CURVE",
"15 23 LINE",
"59 1 OFFCURVE",
"126 -11 OFFCURVE",
"197 -11 CURVE SMOOTH",
"344 -11 OFFCURVE",
"452 41 OFFCURVE",
"452 147 CURVE SMOOTH"
);
}
);
width = 462;
},
{
layerId = "3B426CF6-0C00-48CC-B0F4-6E2C4CD07FAD";
paths = (
{
closed = 1;
nodes = (
"538 229 OFFCURVE",
"469 281 OFFCURVE",
"349 281 CURVE SMOOTH",
"306 281 OFFCURVE",
"267 275 OFFCURVE",
"240 266 CURVE",
"281 252 LINE",
"286 311 LINE",
"513 311 LINE",
"513 469 LINE",
"35 469 LINE",
"18 234 LINE",
"57 244 OFFCURVE",
"108 251 OFFCURVE",
"163 251 CURVE SMOOTH",
"230 251 OFFCURVE",
"259 240 OFFCURVE",
"259 216 CURVE SMOOTH",
"259 194 OFFCURVE",
"237 179 OFFCURVE",
"170 179 CURVE SMOOTH",
"116 179 OFFCURVE",
"53 190 OFFCURVE",
"11 209 CURVE",
"11 23 LINE",
"64 1 OFFCURVE",
"145 -11 OFFCURVE",
"230 -11 CURVE SMOOTH",
"407 -11 OFFCURVE",
"538 41 OFFCURVE",
"538 147 CURVE SMOOTH"
);
}
);
width = 548;
}
);
leftMetricsKey = five;
rightMetricsKey = five;
},
{
glyphname = six.dnom;
lastChange = "2020-06-11 11:36:06 +0000";
layers = (
{
layerId = "898421D1-ED89-4F9A-874F-2D62076340E9";
paths = (
{
closed = 1;
nodes = (
"10 60 OFFCURVE",
"86 -12 OFFCURVE",
"247 -12 CURVE SMOOTH",
"415 -12 OFFCURVE",
"509 54 OFFCURVE",
"509 171 CURVE SMOOTH",
"509 269 OFFCURVE",
"435 335 OFFCURVE",
"324 335 CURVE SMOOTH",
"293 335 OFFCURVE",
"260 330 OFFCURVE",
"227 307 CURVE",
"202 286 LINE",
"255 315 OFFCURVE",
"330 367 OFFCURVE",
"430 470 CURVE",
"164 470 LINE",
"100 376 LINE SMOOTH",
"56 313 OFFCURVE",
"10 256 OFFCURVE",
"10 168 CURVE SMOOTH"
);
},
{
closed = 1;
nodes = (
"225 217 OFFCURVE",
"238 230 OFFCURVE",
"259 230 CURVE SMOOTH",
"280 230 OFFCURVE",
"293 217 OFFCURVE",
"293 199 CURVE SMOOTH",
"293 179 OFFCURVE",
"280 167 OFFCURVE",
"259 167 CURVE SMOOTH",
"238 167 OFFCURVE",
"225 179 OFFCURVE",
"225 199 CURVE SMOOTH"
);
}
);
width = 519;
},
{
layerId = "3B426CF6-0C00-48CC-B0F4-6E2C4CD07FAD";
paths = (
{
closed = 1;
nodes = (
"10 60 OFFCURVE",
"100 -12 OFFCURVE",
"290 -12 CURVE SMOOTH",
"488 -12 OFFCURVE",
"599 54 OFFCURVE",
"599 171 CURVE SMOOTH",
"599 269 OFFCURVE",
"511 335 OFFCURVE",
"381 335 CURVE SMOOTH",
"345 335 OFFCURVE",
"305 330 OFFCURVE",
"266 307 CURVE",
"237 286 LINE",
"299 315 OFFCURVE",
"387 367 OFFCURVE",
"506 470 CURVE",
"192 470 LINE",
"116 376 LINE SMOOTH",
"65 313 OFFCURVE",
"10 256 OFFCURVE",
"10 168 CURVE SMOOTH"
);
},
{
closed = 1;
nodes = (
"264 217 OFFCURVE",
"280 230 OFFCURVE",
"304 230 CURVE SMOOTH",
"328 230 OFFCURVE",
"344 217 OFFCURVE",
"344 199 CURVE SMOOTH",
"344 179 OFFCURVE",
"328 167 OFFCURVE",
"304 167 CURVE SMOOTH",
"280 167 OFFCURVE",
"264 179 OFFCURVE",
"264 199 CURVE SMOOTH"
);
}
);
width = 609;
}
);
leftMetricsKey = six;
rightMetricsKey = six;
},
{
glyphname = seven.dnom;
lastChange = "2020-06-11 11:36:20 +0000";
layers = (
{
layerId = "898421D1-ED89-4F9A-874F-2D62076340E9";
paths = (
{
closed = 1;
nodes = (
"279 293 LINE",
"249 304 LINE",
"135 237 OFFCURVE",
"65 135 OFFCURVE",
"66 17 CURVE SMOOTH",
"66 0 LINE",
"291 0 LINE",
"291 18 LINE SMOOTH",
"291 131 OFFCURVE",
"343 218 OFFCURVE",
"461 313 CURVE",
"461 475 LINE",
"10 475 LINE",
"10 293 LINE"
);
}
);
width = 471;
},
{
layerId = "3B426CF6-0C00-48CC-B0F4-6E2C4CD07FAD";
paths = (
{
closed = 1;
nodes = (
"333 293 LINE",
"297 304 LINE",
"160 237 OFFCURVE",
"76 135 OFFCURVE",
"76 17 CURVE SMOOTH",
"76 0 LINE",
"347 0 LINE",
"347 18 LINE SMOOTH",
"347 130 OFFCURVE",
"408 217 OFFCURVE",
"551 313 CURVE",
"551 475 LINE",
"10 475 LINE",
"10 293 LINE"
);
}
);
width = 561;
}
);
leftMetricsKey = seven;
rightMetricsKey = seven;
},
{
glyphname = eight.dnom;
lastChange = "2020-06-11 11:40:22 +0000";
layers = (
{
layerId = "898421D1-ED89-4F9A-874F-2D62076340E9";
paths = (
{
closed = 1;
nodes = (
"10 47 OFFCURVE",
"80 -7 OFFCURVE",
"258 -7 CURVE SMOOTH",
"410 -7 OFFCURVE",
"510 32 OFFCURVE",
"510 132 CURVE SMOOTH",
"510 192 OFFCURVE",
"474 233 OFFCURVE",
"417 242 CURVE",
"466 256 OFFCURVE",
"496 296 OFFCURVE",
"496 349 CURVE SMOOTH",
"496 430 OFFCURVE",
"420 485 OFFCURVE",
"261 485 CURVE SMOOTH",
"118 485 OFFCURVE",
"23 441 OFFCURVE",
"23 347 CURVE SMOOTH",
"23 296 OFFCURVE",
"54 256 OFFCURVE",
"103 242 CURVE",
"46 233 OFFCURVE",
"10 192 OFFCURVE",
"10 132 CURVE SMOOTH"
);
},
{
closed = 1;
nodes = (
"230 170 OFFCURVE",
"242 181 OFFCURVE",
"260 181 CURVE SMOOTH",
"278 181 OFFCURVE",
"289 170 OFFCURVE",
"289 156 CURVE SMOOTH",
"289 142 OFFCURVE",
"278 132 OFFCURVE",
"260 132 CURVE SMOOTH",
"242 132 OFFCURVE",
"230 142 OFFCURVE",
"230 156 CURVE SMOOTH"
);
},
{
closed = 1;
nodes = (
"230 338 OFFCURVE",
"242 347 OFFCURVE",
"260 347 CURVE SMOOTH",
"278 347 OFFCURVE",
"289 338 OFFCURVE",
"289 322 CURVE SMOOTH",
"289 308 OFFCURVE",
"278 298 OFFCURVE",
"260 298 CURVE SMOOTH",
"242 298 OFFCURVE",
"230 308 OFFCURVE",
"230 322 CURVE SMOOTH"
);
}
);
width = 520;
},
{
layerId = "3B426CF6-0C00-48CC-B0F4-6E2C4CD07FAD";
paths = (
{
closed = 1;
nodes = (
"10 47 OFFCURVE",
"93 -7 OFFCURVE",
"303 -7 CURVE SMOOTH",
"482 -7 OFFCURVE",
"600 32 OFFCURVE",
"600 132 CURVE SMOOTH",
"600 191 OFFCURVE",
"558 233 OFFCURVE",
"490 242 CURVE",
"548 256 OFFCURVE",
"583 296 OFFCURVE",
"583 349 CURVE SMOOTH",
"583 430 OFFCURVE",
"493 485 OFFCURVE",
"306 485 CURVE SMOOTH",
"138 485 OFFCURVE",
"25 441 OFFCURVE",
"25 347 CURVE SMOOTH",
"25 296 OFFCURVE",
"62 256 OFFCURVE",
"120 242 CURVE",
"52 233 OFFCURVE",
"10 191 OFFCURVE",
"10 132 CURVE SMOOTH"
);
},
{
closed = 1;
nodes = (
"270 170 OFFCURVE",
"284 181 OFFCURVE",
"305 181 CURVE SMOOTH",
"326 181 OFFCURVE",
"339 170 OFFCURVE",
"339 156 CURVE SMOOTH",
"339 142 OFFCURVE",
"326 132 OFFCURVE",
"305 132 CURVE SMOOTH",
"284 132 OFFCURVE",
"270 142 OFFCURVE",
"270 156 CURVE SMOOTH"
);
},
{
closed = 1;
nodes = (
"270 338 OFFCURVE",
"284 347 OFFCURVE",
"305 347 CURVE SMOOTH",
"326 347 OFFCURVE",
"339 338 OFFCURVE",
"339 322 CURVE SMOOTH",
"339 308 OFFCURVE",
"326 298 OFFCURVE",
"305 298 CURVE SMOOTH",
"284 298 OFFCURVE",
"270 308 OFFCURVE",
"270 322 CURVE SMOOTH"
);
}
);
width = 610;
}
);
leftMetricsKey = eight;
rightMetricsKey = eight;
},
{
glyphname = nine.dnom;
lastChange = "2020-06-11 11:39:20 +0000";
layers = (
{
layerId = "898421D1-ED89-4F9A-874F-2D62076340E9";
paths = (
{
closed = 1;
nodes = (
"510 415 OFFCURVE",
"420 483 OFFCURVE",
"260 483 CURVE SMOOTH",
"110 483 OFFCURVE",
"10 414 OFFCURVE",
"10 291 CURVE SMOOTH",
"10 195 OFFCURVE",
"76 129 OFFCURVE",
"194 129 CURVE SMOOTH",
"226 129 OFFCURVE",
"259 134 OFFCURVE",
"291 157 CURVE",
"317 185 LINE",
"264 156 OFFCURVE",
"172 79 OFFCURVE",
"89 0 CURVE",
"355 0 LINE",
"421 94 LINE SMOOTH",
"461 150 OFFCURVE",
"510 215 OFFCURVE",
"510 294 CURVE SMOOTH"
);
},
{
closed = 1;
nodes = (
"293 254 OFFCURVE",
"280 241 OFFCURVE",
"260 241 CURVE SMOOTH",
"239 241 OFFCURVE",
"226 254 OFFCURVE",
"226 272 CURVE SMOOTH",
"226 292 OFFCURVE",
"239 304 OFFCURVE",
"260 304 CURVE SMOOTH",
"280 304 OFFCURVE",
"293 292 OFFCURVE",
"293 272 CURVE SMOOTH"
);
}
);
width = 520;
},
{
layerId = "3B426CF6-0C00-48CC-B0F4-6E2C4CD07FAD";
paths = (
{
closed = 1;
nodes = (
"600 415 OFFCURVE",
"493 483 OFFCURVE",
"305 483 CURVE SMOOTH",
"128 483 OFFCURVE",
"10 414 OFFCURVE",
"10 291 CURVE SMOOTH",
"10 195 OFFCURVE",
"88 129 OFFCURVE",
"227 129 CURVE SMOOTH",
"264 129 OFFCURVE",
"304 134 OFFCURVE",
"342 157 CURVE",
"372 185 LINE",
"310 156 OFFCURVE",
"204 80 OFFCURVE",
"103 0 CURVE",
"417 0 LINE",
"495 94 LINE SMOOTH",
"542 150 OFFCURVE",
"600 216 OFFCURVE",
"600 294 CURVE SMOOTH"
);
},
{
closed = 1;
nodes = (
"344 254 OFFCURVE",
"328 241 OFFCURVE",
"305 241 CURVE SMOOTH",
"281 241 OFFCURVE",
"265 254 OFFCURVE",
"265 272 CURVE SMOOTH",
"265 292 OFFCURVE",
"281 304 OFFCURVE",
"305 304 CURVE SMOOTH",
"328 304 OFFCURVE",
"344 292 OFFCURVE",
"344 272 CURVE SMOOTH"
);
}
);
width = 610;
}
);
leftMetricsKey = nine;
rightMetricsKey = nine;
},
{
glyphname = zero.numr;
lastChange = "2020-06-11 11:38:53 +0000";
layers = (
{
layerId = "898421D1-ED89-4F9A-874F-2D62076340E9";
paths = (
{
closed = 1;
nodes = (
"186 398 LINE",
"366 482 LINE",
"360 514 LINE",
"180 430 LINE"
);
},
{
closed = 1;
nodes = (
"10 309 OFFCURVE",
"100 211 OFFCURVE",
"273 211 CURVE SMOOTH",
"436 211 OFFCURVE",
"536 299 OFFCURVE",
"536 456 CURVE SMOOTH",
"536 603 OFFCURVE",
"446 701 OFFCURVE",
"273 701 CURVE SMOOTH",
"110 701 OFFCURVE",
"10 613 OFFCURVE",
"10 456 CURVE SMOOTH"
);
},
{
closed = 1;
nodes = (
"238 504 OFFCURVE",
"252 522 OFFCURVE",
"273 522 CURVE SMOOTH",
"298 522 OFFCURVE",
"308 495 OFFCURVE",
"308 456 CURVE SMOOTH",
"308 409 OFFCURVE",
"294 391 OFFCURVE",
"273 391 CURVE SMOOTH",
"248 391 OFFCURVE",
"238 417 OFFCURVE",
"238 456 CURVE SMOOTH"
);
}
);
width = 546;
},
{
layerId = "3B426CF6-0C00-48CC-B0F4-6E2C4CD07FAD";
paths = (
{
closed = 1;
nodes = (
"216 398 LINE",
"427 482 LINE",
"420 514 LINE",
"209 430 LINE"
);
},
{
closed = 1;
nodes = (
"10 309 OFFCURVE",
"116 211 OFFCURVE",
"318 211 CURVE SMOOTH",
"508 211 OFFCURVE",
"626 299 OFFCURVE",
"626 456 CURVE SMOOTH",
"626 603 OFFCURVE",
"520 701 OFFCURVE",
"318 701 CURVE SMOOTH",
"128 701 OFFCURVE",
"10 613 OFFCURVE",
"10 456 CURVE SMOOTH"
);
},
{
closed = 1;
nodes = (
"277 504 OFFCURVE",
"294 522 OFFCURVE",
"318 522 CURVE SMOOTH",
"347 522 OFFCURVE",
"359 495 OFFCURVE",
"359 456 CURVE SMOOTH",
"359 409 OFFCURVE",
"342 391 OFFCURVE",
"318 391 CURVE SMOOTH",
"289 391 OFFCURVE",
"277 417 OFFCURVE",
"277 456 CURVE SMOOTH"
);
}
);
width = 636;
}
);
leftMetricsKey = zero;
rightMetricsKey = zero;
},
{
glyphname = one.numr;
lastChange = "2020-05-27 19:42:17 +0000";
layers = (
{
layerId = "898421D1-ED89-4F9A-874F-2D62076340E9";
paths = (
{
closed = 1;
nodes = (
"53 453 OFFCURVE",
"90 471 OFFCURVE",
"109 489 CURVE",
"109 215 LINE",
"329 215 LINE",
"329 690 LINE",
"208 690 LINE",
"15 620 LINE",
"15 443 LINE"
);
}
);
width = 349;
},
{
layerId = "3B426CF6-0C00-48CC-B0F4-6E2C4CD07FAD";
paths = (
{
closed = 1;
nodes = (
"64 453 OFFCURVE",
"112 471 OFFCURVE",
"136 489 CURVE",
"136 215 LINE",
"419 215 LINE",
"419 690 LINE",
"263 690 LINE",
"15 620 LINE",
"15 443 LINE"
);
}
);
width = 439;
}
);
leftMetricsKey = one;
rightMetricsKey = one;
},
{
glyphname = two.numr;
lastChange = "2020-05-27 19:42:17 +0000";
layers = (
{
layerId = "898421D1-ED89-4F9A-874F-2D62076340E9";
paths = (
{
closed = 1;
nodes = (
"459 648 OFFCURVE",
"365 701 OFFCURVE",
"223 701 CURVE SMOOTH",
"140 701 OFFCURVE",
"59 683 OFFCURVE",
"20 663 CURVE",
"20 481 LINE",
"64 499 OFFCURVE",
"120 512 OFFCURVE",
"163 512 CURVE SMOOTH",
"206 512 OFFCURVE",
"229 499 OFFCURVE",
"229 472 CURVE SMOOTH",
"229 416 OFFCURVE",
"132 389 OFFCURVE",
"20 356 CURVE",
"20 218 LINE",
"452 218 LINE",
"452 378 LINE",
"436 378 LINE SMOOTH",
"374 378 OFFCURVE",
"246 364 OFFCURVE",
"166 342 CURVE",
"227 351 LINE",
"390 382 OFFCURVE",
"459 433 OFFCURVE",
"459 536 CURVE SMOOTH"
);
}
);
width = 479;
},
{
layerId = "3B426CF6-0C00-48CC-B0F4-6E2C4CD07FAD";
paths = (
{
closed = 1;
nodes = (
"549 648 OFFCURVE",
"435 701 OFFCURVE",
"265 701 CURVE SMOOTH",
"165 701 OFFCURVE",
"67 683 OFFCURVE",
"20 663 CURVE",
"20 481 LINE",
"73 499 OFFCURVE",
"141 512 OFFCURVE",
"192 512 CURVE SMOOTH",
"244 512 OFFCURVE",
"272 499 OFFCURVE",
"272 472 CURVE SMOOTH",
"272 416 OFFCURVE",
"155 389 OFFCURVE",
"20 356 CURVE",
"20 218 LINE",
"541 218 LINE",
"541 378 LINE",
"521 378 LINE SMOOTH",
"448 378 OFFCURVE",
"292 364 OFFCURVE",
"196 342 CURVE",
"269 351 LINE",
"466 382 OFFCURVE",
"549 434 OFFCURVE",
"549 536 CURVE SMOOTH"
);
}
);
width = 569;
}
);
leftMetricsKey = two;
rightMetricsKey = two;
},
{
glyphname = three.numr;
lastChange = "2020-05-27 19:42:17 +0000";
layers = (
{
layerId = "898421D1-ED89-4F9A-874F-2D62076340E9";
paths = (
{
closed = 1;
nodes = (
"271 515 LINE",
"264 524 LINE",
"156 483 LINE",
"170 435 LINE",
"182 439 OFFCURVE",
"200 441 OFFCURVE",
"216 441 CURVE SMOOTH",
"236 441 OFFCURVE",
"249 437 OFFCURVE",
"249 423 CURVE SMOOTH",
"249 408 OFFCURVE",
"228 397 OFFCURVE",
"182 397 CURVE SMOOTH",
"133 397 OFFCURVE",
"75 408 OFFCURVE",
"29 427 CURVE",
"29 241 LINE",
"73 221 OFFCURVE",
"143 207 OFFCURVE",
"215 207 CURVE SMOOTH",
"383 207 OFFCURVE",
"480 255 OFFCURVE",
"480 357 CURVE SMOOTH",
"480 451 OFFCURVE",
"408 492 OFFCURVE",
"299 474 CURVE",
"321 470 LINE",
"452 540 LINE",
"452 690 LINE",
"29 690 LINE",
"29 515 LINE"
);
}
);
width = 490;
},
{
layerId = "3B426CF6-0C00-48CC-B0F4-6E2C4CD07FAD";
paths = (
{
closed = 1;
nodes = (
"310 515 LINE",
"302 524 LINE",
"172 483 LINE",
"189 435 LINE",
"203 439 OFFCURVE",
"226 441 OFFCURVE",
"244 441 CURVE SMOOTH",
"268 441 OFFCURVE",
"284 437 OFFCURVE",
"284 423 CURVE SMOOTH",
"284 408 OFFCURVE",
"258 397 OFFCURVE",
"204 397 CURVE SMOOTH",
"146 397 OFFCURVE",
"75 408 OFFCURVE",
"20 427 CURVE",
"20 241 LINE",
"73 221 OFFCURVE",
"157 207 OFFCURVE",
"243 207 CURVE SMOOTH",
"444 207 OFFCURVE",
"561 255 OFFCURVE",
"561 357 CURVE SMOOTH",
"561 450 OFFCURVE",
"475 492 OFFCURVE",
"344 474 CURVE",
"370 470 LINE",
"527 540 LINE",
"527 690 LINE",
"20 690 LINE",
"20 515 LINE"
);
}
);
width = 571;
}
);
leftMetricsKey = three;
rightMetricsKey = three;
},
{
glyphname = four.numr;
lastChange = "2020-05-27 19:42:17 +0000";
layers = (
{
layerId = "898421D1-ED89-4F9A-874F-2D62076340E9";
paths = (
{
closed = 1;
nodes = (
"239 290 LINE",
"239 215 LINE",
"459 215 LINE",
"459 290 LINE",
"510 290 LINE",
"510 446 LINE",
"459 446 LINE",
"459 690 LINE",
"221 690 LINE",
"140 599 OFFCURVE",
"59 493 OFFCURVE",
"20 425 CURVE",
"20 290 LINE"
);
},
{
closed = 1;
nodes = (
"205 465 OFFCURVE",
"243 513 OFFCURVE",
"268 554 CURVE",
"239 573 LINE",
"239 446 LINE",
"152 446 LINE",
"173 433 LINE"
);
}
);
width = 530;
},
{
layerId = "3B426CF6-0C00-48CC-B0F4-6E2C4CD07FAD";
paths = (
{
closed = 1;
nodes = (
"279 290 LINE",
"279 215 LINE",
"540 215 LINE",
"540 290 LINE",
"600 290 LINE",
"600 446 LINE",
"540 446 LINE",
"540 690 LINE",
"258 690 LINE",
"162 599 OFFCURVE",
"66 493 OFFCURVE",
"20 425 CURVE",
"20 290 LINE"
);
},
{
closed = 1;
nodes = (
"239 465 OFFCURVE",
"284 514 OFFCURVE",
"314 554 CURVE",
"279 573 LINE",
"279 446 LINE",
"176 446 LINE",
"201 433 LINE"
);
}
);
width = 610;
}
);
leftMetricsKey = four;
rightMetricsKey = four;
},
{
glyphname = five.numr;
lastChange = "2020-05-30 13:02:29 +0000";
layers = (
{
layerId = "898421D1-ED89-4F9A-874F-2D62076340E9";
paths = (
{
closed = 1;
nodes = (
"452 450 OFFCURVE",
"395 502 OFFCURVE",
"295 502 CURVE SMOOTH",
"260 502 OFFCURVE",
"227 496 OFFCURVE",
"205 487 CURVE",
"239 473 LINE",
"243 532 LINE",
"431 532 LINE",
"431 690 LINE",
"35 690 LINE",
"21 455 LINE",
"53 465 OFFCURVE",
"95 472 OFFCURVE",
"141 472 CURVE SMOOTH",
"197 472 OFFCURVE",
"221 461 OFFCURVE",
"221 437 CURVE SMOOTH",
"221 415 OFFCURVE",
"203 400 OFFCURVE",
"147 400 CURVE SMOOTH",
"101 400 OFFCURVE",
"50 411 OFFCURVE",
"15 430 CURVE",
"15 244 LINE",
"59 222 OFFCURVE",
"126 210 OFFCURVE",
"197 210 CURVE SMOOTH",
"344 210 OFFCURVE",
"452 262 OFFCURVE",
"452 368 CURVE SMOOTH"
);
}
);
width = 462;
},
{
layerId = "3B426CF6-0C00-48CC-B0F4-6E2C4CD07FAD";
paths = (
{
closed = 1;
nodes = (
"538 450 OFFCURVE",
"469 502 OFFCURVE",
"349 502 CURVE SMOOTH",
"306 502 OFFCURVE",
"267 496 OFFCURVE",
"240 487 CURVE",
"281 473 LINE",
"286 532 LINE",
"513 532 LINE",
"513 690 LINE",
"35 690 LINE",
"18 455 LINE",
"57 465 OFFCURVE",
"108 472 OFFCURVE",
"163 472 CURVE SMOOTH",
"230 472 OFFCURVE",
"259 461 OFFCURVE",
"259 437 CURVE SMOOTH",
"259 415 OFFCURVE",
"237 400 OFFCURVE",
"170 400 CURVE SMOOTH",
"116 400 OFFCURVE",
"53 411 OFFCURVE",
"11 430 CURVE",
"11 244 LINE",
"64 222 OFFCURVE",
"145 210 OFFCURVE",
"230 210 CURVE SMOOTH",
"407 210 OFFCURVE",
"538 262 OFFCURVE",
"538 368 CURVE SMOOTH"
);
}
);
width = 548;
}
);
leftMetricsKey = five;
rightMetricsKey = five;
},
{
glyphname = six.numr;
lastChange = "2020-05-27 03:12:14 +0000";
layers = (
{
layerId = "898421D1-ED89-4F9A-874F-2D62076340E9";
paths = (
{
closed = 1;
nodes = (
"10 280 OFFCURVE",
"86 208 OFFCURVE",
"247 208 CURVE SMOOTH",
"415 208 OFFCURVE",
"509 274 OFFCURVE",
"509 391 CURVE SMOOTH",
"509 489 OFFCURVE",
"435 555 OFFCURVE",
"324 555 CURVE SMOOTH",
"293 555 OFFCURVE",
"260 550 OFFCURVE",
"227 527 CURVE",
"202 506 LINE",
"255 535 OFFCURVE",
"330 587 OFFCURVE",
"430 690 CURVE",
"164 690 LINE",
"100 596 LINE SMOOTH",
"56 533 OFFCURVE",
"10 476 OFFCURVE",
"10 388 CURVE SMOOTH"
);
},
{
closed = 1;
nodes = (
"225 437 OFFCURVE",
"238 450 OFFCURVE",
"259 450 CURVE SMOOTH",
"280 450 OFFCURVE",
"293 437 OFFCURVE",
"293 419 CURVE SMOOTH",
"293 399 OFFCURVE",
"280 387 OFFCURVE",
"259 387 CURVE SMOOTH",
"238 387 OFFCURVE",
"225 399 OFFCURVE",
"225 419 CURVE SMOOTH"
);
}
);
width = 519;
},
{
layerId = "3B426CF6-0C00-48CC-B0F4-6E2C4CD07FAD";
paths = (
{
closed = 1;
nodes = (
"10 280 OFFCURVE",
"100 208 OFFCURVE",
"290 208 CURVE SMOOTH",
"488 208 OFFCURVE",
"599 274 OFFCURVE",
"599 391 CURVE SMOOTH",
"599 489 OFFCURVE",
"511 555 OFFCURVE",
"381 555 CURVE SMOOTH",
"345 555 OFFCURVE",
"305 550 OFFCURVE",
"266 527 CURVE",
"237 506 LINE",
"299 535 OFFCURVE",
"387 587 OFFCURVE",
"506 690 CURVE",
"192 690 LINE",
"116 596 LINE SMOOTH",
"65 533 OFFCURVE",
"10 476 OFFCURVE",
"10 388 CURVE SMOOTH"
);
},
{
closed = 1;
nodes = (
"264 437 OFFCURVE",
"280 450 OFFCURVE",
"304 450 CURVE SMOOTH",
"328 450 OFFCURVE",
"344 437 OFFCURVE",
"344 419 CURVE SMOOTH",
"344 399 OFFCURVE",
"328 387 OFFCURVE",
"304 387 CURVE SMOOTH",
"280 387 OFFCURVE",
"264 399 OFFCURVE",
"264 419 CURVE SMOOTH"
);
}
);
width = 609;
}
);
leftMetricsKey = six;
rightMetricsKey = six;
},
{
glyphname = seven.numr;
lastChange = "2020-05-27 03:12:14 +0000";
layers = (
{
layerId = "898421D1-ED89-4F9A-874F-2D62076340E9";
paths = (
{
closed = 1;
nodes = (
"279 508 LINE",
"249 519 LINE",
"135 452 OFFCURVE",
"65 350 OFFCURVE",
"66 232 CURVE SMOOTH",
"66 215 LINE",
"291 215 LINE",
"291 233 LINE SMOOTH",
"291 346 OFFCURVE",
"343 433 OFFCURVE",
"461 528 CURVE",
"461 690 LINE",
"10 690 LINE",
"10 508 LINE"
);
}
);
width = 471;
},
{
layerId = "3B426CF6-0C00-48CC-B0F4-6E2C4CD07FAD";
paths = (
{
closed = 1;
nodes = (
"333 508 LINE",
"297 519 LINE",
"160 452 OFFCURVE",
"76 350 OFFCURVE",
"76 232 CURVE SMOOTH",
"76 215 LINE",
"347 215 LINE",
"347 233 LINE SMOOTH",
"347 345 OFFCURVE",
"408 432 OFFCURVE",
"551 528 CURVE",
"551 690 LINE",
"10 690 LINE",
"10 508 LINE"
);
}
);
width = 561;
}
);
leftMetricsKey = seven;
rightMetricsKey = seven;
},
{
glyphname = eight.numr;
lastChange = "2020-05-27 03:12:14 +0000";
layers = (
{
layerId = "898421D1-ED89-4F9A-874F-2D62076340E9";
paths = (
{
closed = 1;
nodes = (
"10 262 OFFCURVE",
"80 208 OFFCURVE",
"258 208 CURVE SMOOTH",
"410 208 OFFCURVE",
"510 247 OFFCURVE",
"510 347 CURVE SMOOTH",
"510 407 OFFCURVE",
"474 448 OFFCURVE",
"417 457 CURVE",
"466 471 OFFCURVE",
"496 511 OFFCURVE",
"496 564 CURVE SMOOTH",
"496 645 OFFCURVE",
"420 700 OFFCURVE",
"261 700 CURVE SMOOTH",
"118 700 OFFCURVE",
"23 656 OFFCURVE",
"23 562 CURVE SMOOTH",
"23 511 OFFCURVE",
"54 471 OFFCURVE",
"103 457 CURVE",
"46 448 OFFCURVE",
"10 407 OFFCURVE",
"10 347 CURVE SMOOTH"
);
},
{
closed = 1;
nodes = (
"230 385 OFFCURVE",
"242 396 OFFCURVE",
"260 396 CURVE SMOOTH",
"278 396 OFFCURVE",
"289 385 OFFCURVE",
"289 371 CURVE SMOOTH",
"289 357 OFFCURVE",
"278 347 OFFCURVE",
"260 347 CURVE SMOOTH",
"242 347 OFFCURVE",
"230 357 OFFCURVE",
"230 371 CURVE SMOOTH"
);
},
{
closed = 1;
nodes = (
"230 553 OFFCURVE",
"242 562 OFFCURVE",
"260 562 CURVE SMOOTH",
"278 562 OFFCURVE",
"289 553 OFFCURVE",
"289 537 CURVE SMOOTH",
"289 523 OFFCURVE",
"278 513 OFFCURVE",
"260 513 CURVE SMOOTH",
"242 513 OFFCURVE",
"230 523 OFFCURVE",
"230 537 CURVE SMOOTH"
);
}
);
width = 520;
},
{
layerId = "3B426CF6-0C00-48CC-B0F4-6E2C4CD07FAD";
paths = (
{
closed = 1;
nodes = (
"10 262 OFFCURVE",
"93 208 OFFCURVE",
"303 208 CURVE SMOOTH",
"482 208 OFFCURVE",
"600 247 OFFCURVE",
"600 347 CURVE SMOOTH",
"600 406 OFFCURVE",
"558 448 OFFCURVE",
"490 457 CURVE",
"548 471 OFFCURVE",
"583 511 OFFCURVE",
"583 564 CURVE SMOOTH",
"583 645 OFFCURVE",
"493 700 OFFCURVE",
"306 700 CURVE SMOOTH",
"138 700 OFFCURVE",
"25 656 OFFCURVE",
"25 562 CURVE SMOOTH",
"25 511 OFFCURVE",
"62 471 OFFCURVE",
"120 457 CURVE",
"52 448 OFFCURVE",
"10 406 OFFCURVE",
"10 347 CURVE SMOOTH"
);
},
{
closed = 1;
nodes = (
"270 385 OFFCURVE",
"284 396 OFFCURVE",
"305 396 CURVE SMOOTH",
"326 396 OFFCURVE",
"339 385 OFFCURVE",
"339 371 CURVE SMOOTH",
"339 357 OFFCURVE",
"326 347 OFFCURVE",
"305 347 CURVE SMOOTH",
"284 347 OFFCURVE",
"270 357 OFFCURVE",
"270 371 CURVE SMOOTH"
);
},
{
closed = 1;
nodes = (
"270 553 OFFCURVE",
"284 562 OFFCURVE",
"305 562 CURVE SMOOTH",
"326 562 OFFCURVE",
"339 553 OFFCURVE",
"339 537 CURVE SMOOTH",
"339 523 OFFCURVE",
"326 513 OFFCURVE",
"305 513 CURVE SMOOTH",
"284 513 OFFCURVE",
"270 523 OFFCURVE",
"270 537 CURVE SMOOTH"
);
}
);
width = 610;
}
);
leftMetricsKey = eight;
rightMetricsKey = eight;
},
{
glyphname = nine.numr;
lastChange = "2020-05-27 03:12:14 +0000";
layers = (
{
layerId = "898421D1-ED89-4F9A-874F-2D62076340E9";
paths = (
{
closed = 1;
nodes = (
"510 633 OFFCURVE",
"420 701 OFFCURVE",
"260 701 CURVE SMOOTH",
"110 701 OFFCURVE",
"10 632 OFFCURVE",
"10 509 CURVE SMOOTH",
"10 413 OFFCURVE",
"76 347 OFFCURVE",
"194 347 CURVE SMOOTH",
"226 347 OFFCURVE",
"259 352 OFFCURVE",
"291 375 CURVE",
"317 403 LINE",
"264 374 OFFCURVE",
"172 297 OFFCURVE",
"89 218 CURVE",
"355 218 LINE",
"421 312 LINE SMOOTH",
"461 368 OFFCURVE",
"510 433 OFFCURVE",
"510 512 CURVE SMOOTH"
);
},
{
closed = 1;
nodes = (
"293 472 OFFCURVE",
"280 459 OFFCURVE",
"260 459 CURVE SMOOTH",
"239 459 OFFCURVE",
"226 472 OFFCURVE",
"226 490 CURVE SMOOTH",
"226 510 OFFCURVE",
"239 522 OFFCURVE",
"260 522 CURVE SMOOTH",
"280 522 OFFCURVE",
"293 510 OFFCURVE",
"293 490 CURVE SMOOTH"
);
}
);
width = 520;
},
{
layerId = "3B426CF6-0C00-48CC-B0F4-6E2C4CD07FAD";
paths = (
{
closed = 1;
nodes = (
"600 633 OFFCURVE",
"493 701 OFFCURVE",
"305 701 CURVE SMOOTH",
"128 701 OFFCURVE",
"10 632 OFFCURVE",
"10 509 CURVE SMOOTH",
"10 413 OFFCURVE",
"88 347 OFFCURVE",
"227 347 CURVE SMOOTH",
"264 347 OFFCURVE",
"304 352 OFFCURVE",
"342 375 CURVE",
"372 403 LINE",
"310 374 OFFCURVE",
"204 298 OFFCURVE",
"103 218 CURVE",
"417 218 LINE",
"495 312 LINE SMOOTH",
"542 368 OFFCURVE",
"600 434 OFFCURVE",
"600 512 CURVE SMOOTH"
);
},
{
closed = 1;
nodes = (
"344 472 OFFCURVE",
"328 459 OFFCURVE",
"305 459 CURVE SMOOTH",
"281 459 OFFCURVE",
"265 472 OFFCURVE",
"265 490 CURVE SMOOTH",
"265 510 OFFCURVE",
"281 522 OFFCURVE",
"305 522 CURVE SMOOTH",
"328 522 OFFCURVE",
"344 510 OFFCURVE",
"344 490 CURVE SMOOTH"
);
}
);
width = 610;
}
);
leftMetricsKey = nine;
rightMetricsKey = nine;
},
{
color = 6;
glyphname = zerosuperior;
lastChange = "2020-05-27 03:12:14 +0000";
layers = (
{
layerId = "898421D1-ED89-4F9A-874F-2D62076340E9";
paths = (
{
closed = 1;
nodes = (
"199 374 LINE",
"393 464 LINE",
"387 498 LINE",
"193 408 LINE"
);
},
{
closed = 1;
nodes = (
"10 277 OFFCURVE",
"107 172 OFFCURVE",
"293 172 CURVE SMOOTH",
"469 172 OFFCURVE",
"576 267 OFFCURVE",
"576 436 CURVE SMOOTH",
"576 595 OFFCURVE",
"479 700 OFFCURVE",
"293 700 CURVE SMOOTH",
"117 700 OFFCURVE",
"10 605 OFFCURVE",
"10 436 CURVE SMOOTH"
);
},
{
closed = 1;
nodes = (
"255 487 OFFCURVE",
"271 506 OFFCURVE",
"293 506 CURVE SMOOTH",
"320 506 OFFCURVE",
"331 478 OFFCURVE",
"331 436 CURVE SMOOTH",
"331 385 OFFCURVE",
"315 366 OFFCURVE",
"293 366 CURVE SMOOTH",
"266 366 OFFCURVE",
"255 394 OFFCURVE",
"255 436 CURVE SMOOTH"
);
}
);
width = 586;
},
{
layerId = "3B426CF6-0C00-48CC-B0F4-6E2C4CD07FAD";
paths = (
{
closed = 1;
nodes = (
"229 374 LINE",
"454 464 LINE",
"447 498 LINE",
"222 408 LINE"
);
},
{
closed = 1;
nodes = (
"10 277 OFFCURVE",
"123 172 OFFCURVE",
"338 172 CURVE SMOOTH",
"541 172 OFFCURVE",
"666 267 OFFCURVE",
"666 436 CURVE SMOOTH",
"666 595 OFFCURVE",
"553 700 OFFCURVE",
"338 700 CURVE SMOOTH",
"135 700 OFFCURVE",
"10 605 OFFCURVE",
"10 436 CURVE SMOOTH"
);
},
{
closed = 1;
nodes = (
"294 487 OFFCURVE",
"313 506 OFFCURVE",
"338 506 CURVE SMOOTH",
"369 506 OFFCURVE",
"382 478 OFFCURVE",
"382 436 CURVE SMOOTH",
"382 385 OFFCURVE",
"363 366 OFFCURVE",
"338 366 CURVE SMOOTH",
"307 366 OFFCURVE",
"294 394 OFFCURVE",
"294 436 CURVE SMOOTH"
);
}
);
width = 676;
}
);
leftMetricsKey = zero;
rightMetricsKey = zero;
unicode = 2070;
},
{
color = 6;
glyphname = onesuperior;
lastChange = "2020-05-27 19:42:17 +0000";
layers = (
{
layerId = "898421D1-ED89-4F9A-874F-2D62076340E9";
paths = (
{
closed = 1;
nodes = (
"56 434 OFFCURVE",
"96 454 OFFCURVE",
"116 473 CURVE",
"116 178 LINE",
"353 178 LINE",
"353 690 LINE",
"223 690 LINE",
"15 614 LINE",
"15 424 LINE"
);
}
);
width = 373;
},
{
layerId = "3B426CF6-0C00-48CC-B0F4-6E2C4CD07FAD";
paths = (
{
closed = 1;
nodes = (
"67 434 OFFCURVE",
"117 455 OFFCURVE",
"143 473 CURVE",
"143 178 LINE",
"443 178 LINE",
"443 690 LINE",
"278 690 LINE",
"15 614 LINE",
"15 424 LINE"
);
}
);
width = 463;
}
);
leftMetricsKey = one;
rightMetricsKey = one;
unicode = 00B9;
},
{
color = 6;
glyphname = twosuperior;
lastChange = "2020-05-27 19:42:17 +0000";
layers = (
{
layerId = "898421D1-ED89-4F9A-874F-2D62076340E9";
paths = (
{
closed = 1;
nodes = (
"492 642 OFFCURVE",
"391 699 OFFCURVE",
"238 699 CURVE SMOOTH",
"149 699 OFFCURVE",
"61 680 OFFCURVE",
"20 657 CURVE",
"20 462 LINE",
"66 481 OFFCURVE",
"127 494 OFFCURVE",
"174 494 CURVE SMOOTH",
"220 494 OFFCURVE",
"244 480 OFFCURVE",
"244 451 CURVE SMOOTH",
"244 391 OFFCURVE",
"140 362 OFFCURVE",
"20 326 CURVE",
"20 178 LINE",
"485 178 LINE",
"485 350 LINE",
"468 350 LINE SMOOTH",
"401 350 OFFCURVE",
"263 335 OFFCURVE",
"177 312 CURVE",
"242 321 LINE",
"418 354 OFFCURVE",
"492 410 OFFCURVE",
"492 520 CURVE SMOOTH"
);
}
);
width = 512;
},
{
layerId = "3B426CF6-0C00-48CC-B0F4-6E2C4CD07FAD";
paths = (
{
closed = 1;
nodes = (
"582 642 OFFCURVE",
"461 699 OFFCURVE",
"280 699 CURVE SMOOTH",
"174 699 OFFCURVE",
"69 680 OFFCURVE",
"20 657 CURVE",
"20 462 LINE",
"75 481 OFFCURVE",
"148 494 OFFCURVE",
"203 494 CURVE SMOOTH",
"258 494 OFFCURVE",
"287 480 OFFCURVE",
"287 451 CURVE SMOOTH",
"287 391 OFFCURVE",
"163 362 OFFCURVE",
"20 326 CURVE",
"20 178 LINE",
"574 178 LINE",
"574 350 LINE",
"553 350 LINE SMOOTH",
"475 350 OFFCURVE",
"309 335 OFFCURVE",
"207 312 CURVE",
"284 321 LINE",
"494 354 OFFCURVE",
"582 411 OFFCURVE",
"582 520 CURVE SMOOTH"
);
}
);
width = 602;
}
);
leftMetricsKey = two;
rightMetricsKey = two;
unicode = 00B2;
},
{
color = 6;
glyphname = threesuperior;
lastChange = "2020-05-27 19:42:17 +0000";
layers = (
{
layerId = "898421D1-ED89-4F9A-874F-2D62076340E9";
paths = (
{
closed = 1;
nodes = (
"289 501 LINE",
"282 511 LINE",
"165 466 LINE",
"181 415 LINE",
"193 419 OFFCURVE",
"213 422 OFFCURVE",
"230 422 CURVE SMOOTH",
"251 422 OFFCURVE",
"266 417 OFFCURVE",
"266 402 CURVE SMOOTH",
"266 385 OFFCURVE",
"243 374 OFFCURVE",
"193 374 CURVE SMOOTH",
"141 374 OFFCURVE",
"78 385 OFFCURVE",
"29 406 CURVE",
"29 206 LINE",
"76 184 OFFCURVE",
"151 169 OFFCURVE",
"229 169 CURVE SMOOTH",
"410 169 OFFCURVE",
"514 221 OFFCURVE",
"514 331 CURVE SMOOTH",
"514 432 OFFCURVE",
"437 477 OFFCURVE",
"319 457 CURVE",
"343 453 LINE",
"484 528 LINE",
"484 690 LINE",
"29 690 LINE",
"29 501 LINE"
);
}
);
width = 524;
},
{
layerId = "3B426CF6-0C00-48CC-B0F4-6E2C4CD07FAD";
paths = (
{
closed = 1;
nodes = (
"328 501 LINE",
"320 511 LINE",
"181 466 LINE",
"200 415 LINE",
"214 419 OFFCURVE",
"239 422 OFFCURVE",
"258 422 CURVE SMOOTH",
"283 422 OFFCURVE",
"301 417 OFFCURVE",
"301 402 CURVE SMOOTH",
"301 385 OFFCURVE",
"273 374 OFFCURVE",
"214 374 CURVE SMOOTH",
"153 374 OFFCURVE",
"78 385 OFFCURVE",
"20 406 CURVE",
"20 206 LINE",
"76 184 OFFCURVE",
"165 169 OFFCURVE",
"257 169 CURVE SMOOTH",
"471 169 OFFCURVE",
"595 221 OFFCURVE",
"595 331 CURVE SMOOTH",
"595 431 OFFCURVE",
"504 477 OFFCURVE",
"364 457 CURVE",
"392 453 LINE",
"559 528 LINE",
"559 690 LINE",
"20 690 LINE",
"20 501 LINE"
);
}
);
width = 605;
}
);
leftMetricsKey = three;
rightMetricsKey = three;
unicode = 00B3;
},
{
color = 6;
glyphname = foursuperior;
lastChange = "2020-05-27 19:42:17 +0000";
layers = (
{
layerId = "898421D1-ED89-4F9A-874F-2D62076340E9";
paths = (
{
closed = 1;
nodes = (
"256 258 LINE",
"256 178 LINE",
"493 178 LINE",
"493 258 LINE",
"549 258 LINE",
"549 427 LINE",
"493 427 LINE",
"493 690 LINE",
"237 690 LINE",
"149 592 OFFCURVE",
"63 477 OFFCURVE",
"20 404 CURVE",
"20 258 LINE"
);
},
{
closed = 1;
nodes = (
"220 447 OFFCURVE",
"260 499 OFFCURVE",
"288 543 CURVE",
"256 564 LINE",
"256 427 LINE",
"163 427 LINE",
"185 413 LINE"
);
}
);
width = 569;
},
{
layerId = "3B426CF6-0C00-48CC-B0F4-6E2C4CD07FAD";
paths = (
{
closed = 1;
nodes = (
"296 258 LINE",
"296 178 LINE",
"573 178 LINE",
"573 258 LINE",
"639 258 LINE",
"639 427 LINE",
"573 427 LINE",
"573 690 LINE",
"274 690 LINE",
"171 592 OFFCURVE",
"71 477 OFFCURVE",
"20 404 CURVE",
"20 258 LINE"
);
},
{
closed = 1;
nodes = (
"254 447 OFFCURVE",
"300 499 OFFCURVE",
"334 543 CURVE",
"296 564 LINE",
"296 427 LINE",
"187 427 LINE",
"213 413 LINE"
);
}
);
width = 649;
}
);
leftMetricsKey = four;
rightMetricsKey = four;
unicode = 2074;
},
{
color = 6;
glyphname = fivesuperior;
lastChange = "2020-05-30 13:02:29 +0000";
layers = (
{
layerId = "898421D1-ED89-4F9A-874F-2D62076340E9";
paths = (
{
closed = 1;
nodes = (
"486 431 OFFCURVE",
"424 487 OFFCURVE",
"317 487 CURVE SMOOTH",
"280 487 OFFCURVE",
"243 481 OFFCURVE",
"221 471 CURVE",
"257 455 LINE",
"261 520 LINE",
"463 520 LINE",
"463 690 LINE",
"37 690 LINE",
"22 436 LINE",
"56 447 OFFCURVE",
"102 455 OFFCURVE",
"151 455 CURVE SMOOTH",
"211 455 OFFCURVE",
"238 443 OFFCURVE",
"238 417 CURVE SMOOTH",
"238 394 OFFCURVE",
"218 377 OFFCURVE",
"158 377 CURVE SMOOTH",
"108 377 OFFCURVE",
"53 389 OFFCURVE",
"15 410 CURVE",
"15 210 LINE",
"63 185 OFFCURVE",
"135 172 OFFCURVE",
"211 172 CURVE SMOOTH",
"370 172 OFFCURVE",
"486 229 OFFCURVE",
"486 343 CURVE SMOOTH"
);
}
);
width = 496;
},
{
layerId = "3B426CF6-0C00-48CC-B0F4-6E2C4CD07FAD";
paths = (
{
closed = 1;
nodes = (
"572 431 OFFCURVE",
"498 487 OFFCURVE",
"371 487 CURVE SMOOTH",
"327 487 OFFCURVE",
"283 481 OFFCURVE",
"256 471 CURVE",
"299 455 LINE",
"304 520 LINE",
"545 520 LINE",
"545 690 LINE",
"37 690 LINE",
"19 436 LINE",
"60 447 OFFCURVE",
"115 455 OFFCURVE",
"173 455 CURVE SMOOTH",
"244 455 OFFCURVE",
"277 443 OFFCURVE",
"277 417 CURVE SMOOTH",
"277 394 OFFCURVE",
"252 377 OFFCURVE",
"181 377 CURVE SMOOTH",
"123 377 OFFCURVE",
"56 389 OFFCURVE",
"11 410 CURVE",
"11 210 LINE",
"68 185 OFFCURVE",
"155 172 OFFCURVE",
"244 172 CURVE SMOOTH",
"433 172 OFFCURVE",
"572 229 OFFCURVE",
"572 343 CURVE SMOOTH"
);
}
);
width = 582;
}
);
leftMetricsKey = five;
rightMetricsKey = five;
unicode = 2075;
},
{
color = 6;
glyphname = sixsuperior;
lastChange = "2020-05-27 03:12:14 +0000";
layers = (
{
layerId = "898421D1-ED89-4F9A-874F-2D62076340E9";
paths = (
{
closed = 1;
nodes = (
"10 248 OFFCURVE",
"92 170 OFFCURVE",
"267 170 CURVE SMOOTH",
"447 170 OFFCURVE",
"549 241 OFFCURVE",
"549 368 CURVE SMOOTH",
"549 474 OFFCURVE",
"469 544 OFFCURVE",
"350 544 CURVE SMOOTH",
"315 544 OFFCURVE",
"280 539 OFFCURVE",
"245 514 CURVE",
"218 491 LINE",
"275 523 OFFCURVE",
"355 579 OFFCURVE",
"464 690 CURVE",
"176 690 LINE",
"107 589 LINE SMOOTH",
"61 520 OFFCURVE",
"10 459 OFFCURVE",
"10 365 CURVE SMOOTH"
);
},
{
closed = 1;
nodes = (
"243 417 OFFCURVE",
"257 431 OFFCURVE",
"279 431 CURVE SMOOTH",
"301 431 OFFCURVE",
"315 417 OFFCURVE",
"315 397 CURVE SMOOTH",
"315 377 OFFCURVE",
"301 363 OFFCURVE",
"279 363 CURVE SMOOTH",
"257 363 OFFCURVE",
"243 377 OFFCURVE",
"243 397 CURVE SMOOTH"
);
}
);
width = 559;
},
{
layerId = "3B426CF6-0C00-48CC-B0F4-6E2C4CD07FAD";
paths = (
{
closed = 1;
nodes = (
"10 248 OFFCURVE",
"106 170 OFFCURVE",
"310 170 CURVE SMOOTH",
"519 170 OFFCURVE",
"639 241 OFFCURVE",
"639 368 CURVE SMOOTH",
"639 474 OFFCURVE",
"545 544 OFFCURVE",
"407 544 CURVE SMOOTH",
"367 544 OFFCURVE",
"325 539 OFFCURVE",
"284 514 CURVE",
"253 491 LINE",
"319 523 OFFCURVE",
"411 579 OFFCURVE",
"540 690 CURVE",
"204 690 LINE",
"124 589 LINE SMOOTH",
"69 520 OFFCURVE",
"10 458 OFFCURVE",
"10 365 CURVE SMOOTH"
);
},
{
closed = 1;
nodes = (
"282 417 OFFCURVE",
"299 431 OFFCURVE",
"324 431 CURVE SMOOTH",
"349 431 OFFCURVE",
"366 417 OFFCURVE",
"366 397 CURVE SMOOTH",
"366 377 OFFCURVE",
"349 363 OFFCURVE",
"324 363 CURVE SMOOTH",
"299 363 OFFCURVE",
"282 377 OFFCURVE",
"282 397 CURVE SMOOTH"
);
}
);
width = 649;
}
);
leftMetricsKey = six;
rightMetricsKey = six;
unicode = 2076;
},
{
color = 6;
glyphname = sevensuperior;
lastChange = "2020-05-27 03:12:14 +0000";
layers = (
{
layerId = "898421D1-ED89-4F9A-874F-2D62076340E9";
paths = (
{
closed = 1;
nodes = (
"300 493 LINE",
"268 506 LINE",
"145 433 OFFCURVE",
"70 323 OFFCURVE",
"71 196 CURVE SMOOTH",
"71 178 LINE",
"313 178 LINE",
"313 197 LINE SMOOTH",
"313 319 OFFCURVE",
"369 413 OFFCURVE",
"496 515 CURVE",
"496 690 LINE",
"10 690 LINE",
"10 493 LINE"
);
}
);
width = 506;
},
{
layerId = "3B426CF6-0C00-48CC-B0F4-6E2C4CD07FAD";
paths = (
{
closed = 1;
nodes = (
"354 493 LINE",
"316 506 LINE",
"170 433 OFFCURVE",
"82 323 OFFCURVE",
"82 196 CURVE SMOOTH",
"82 178 LINE",
"369 178 LINE",
"369 197 LINE SMOOTH",
"369 318 OFFCURVE",
"434 412 OFFCURVE",
"586 515 CURVE",
"586 690 LINE",
"10 690 LINE",
"10 493 LINE"
);
}
);
width = 596;
}
);
leftMetricsKey = seven;
rightMetricsKey = seven;
unicode = 2077;
},
{
color = 6;
glyphname = eightsuperior;
lastChange = "2020-05-27 03:12:14 +0000";
layers = (
{
layerId = "898421D1-ED89-4F9A-874F-2D62076340E9";
paths = (
{
closed = 1;
nodes = (
"10 228 OFFCURVE",
"86 170 OFFCURVE",
"279 170 CURVE SMOOTH",
"441 170 OFFCURVE",
"550 211 OFFCURVE",
"550 319 CURVE SMOOTH",
"550 385 OFFCURVE",
"510 428 OFFCURVE",
"449 438 CURVE",
"502 453 OFFCURVE",
"535 496 OFFCURVE",
"535 553 CURVE SMOOTH",
"535 641 OFFCURVE",
"453 700 OFFCURVE",
"281 700 CURVE SMOOTH",
"127 700 OFFCURVE",
"25 652 OFFCURVE",
"25 551 CURVE SMOOTH",
"25 496 OFFCURVE",
"58 453 OFFCURVE",
"111 438 CURVE",
"50 428 OFFCURVE",
"10 385 OFFCURVE",
"10 319 CURVE SMOOTH"
);
},
{
closed = 1;
nodes = (
"248 361 OFFCURVE",
"261 372 OFFCURVE",
"280 372 CURVE SMOOTH",
"299 372 OFFCURVE",
"312 361 OFFCURVE",
"312 345 CURVE SMOOTH",
"312 330 OFFCURVE",
"299 319 OFFCURVE",
"280 319 CURVE SMOOTH",
"261 319 OFFCURVE",
"248 330 OFFCURVE",
"248 345 CURVE SMOOTH"
);
},
{
closed = 1;
nodes = (
"248 541 OFFCURVE",
"261 551 OFFCURVE",
"280 551 CURVE SMOOTH",
"299 551 OFFCURVE",
"312 541 OFFCURVE",
"312 525 CURVE SMOOTH",
"312 509 OFFCURVE",
"299 499 OFFCURVE",
"280 499 CURVE SMOOTH",
"261 499 OFFCURVE",
"248 509 OFFCURVE",
"248 525 CURVE SMOOTH"
);
}
);
width = 560;
},
{
layerId = "3B426CF6-0C00-48CC-B0F4-6E2C4CD07FAD";
paths = (
{
closed = 1;
nodes = (
"10 228 OFFCURVE",
"99 170 OFFCURVE",
"324 170 CURVE SMOOTH",
"512 170 OFFCURVE",
"640 211 OFFCURVE",
"640 319 CURVE SMOOTH",
"640 385 OFFCURVE",
"593 428 OFFCURVE",
"522 438 CURVE",
"584 453 OFFCURVE",
"623 496 OFFCURVE",
"623 553 CURVE SMOOTH",
"623 641 OFFCURVE",
"526 700 OFFCURVE",
"326 700 CURVE SMOOTH",
"147 700 OFFCURVE",
"28 652 OFFCURVE",
"28 551 CURVE SMOOTH",
"28 496 OFFCURVE",
"66 453 OFFCURVE",
"128 438 CURVE",
"57 428 OFFCURVE",
"10 385 OFFCURVE",
"10 319 CURVE SMOOTH"
);
},
{
closed = 1;
nodes = (
"288 361 OFFCURVE",
"303 372 OFFCURVE",
"325 372 CURVE SMOOTH",
"347 372 OFFCURVE",
"362 361 OFFCURVE",
"362 345 CURVE SMOOTH",
"362 330 OFFCURVE",
"347 319 OFFCURVE",
"325 319 CURVE SMOOTH",
"303 319 OFFCURVE",
"288 330 OFFCURVE",
"288 345 CURVE SMOOTH"
);
},
{
closed = 1;
nodes = (
"288 541 OFFCURVE",
"303 551 OFFCURVE",
"325 551 CURVE SMOOTH",
"347 551 OFFCURVE",
"362 541 OFFCURVE",
"362 525 CURVE SMOOTH",
"362 509 OFFCURVE",
"347 499 OFFCURVE",
"325 499 CURVE SMOOTH",
"303 499 OFFCURVE",
"288 509 OFFCURVE",
"288 525 CURVE SMOOTH"
);
}
);
width = 650;
}
);
leftMetricsKey = eight;
rightMetricsKey = eight;
unicode = 2078;
},
